<?xml version="1.0" encoding="utf-8"?>
<!-- Generator: Adobe Illustrator 24.0.0, SVG Export Plug-In . SVG Version: 6.00 Build 0)  -->
<svg version="1.1" id="Layer_1" xmlns="http://www.w3.org/2000/svg" xmlns:xlink="http://www.w3.org/1999/xlink" x="0px" y="0px"
	 viewBox="0 0 270.9 269.9" style="enable-background:new 0 0 270.9 269.9;" xml:space="preserve">
<style type="text/css">
	.st0{fill:#393B25;}
</style>
<title>SVGS</title>
<path class="st0" d="M172.6,150.6c29-12.8,49-40,49-71.4c0-43.7-38.7-79.2-86.3-79.2C87.7,0,49,35.5,49,79.2
	c0,31.4,20.1,58.7,49.1,71.4C41.6,160.4,0,192,0,229.1v40.8h270.9v-40.8C270.9,192,229.2,160.4,172.6,150.6z M69.2,79.2
	c0-32.5,29.6-59,66.1-59c36.4,0,66.1,26.5,66.1,59s-29.6,59-66.1,59S69.2,111.8,69.2,79.2z M250.7,249.7H20.2v-20.6
	c0-6.7,2.4-13.5,7-20.1c5.1-7.3,13.1-14.3,23-20.3c11.7-6.9,24.4-12,37.6-15.3c15.5-3.9,31.5-5.9,47.6-5.8c16-0.1,32,1.9,47.6,5.8
	c13.2,3.2,25.9,8.4,37.6,15.3c9.9,6,17.8,13,23,20.3c4.6,6.6,7,13.3,7,20.1V249.7z"/>
</svg>
