<?xml version="1.0" encoding="utf-8"?>
<!-- Generator: Adobe Illustrator 24.0.0, SVG Export Plug-In . SVG Version: 6.00 Build 0)  -->
<svg version="1.1" id="Layer_1" xmlns="http://www.w3.org/2000/svg" xmlns:xlink="http://www.w3.org/1999/xlink" x="0px" y="0px"
	 viewBox="0 0 390.9 513.3" style="enable-background:new 0 0 390.9 513.3;" xml:space="preserve">
<style type="text/css">
	.st0{clip-path:url(#SVGID_2_);}
	.st1{clip-path:url(#SVGID_4_);}
	.st2{fill:#9D9D67;}
</style>
<title>SVGS</title>
<g>
	<defs>
		<rect id="SVGID_1_" width="390.9" height="513.3"/>
	</defs>
	<clipPath id="SVGID_2_">
		<use xlink:href="#SVGID_1_"  style="overflow:visible;"/>
	</clipPath>
	<g id="Group_32" class="st0">
		<g>
			<defs>
				
					<rect id="SVGID_3_" x="204.5" y="12.1" transform="matrix(0.6293 -0.7771 0.7771 0.6293 -196.303 539.9753)" width="526.8" height="927.3"/>
			</defs>
			<clipPath id="SVGID_4_">
				<use xlink:href="#SVGID_3_"  style="overflow:visible;"/>
			</clipPath>
			<g class="st1">
				<g id="Group_31">
					<g id="Group_20">
						<path id="Path_14" class="st2" d="M305.3,7.4c-0.2,0-0.3,0-0.4,0c-1.4,0.1-2.9,0.3-4.3,0.6c-0.7,0.1-1.3,0.3-2,0.5l-0.7,0.3
							c-0.5,0.5-1.1,0.9-1.7,1.3c-6.9,3.5-11.2,9.6-15.7,15.5c-0.7,0.8-1.4,1.4-2.2,2.1c-0.4-1-0.7-2-0.9-3
							c-1-5.8-1.5-11.6-3.1-17.2c-0.7-2.4-3.2-4.6-5.5-5.9c-1.3-0.7-4.8,0-5.5,1.1c-1.6,2.6-2.4,5.6-2.3,8.7
							c0.5,8.8,4.3,16.5,8.4,24.1c-1.8-1.4-3.8-2.7-5.4-3.8c-2.8-2.2-5.6-4.3-8.6-6.2c-2.8-1.6-6.1-2.3-9.3-1.9
							c-0.8,0-1.6,0.1-2.4,0.3c-1.3,0.6-2.7,1-4.1,1.3l-0.3,0.1l0,0c-0.6,0.2-1.2,0.4-1.8,0.6c-0.5,0.3-1,0.6-1.5,0.9l0,0l-0.1,0.1
							l-0.2,0.2c-0.2,0.3-0.5,0.4-0.9,0.5c-1.4,1.1-2.6,2.5-3.5,4.1c-0.1,0.2-0.2,0.4-0.3,0.6c-0.4,0.4-0.8,0.9-1.2,1.4
							c-1.7,2.3-5.3,6-2.1,9.7c4.5,5.1,9.5,9.5,16.9,10.3l8.3,3.6c-2.2,1.1-4,2.7-5.4,4.7c-3,4.2-3.1,10,0.4,13.8
							c-1.1,0.4-2.2,0.9-3.4,1.2c-2.6,0.7-5.2,1.6-7.6,2.7c-4.3,2.2-7.9,5.6-10.5,9.7c-1.2,2-2.2,4.1-2.9,6.3
							c-0.4,0.9-0.8,1.9-1.1,2.9c-1.6,3.8-1.4,7.5,1.6,10.5c0.5,0.4,1,0.6,1.6,0.7c1.4,0.9,2.8,1.8,4.3,2.6l0,0h0.1h0.1l0,0
							l-0.1-0.1c0.1,0.1,0.3,0.1,0.4,0.1c0.3,0.1,0.6,0.2,0.9,0.3c0.3,0.1,0.6,0.3,0.9,0.5c0.5,0.2,1.1,0.4,1.7,0.5l0.3,0.1l0,0
							c2.6,0.2,5.3,0.2,7.9-0.1c3.2-0.5,6.2-1.9,9.3-3c-0.8,1.4-1.5,2.9-2,4.4c-0.1,0.2-0.1,0.5-0.1,0.8c-3.1,4.6-4,10.2-2.7,15.5
							c1.1,4.4-0.6,5.5-3.7,6.6c-7,2.7-12.8,6.9-16.5,13.5c-5.8,10.4-3.3,17,9.1,19.1c4.7,0.8,9.9-1.7,14.9-2.6
							c1.2-0.2,3.2-0.4,3.5,0.2c0.8,1.4,1.1,3,0.9,4.6c-0.2,1.4-1.3,2.7-1.9,4c-1.5,3.1-2.1,5.6-1.8,7.8c-0.1,0.3-0.1,0.5,0,0.8
							c0.5,1.7,1.3,3.2,2.5,4.5c-1.3,1-2.2,2.2-3.5,2.7c-4.6,2-9.8,3.1-14,5.8c-4.8,3-8.9,6.8-12.3,11.3c-5.2,7.5-2,15.4,0.2,23.1
							c0.1,0.1,0.2,0.3,0.3,0.4c0.2,0.5,0.5,0.9,0.8,1.3l0.3,0.4c0.2,0.2,0.4,0.5,0.6,0.7c1,1,2,2,3.2,2.8c0.5,0.4,1.1,0.7,1.6,1.1
							l0,0l1.8,1.1l0.4,0.3l0,0c0.7,0.5,1.4,0.8,2.2,1l0,0l0,0l0,0c0.2,0,0.3,0.1,0.5,0.2c2.9,1.3,6.1,1.7,9.2,1
							c6.9-1.7,13.6-4.4,18.5-9.6c2.4-2.5,5.1-5,7.1-7.8c0.3,0.6,0.7,1.1,1.2,1.5c0.1,0.1,0.3,0.2,0.5,0.3c0.6,0.7,1.3,1.3,2,1.9
							c1.2,0.8,2.3,1.5,3.6,2.1l-3.1-0.2c-0.1,0.3-0.3,0.5-0.5,0.7c-0.2,0.2-0.5,0.4-0.7,0.6l-0.2,0.1l-0.3,0.3
							c-0.4,0.4-0.8,0.9-1.2,1.3v0c-0.5,2.8-2.9,4.7-4.4,7.1c-3.2,4.8-2.7,11.2,1.2,15.4l0.1,0.1c1.1,1.8,2.7,3.3,4.5,4.3
							c0,0.1,0,0.3,0.1,0.4c0,0.3-0.8,0.8-1.5,1.2c-4.1,1.1-8,2-11.7,3.3c-8.1,2.8-15.2,7.3-21.9,12.6c-3.1,2.5-2.5,5.4-0.9,8.3
							c0.2,0.3,0.5,0.6,0.8,0.7c1.7,1.7,3.6,3.2,5.8,4.2c6.2,3.4,13.3,4.7,20.2,3.7c0.1,0,0.1,0,0.2,0c7.3,0.3,13.1-3.4,18.9-6.9
							c4.5-2.7,7.8-6.9,9.4-11.9c0.5,2,1.7,3.8,3.3,5c1,0.8,2.3,1.1,3.5,1c0.5-0.1,0.9-0.2,1.4-0.4c0.1,0.1,0.2,0.3,0.3,0.4
							c0.3,0.4,0.6,0.8,0.8,1.2l-5,1.9c-1.5,0.5-2.9,1.1-4.2,1.9c-1,0.6-1.9,1.4-2.6,2.4v-0.1c-0.3,0.4-0.6,0.8-1,1.2
							s-0.6,0.9-0.9,1.4c-0.2,0.2-0.3,0.4-0.5,0.6c0,0.1,0,0.2-0.1,0.3c-1.4,1.7-2.8,3.3-1.8,5.7c1.1,2.6,2.7,4.8,4.9,6.5
							c4.3,3.5,10.1,4.7,15.4,3.3c0.5-0.1,0.9-0.3,1.3-0.5c0.1,0.2,0.3,0.3,0.5,0.3c2.1,0.1,3.4-0.9,3.8-2.4
							c1.1-0.7,2.2-1.4,3.3-2.1c1.3-0.9,2.7-1.9,3.9-2.9c-1.2,1.2-2.2,2.6-3,4.2c-1.7,3.5-3.5,5.5-6.7,6.4
							c-5.2,0.3-10.3,1.1-15.3,2.4l-2.1,0.2c-2.1,0.9-4.3,1.6-6.5,2.2h0.1c-4.4,1.5-8.7,3.1-13,4.8l-0.3,0.1
							c0.1-0.1,0.1-0.2,0.2-0.4c-1.6,0.3-3,1-4.3,1.9c-0.1,0.1-0.1,0.1-0.2,0.1l-0.2,0.1c-0.3,0.1-0.5,0.1-0.8,0
							c-0.5,0.3-0.9,0.6-1.3,0.9c-0.2,0.2-0.4,0.3-0.7,0.4c-0.1,0.1-0.2,0.1-0.4,0.2h-0.1c-0.1,0-0.2,0-0.3,0
							c-1.7,0.8-3.3,1.7-4.9,2.8c-3.6,2.5-6.5,6.1-6.6,10.7c-0.1,4.2,2.8,7.4,6.5,9.1c8.6,4,17.8-0.4,25.2-4.8
							c9.4-5.7,18-12.7,25.2-21c0.1,0.6,0.5,1.2,1.1,1.5c0.6,0.3,1.3,0.5,2,0.6c-0.2,0.3-0.5,0.5-0.7,0.8c-0.8,1.1-1.8,2.1-2.7,3.1
							l0.5-0.1c-3,3.5-6.1,7-8.8,10.6c-0.5,0.6-0.8,1.4-0.7,2.3c0.1,0.2,0.2,0.5,0.3,0.7c0,0.1,0.1,0.1,0.1,0.2l0,0l0,0
							c0.1,0.2,0.2,0.3,0.3,0.5c0.4,0.7,0.9,1.3,1.4,1.9l0.4,0.5l0.1,0.1l0.1,0.1c0.3,0.3,0.6,0.6,0.9,0.8c0.5,0.5,1.1,0.9,1.7,1.3
							c0.2,0.1,0.3,0.4,0.4,0.6c0.7,0.6,1.5,1.1,2.3,1.7c1.1,0.8,2.4,1.4,3.7,1.8c-6.2,1.6-12.5,3.3-18.5,5.3
							c-8.1,2.7-15.2,8-20.1,15c-2.5,3.5-1.4,12.2,2,14.4c6.5,4.2,14.3,5.7,21.9,4.1c9-1.8,17.7-4.6,25.2-10.3
							c0.7-0.4,1.6-0.4,2.4,0c3.8,4.7,8.5,7.4,14.7,7.3c0.4,0,0.8,0.4,1.3,0.6c-0.3,0.5-0.6,1-1,1.4c-0.8,0.7-1.6,1.2-2.5,1.7
							c-9,4.9-18.9,7.4-26.4,14.3c-3.7,3.4-7.7,6.3-7.4,12.1c0.4,8.3,12.9,16,21.9,13.8c9.3-2.2,14.5-8.7,19.2-16.1
							c0.5-0.8,0.9-1.7,1.3-2.5c0.6,0.8,1.2,1.6,1.8,2.5c1.2,2.1,2.6,4,4.2,5.8c-2.3,0.7-4.6,1.4-6.3,3.1c-0.1,0.1-0.2,0.2-0.2,0.3
							c-0.5,0.2-0.9,0.4-1.3,0.7c-6.5,5-13.6,9.3-19.1,15c-3.3,3.4-6.8,8.2-4.2,14.4c0.8,1.8-0.7,4.6-1.2,6.9
							c-0.2,0.7-0.3,1.5-0.5,2.2c0,0.9-0.1,1.9-0.2,2.8c-0.2,2.1,0,4.4-0.8,6.4c0,0.1,0,0.3-0.1,0.5l0,0c0,0.2-0.1,0.4-0.2,0.6
							c-0.1,0.3-0.4,0.6-0.7,0.7l-0.5,0.8c-1.5-1.2-3.5-1.8-5.4-1.5c-2.2,0.2-4.4,1.5-6.3,1c-2.7-0.7-5.1-2.4-7.5-4.1
							c-0.2-0.2,0.9-2.8,1.8-4c2-2.7,4.5-5.1,6.2-7.9c2.9-4.6,5.3-9.7,3.4-15.1c-1.2-3.4-3.8-6.3-6.1-9.3c-4.8-6.1-10.8-7-17.3-2.7
							c-7.4,4.8-9.8,12.4-11.5,20.4c-0.1,0.4-0.1,0.7,0,1.1c-0.1,0.1-0.1,0.3-0.2,0.4c-0.3,1.4-0.7,2.8-1.1,4.2
							c-2.9-2.5-7.1-3.2-11.5-1.6c-1.9,0.7-4.7,0.9-6.2-0.1c-4.1-2.7-7.5-3-11.2,2.5c-0.4,0.6-0.8,1.2-1.2,1.8
							c-0.6-0.7-1.8-1.5-1.7-2c0.4-1.5,1.1-2.9,2.1-4.2c3.5-4.2,7.8-7.8,10.5-12.4c3-5.2,3.8-11.2,0.7-17.1
							c-4.3-8.1-16-9.3-22.8-6.2c-2.5,1.3-4.4,3.4-5.3,6.1c0,0.2-0.1,0.5-0.2,0.7l0,0l-0.1,0.1c-0.1,0.2-0.3,0.4-0.4,0.5
							c-0.3,0.5-0.5,0.9-0.7,1.4c-0.1,0.3-0.2,0.5-0.4,0.8c-0.5,1.4-1,2.8-1.2,4.3c0,0.1,0,0.3,0,0.4c-4.3-2.8-9.9-1.7-14.7,3.8
							c-0.4,0.4-2.8,0-3.2-0.7c-2.5-3.8-6.3-4-9.6-2.5c-1.7,0.8-2.5,3.8-3.5,6l-1.2,1.5c-1.9-1.8-3.8-3.6-5.6-5.4
							c-1.4-1.4-1.5-2.3,1-3.6c8.1-4.1,13.6-11.9,14.6-20.9c0.9-7-2.3-14.6-8.6-17.1c-12.3-4.8-21.8,2.1-21.2,15.3
							c0.1,2.7-0.9,2.4-2.5,1.5c-6.1-3.2-13.2-1.5-15.5,4.8c-1.6,4.4-2.5,2.2-4.9,1.2c-2-0.9-5.7-1.3-6.9-0.2
							c-1.5,1.5-2.4,3.1-4.4,2.7c-0.8-1-1.8-1.8-2.8-2.5c3.4-5.5,6.7-11,10.2-16.4c4.5-7.7,2.9-17.6-3.9-23.4
							c-8.5-6.9-17.9-4.4-21.3,5.9c-1.1,3.4-1.4,7-2.3,10.4c-0.2,0.8-1.4,2.1-2.1,2c-7.3-0.9-13.3,1.6-18.7,6.5
							c-1.2,1.1-4.2,2-5.1,1.4c-4.1-3.3-7.3-0.5-10.7,0.8c-0.2,0-0.5,0-0.7,0.1c-1.8,0.5-3.4,1.7-4.4,3.3c-0.3-0.3-0.7-0.6-1-0.9
							c-0.4,0.1-0.9,0-1.3-0.3c-0.2-0.2-0.3-0.4-0.4-0.6c-0.4-0.1-0.8-0.2-1.2-0.3c0.9-0.9,1.8-1.9,2.6-2.9c0,0,0-0.1,0-0.1
							c0.2-0.3,0.5-0.6,0.7-0.9s0.4-0.7,0.5-1s0.2-0.4,0.3-0.7V399V399c0.2-0.8,0.4-1.5,0.8-2.3l0,0c0.2-0.4,0.4-0.7,0.7-1
							c2.8-5.8,3.8-12.2,4.2-18.9c0.6-6-1.3-10.4-5.2-14.6c-4.2-4.6-8.8-6-14.5-4.8c-4.7,1-7,4.6-8.5,8.8c-0.1,0.2-0.1,0.5-0.2,0.7
							l-0.2,0.3c-0.2,0.4-0.4,0.8-0.5,1.3c0,0.1,0,0.3,0,0.4c0,0.9-0.2,1.9-0.6,2.8l-0.3,1l0,0c-0.2,0.6-0.4,1.1-0.5,1.7
							c-0.3,0.8-0.5,1.7-0.7,2.5c-1,3.8-0.2,7.8,0.3,11.6c0,0.2,0,0.5-0.1,0.7c0,0.1,0,0.2,0.1,0.3c0,0.3,0,0.6,0,0.9
							c0,0.3-0.1,0.5-0.2,0.8c0.1,0.8,0.2,1.6,0.4,2.4c-0.6-0.1-1.2-0.2-1.9-0.3c-1.1-0.1-2.1-0.2-3.2-0.1c-3.6,0.4-7.3,1.3-9.6,4.2
							c-0.3,0.4-0.6,0.8-0.9,1.2c0,0,0,0.1,0,0.1l-0.1,0.1c-0.8,1.2-1.6,2.5-2.4,3.8c-0.7,1-1.4,1.9-2.1,2.8s-1.1,2-1.8,2.9
							c-0.1,0.1-0.2,0.2-0.3,0.2l0,0c-0.3,0.2-0.6,0.3-1,0.2c-2.2,0.4-3.2-2.4-4.6-4.3c-3-4.2-14-6-17.9-2.7
							c-1.5,1.3-3.1,4.4-2.6,5.9c1.2,3.4,3.1,7.2,6,9c2.6,1.7,3.1,2.4,1.6,4.7c-3,4.5-2.5,5.6,3,6c2.3,0.1,3,0.1,1.5,2.5
							c-1.2,1.9-2.1,4-2.6,6.2c-1.7,7.8,2.9,14.2,8.9,12.5c3.7-1,8.9-7.9,9.2-11.8c0.2-2.5,0.6-5.1,1.2-7.5c0.6-0.8,1.5-1.2,2.4-1.2
							c1,0.2,1.8,1.3,2.6,2c6,4.9,12.7,5.3,17.6,2.1c0.2,1.6,0.7,3.1,1.5,4.5c0,5.8,1.2,11.4,4.6,16.2c2.7,3.7,8.8,5.4,12.7,3.9
							c4.5-1.7,12-12.6,12.2-17.7c0.2-6.9,1.9-13.9,0-20.8c-0.2-0.6,1.4-2.4,2.4-2.6c3.3-0.7,2.4,2.2,3.2,3.9
							c2,4.3,4.6,8.3,6.5,12.6c3,6.5,8.3,4.6,13.3,4.1c2.4-0.2,2.1,0.2,2.2,2.5c0.2,7.1,0.2,14.6,2.3,21.2c2,6.3,12.9,10.1,18.3,3.4
							c6.6-8.2,10.2-17.3,8.8-27.9c-0.3-2.3-0.1-3.2,2.6-3.6c4.9-0.7,4.4,2.7,4.3,5.3c-0.2,9,2.8,13.2,11.1,14.9
							c1.7,0.3,3.4-0.1,2.5,2.9c-2.1,7-1,14.1,0.9,21c2.1,7.7,7.3,11.1,13.5,8.4c5.5-2.6,10.3-6.5,13.8-11.5
							c4-5.9,4.3-13.4,3.5-20.6c-0.4-3.8-0.5-5.9,4.2-3.7c2.1,1,4,0.6,3.1,4.6c-2.2,10.1,7.6,17.8,17.1,14.2
							c0.9-0.2,1.8-0.2,2.7-0.1c0,0.6,0.2,1.4,0,1.9c-4,6.6-3.2,13.6-1.3,20.5c2,7.1,7.6,9.5,14.2,6.5c8.9-4.1,14.2-15.8,11.8-26.4
							c-0.4-1.6-0.9-3.2-1.3-4.9c1.4,0.9,2.8,1.5,4.4,2.1c2.8,0.7,3.8,1.5,3.5,4.9c-0.4,5.2,0.7,10.7,6.7,12.5
							c2.7,0.8,5.8-0.1,8.8-0.2c0.9,0,1.8,0,2.7-0.1c0,0.8,0.2,1.7-0.2,2.2c-4.8,6.8-3.2,14.4-1.9,21.6c1.2,6.9,6.9,10.1,12.7,7.4
							c3.6-1.6,6.7-4.3,8.7-7.8c3.3-6.3,6.7-13,5-20.8c-0.1-0.6,1-2,1.8-2.2c4.2-1,2.8,2.2,2.7,4c-0.4,6.2,1.3,9,7,11.4
							c0.7,0.3,1.3,2.6,0.8,3.3c-5.9,8.7-6.1,18.2-4.3,27.9c1.4,8,8.5,10.9,16,8.5c10.6-3.3,17.3-20.1,15.9-30.3
							c-0.2-1.9,0.7-3.9,1.1-5.9c0.9,1.7,1.6,3.5,2.1,5.3c0.9,4.3,2.5,7.8,7.3,8.9c0.5,0.1,0.9,2.5,0.5,3.5
							c-0.7,1.8-2.5,3.3-3.1,5.1c-2.3,6.6-4.2,13.2-5.8,20c-0.8,4.2-0.8,8.6-0.2,12.8c0.3,2.4,1.9,5.8,3.8,6.5
							c7.1,2.7,12.4,2.6,17.4-4.2c0.5-0.6,1-1.2,1.6-1.6c5.6-4.3,9.3-10.7,10.1-17.8c0.4-1,1.2-1.7,2.2-1.9c2.2,0.1,3.9,2,3.8,4.2
							c-0.1,1-0.5,1.9-1.2,2.6c-7.8,9.4-13.3,19.9-15.4,32c-1.4,8,1.7,12.4,9.7,13.4c1.4,0.1,2.6,0.8,3.5,1.8
							c4,5.9,9.9,7.7,15.6,4.7c0,0.1,0.1,0.1,0.1,0.2c1.4,1.2,2.8,2.2,4.4,3.2l0.8,0.5c1.4,0.6,3,1.1,4.3,1.8c1.2,0.5,2.2,1.3,3,2.3
							c2.2,1.6,4.3,3.1,6.5,4.7c2.7,1.8,5.2,4.3,8.2,5.1c11.4,3.1,18.8,11.8,27.2,18.9c9.9,8.3,18.6,18.1,27.8,27.2
							c4.6,4.6,9.7,8.8,13.8,13.8c9.5,11.6,18.6,23.5,27.8,35.7c3.8,5.9,7.8,11.2,11.2,17c2.2,3.6,3.5,7.7,5.3,11.5
							c2.9,4.1,6.6,7.8,9,12.2s4.6,8.7,6.7,13.1c2.6,3.2,5.2,6.3,6.9,10.2c3,7,7.5,13.4,11,20.3c2.5,4.9,3.7,10.5,6.7,15
							c5.4,8.2,11.6,16,17.7,23.7l1,1.3c0.1,0,0.2,0.1,0.3,0.1c3.2,2.6,5.7,5.9,8.6,8.7c1.5,1.5,3,3,4.4,4.6
							c1.8,1.4,3.7,2.7,5.7,3.8c5.2,3.1,9.2,8.3,13.5,12.8v0.1l0.4,0.4l0.9,0.9c1,1,2,2,3,3l-0.1-0.2c7.8,7.2,16.5,13.3,25.9,18.2
							c5.6,2.9,11.3,5.4,17.2,7.5c4.1,1.5,8.8,3.5,12.9,1.3c3.4-0.1,6.7-0.5,10-1.1c3.8-0.8,7.5-2.3,11.2-3.2
							c0.1-0.2,0.3-0.4,0.5-0.5l0.5-0.3l0,0l0.2-0.1c1-0.5,2-1.1,3-1.6l0.6-0.3c3-1.5,6-3,8.9-4.7l0,0l0.4-0.2l0,0
							c0.6-0.4,1.2-0.7,1.9-1.1c1.6-1,3.2-2.2,4.8-3.3l0.1-0.1l0,0l0.4-0.3c2.2-1.7,4.4-3.5,6.7-5.3l0,0c0.8-0.7,1.7-1.3,2.6-1.9
							c0.3-0.2,0.7-0.3,1.1-0.2c1.1-0.8,2.1-1.7,3.2-2.5c0.1,0,0.2,0,0.2,0c2.9-1.8,5.7-3.7,8.4-5.8c2.6-2.2,4.5-5.2,7.1-7.5
							s5.2-4.6,7.7-7.1s5.2-5.2,7.6-7.9s4.7-5.6,7-8.3c2.3-2.5,4.6-5.1,6.6-7.8c1.7-2.5,3.6-5,5.6-7.3c1.9-2.8,3.5-5.8,4.9-8.9
							c0.1-0.3,0.2-0.6,0.3-0.9s0.2-0.5,0.3-0.7c0.1-0.3,0.4-0.6,0.7-0.7c0.4-0.7,0.9-1.4,1.3-2.2c3.2-5.3,6.1-11,6.9-17.2
							c0.9-6.9,0.2-14.3-0.4-21.2c-0.4-6.2-1.5-12.3-3.4-18.2c-0.6-2.7-1.4-5.3-2.3-7.9c-2.4-6.6-5.7-12.9-9.8-18.6
							c0-0.3,0-0.6-0.2-0.8l-1.6-2.5c-2-2-3.8-4.1-5.5-6.4c-2.7-3.5-5.7-6.6-9.1-9.4c-0.2-0.2-0.4-0.4-0.4-0.7
							c-4.1-3.2-8.2-6.4-12.3-9.6c-0.3-0.2-0.6-0.4-0.9-0.5c-1.6-1.2-3.2-2.5-4.7-3.7c-0.3-0.1-0.6-0.3-0.8-0.5
							c-0.7-0.5-1.3-1-2-1.5c-0.6-0.3-1.1-0.6-1.7-1l-0.2-0.1c-0.2-0.2-0.4-0.4-0.5-0.7c-1.5-1.1-3-2.2-4.4-3.4l-0.2-0.2
							c-0.7-0.4-1.4-1-2.1-1.5c-0.6-0.5-1.2-1-1.7-1.5c-1.6-1.4-3.4-2.8-5.2-4c-2-1.4-4-2.7-6.1-4h-0.1l-2-1.3l-0.8-0.5l0,0l-1.6-1
							c-1.3-0.8-2.6-1.6-3.9-2.4l0,0l-0.4-0.2h-0.1l-1.4-0.8l0,0c-1.7-1-3.4-2-5.2-2.9s-3.4-2.1-5.1-3.2l0,0l-0.1-0.1
							c-1.3-0.8-2.6-1.4-3.8-2.3c-0.3-0.2-0.6-0.4-0.9-0.7c0,0-0.1-0.1-0.1-0.1c-6.9-3.9-14-7.2-21.4-9.9
							c-13.3-5.1-26.4-10.7-39.7-15.9c-2.7-1-5.5-1.7-8.3-2.2c-3.1-1.7-6.4-3-9.8-3.7c-4.8-1.2-9.6-2.3-14.3-3.9
							c-1.7-0.5-3.3-1.1-4.9-1.8c-0.2-0.2-0.3-0.3-0.5-0.5c-1-0.4-2.1-0.8-3.1-1.3c-0.4-0.1-0.8-0.1-1.1-0.2l-1.8-0.6
							c-1.4-0.6-2.9-1.3-4.3-1.9c-0.2,0-0.5-0.1-0.8-0.2c-1.5-0.5-2.9-1-4.3-1.7c-1.8-0.8-3.6-1.5-5.4-2.3l0,0
							c-1.3-0.5-2.5-1.2-3.7-1.8c-0.9-0.2-1.8-0.4-2.6-0.8c-10.5-5.2-21.1-10.2-31.5-15.7c-5.3-2.8-9.8-7.6-15.3-9.5
							c-11.9-4-20.3-12.9-30-19.8c-3.8-2.7-6.7-6.5-10.4-9.4c-7.7-6.1-15.6-11.9-23.4-17.8c-3-2.3-5.8-4.7-8.7-7
							c-0.9-0.8-2-1.5-3.1-2c-3.2-1-5-2.9-4.9-6.5c0.3-3.8-1.6-7.5-4.8-9.6c-0.9-0.6-1.7-3.1-1.2-4c4.6-9,2.3-16.3-6.6-20.6
							c-1.9-0.9-3.7-2.1-5.5-3.2c1.6-1.3,3.2-2.6,4.7-3.9c0.6-0.5,1-1.2,1.6-1.7c5.2-3.7,5.9-6,3.2-10.2c-3.1-5-8.5-7-12.6-4.4
							c-6.3,3.9-12.4,8.2-18.7,12.1c-1.2,0.5-2.5,0.4-3.6-0.2c-1.5-1.2-2.6-3-4-4.2c3.7-0.6,7.2-1.8,10.5-3.6c3.7-2.3,7.2-5,10.3-8
							c1.9-1.8,3.6-3.8,5-6c0.1,0,0.2,0,0.2-0.1c0-0.1,0.1-0.2,0.2-0.3c2-3,2.6-6.7,1.6-10.1c0-0.1,0-0.1,0-0.2
							c-0.1-0.4-0.2-0.9-0.4-1.3l0,0c-0.2-0.6-0.4-1.2-0.7-1.7v-0.1l0,0c-0.6-1.3-1.3-2.5-2.2-3.6l0,0l0,0l0,0
							c-0.3-0.4-0.7-0.8-1-1.2c-0.2-0.2-0.5-0.3-0.8-0.4c0,0-0.1-0.1-0.1-0.1c-3.2-2-7.2-0.9-10.4,0.5c-4,1.7-7.2,4.4-10.3,7.3
							c-3.1,2.8-6.4,5.3-10,7.4c-3.8-4.2-10.9-6.7-16.3-5.6c-0.5,0.1-1.1,0.2-1.6,0.1c0.6-1.2,1.1-2.4,1.4-3.7
							c1.7-0.1,3.3-0.2,5-0.3c0.3-0.2,0.6-0.3,0.9-0.4c0.5-0.2,0.9-0.4,1.4-0.6h0.1c3.6-1.3,7.5-1.5,11.3-2.1l1.1-0.4
							c2.6-0.8,5-2,7.2-3.7c0,0,0.1,0,0.1,0l0.3-0.2l0.3-0.3c3.2-3,7-5.8,8.8-9.6c2.5-5.1-3.6-18-8.7-21.2c-2.9-1.8-6.3-2.5-9.6-2
							c-0.3-0.3-0.7-0.4-1.2-0.4c-2.3,0.4-4.5,1-6.7,1.8c-1,0.4-2,0.8-3,1.3c-0.7,0.3-1.4,0.7-2,1.2c-2.5-3.2-6.6-4.1-11.2-3
							c-1.6,0.4-4.5,0.2-5-0.7c-2.4-4.7-5.2-2.8-8.3-1.2c-0.6,0.3-1.2,0.5-1.8,0.7c-0.2-0.6-0.7-1.5-0.4-1.7c1-1,1.5-2.4,1.5-3.8
							c0.3,0.1,0.6,0.1,0.9,0c4.3-1.2,8.4-2.9,12.4-5c0.3,0,0.7-0.1,1-0.3c6.1-2.9,12.6-5.5,18.1-9.3c3.3-2.4,5.7-6.7,7.3-10.6
							c2-4.7-5.4-10.5-10.9-7.9c-4,2-7.8,4.5-11.2,7.3c-0.3-0.1-0.5,0-0.8,0.1l-4.8,2.1c-1.2,0.4-2.4,1-3.5,1.6
							c-1.5-3.9-4.4-7.1-8.2-9c-2.1-1.2-4.3-2.2-6.6-2.9c-2.4-0.7-5-0.2-7.3,0.3c-1.6,0.3-3.1,0.9-4.5,1.7l-3.2-6.1
							c1.3,0.5,2.7,0.6,4,0.2l0.1-0.1c0.7-0.5,1.4-0.9,2.3-1.1l0,0c0.6-0.2,1.2-0.3,1.8-0.4l0.9-0.2l0,0c0.2,0,0.4-0.1,0.6-0.2
							c2.5-0.9,5-2,7.3-3.4c1.6-0.9,3.2-1.8,4.7-2.8c1.3-1,2.5-2,3.8-3l3.5-2.9c0.2-0.2,0.4-0.5,0.7-0.7l0.1-0.1
							c3.8-4.3,7.9-8.3,11.8-12.5c1.8-1.7,3.4-3.7,4.7-5.8c0-0.1,0.1-0.2,0.1-0.3c0.2-1.4-0.2-2.9-1-4.1c-2.1-3.1-5.8-3.1-9-2.1
							c-1,0.3-2,0.6-2.9,1c-2.2,0.5-4.3,1.2-6.4,2c-6.9,2.8-13.3,6.7-19,11.5c-0.3-0.4-0.6-0.9-1-1.3c-0.2-0.7-0.4-1.3-0.6-1.9
							c-0.3-0.7-1.1-1.1-1.8-0.9c-1.2-1.2-2.6-2.3-4.2-3c-3.3-1.6-7-2.4-10.7-2.3c0.2-1.3,0.1-2.7-0.3-4c0-0.1-0.1-0.2-0.1-0.3
							c0.5,0.3,1.1,0.4,1.7,0.4c9.5-1,19-2,28.8-3c1.1,0,2.1-0.2,3.2-0.4c5.7-1.6,10.4-4.5,12.4-10.4c0.7-2,0.6-4.3-0.5-6.2
							c-0.2-0.1-0.4-0.2-0.5-0.4c-0.3-0.4-0.6-0.8-0.9-1.2l-0.3-0.4c-0.2-0.3-0.3-0.5-0.5-0.8c-1.2-2-2.3-4-4.1-5.6l-0.7-0.6
							c-0.8-0.6-1.5-1.2-2.3-1.8l0,0H358l-2.5-1.8l0,0l-1.2-0.9c-0.8-0.2-1.7-0.3-2.6-0.2c-9-0.1-16.1,3.5-21.5,10.7
							c-0.9,1.2-2.8,1.8-3.9,2.9s-2.4,2.2-3.7,3.3c0.3-0.4,0.7-0.8,1-1.1c2-2.7,3.5-6.2,1.4-9.3c-1.6-2.3-4-4-6.7-4.7
							c-2-0.9-4.1-1.6-6.3-2c-0.9-0.1-1.9-0.1-2.8-0.1c-0.2,0-0.3,0-0.5,0c-1.1,0.1-2.2,0.2-3.2,0.4c-0.2,0-0.3,0.1-0.4,0.2
							c-0.3-0.5-0.7-1-1-1.4c0.5-0.4,1-0.9,1.3-1.5c0.3-0.6,0.3-1.3,0.1-2c-0.3-0.6-0.7-1.1-1.1-1.6c-0.6-0.7-1.2-1.3-1.9-2
							c6.8,4.5,14.4,5.4,22.5,2.8c8.9-2.9,14.8-8.9,12.8-19.2c-0.9-5.1-3.2-9.8-6.7-13.6c-6.8-7.8-14-8.4-22.6-3.8
							c-1.1,0.6-2.4,0.6-3.6,0.1c-2.9-2-5.7-4.2-8.3-6.7l-0.2,0c-0.2-0.1-0.5-0.2-0.8-0.2c-0.5-0.2-1-0.4-1.5-0.6c0.4,0,0,0-0.1,0
							l-0.4-0.1l-0.9-0.2c-0.5-0.1-0.9-0.4-1.1-0.9c-0.4,0.5-0.9,0.8-1.5,0.9h-0.5c1-1,1.6-2.3,1.8-3.7c0.2-2.1-0.3-4.3-1.3-6.1
							c-0.6-1.3-1.4-2.6-2.1-3.9c0.4,0.2,0.8,0.4,1.2,0.6c8.9,3.5,17.2,1.6,25.5-2.8c12.8-6.7,14.6-21,7.2-29.6c0,0,0-0.1,0-0.1
							c-0.7-1-1.5-2-2.3-3c-0.9-0.8-1.8-1.6-2.8-2.4c-0.6-0.4-1.2-0.8-1.8-1.2c-0.7-0.4-1.4-0.7-2.1-1l0,0
							c-3.7-2.6-7.8-2.2-11.7-0.4c-8.9,4.2-15.3,11.5-21.6,18.9c-1,1.1-1.9,2.4-2.8,3.5c-0.1-0.1-0.2-0.3-0.2-0.5
							c0-0.2-0.1-0.5-0.2-0.7c-0.3-0.5-0.6-1-0.9-1.5c-0.2-0.3-0.3-0.6-0.5-0.9c-0.3-0.5-0.7-0.9-1.1-1.4c-0.6-0.9-1.4-1.7-2.1-2.4
							c3.7-0.6,6.9-2.5,10.1-4.3c6.6-3.7,7.9-10.1,3.5-15.3c-1.6-1.7-3.3-3.1-5.2-4.4c1.2-1.2,2.1-2.6,2.5-4.2
							c0.2-1,0.1-2.1-0.3-3.1c0.3-1.2,0.1-2.4-0.5-3.4c-1.2-1.5-2.6-2.9-4.1-4.2l0,0c-0.7-1.3-1.5-2.4-2.6-3.4
							c-1-0.8-2.1-1.2-3.4-1.2c-0.8,0.1-1.7,0.1-2.5,0c0.3-2.1,0.3-4.3,0-6.4c1.2,0.7,2.4,1.2,3.7,1.7c1.3,0.5,2.6,1,3.9,1.5
							c1,0.6,1.9,1.1,3,1.7c9.7,3.6,18.8,6.5,29.1,2.6c10.6-4,18.6-15.2,13.5-27.3c0-0.2,0.1-0.3,0.1-0.5c-0.2-4.6-4-7.7-7.5-10.2
							c-0.3-0.2-0.8-0.4-1.2-0.3c-5.1-3.6-12.1-3.4-17.9,0.5c-3.1,1.9-5.9,3.8-8.5,5.8l0,0l0,0c0,0-0.1,0.1-0.1,0.1
							c-0.2,0.2-0.5,0.3-0.8,0.5c-0.4,0.2-0.9,0.4-1.4,0.4h-0.2c-0.7,0.5-1.4,1.1-2.1,1.7c0.1-1,0.1-2-0.1-3
							c-0.8-6.8-5.3-14.8-11.5-18.5c-0.2-0.3-0.4-0.5-0.7-0.7l-0.1-0.1c0.8-0.5,1.4-1.2,1.9-2c0.7-1,1.1-2.1,1.2-3.4
							c0-0.4,0-0.8-0.1-1.1c0.9,1.5,1.9,2.9,2.8,4.4c0.5,0.5,1,0.9,1.5,1.4l0,0c0.3,0.3,0.7,0.6,1,1c0.5,0.4,1,0.9,1.5,1.2
							c0.5,0.3,1,0.4,1.5,0.6c0.4,0.1,0.9,0.3,1.2,0.5c0.7,0.4,1.5,0.8,2.3,1.1c0.5,0.1,1,0.2,1.5,0.5l0,0c1.9,0.5,3.9,0.6,5.9,0.4
							c8.7-1.5,16.3-5.6,23.1-11.4c6.4-5.4,6.8-18.1,0.4-23.8c-4.9-4.4-10.4-6.4-17-5.3c-0.9,0.2-1.8,0.1-2.6-0.3
							c0.1-0.4,0-0.9-0.2-1.2c-0.5-0.8-1-1.7-1.4-2.5c0-0.1,0-0.2-0.1-0.2s0,0,0,0.1c-0.3-0.6-0.6-1.3-0.8-1.9
							c-0.5-1.4-0.6-3.2-1.4-4.4c-1.7-2.6-5.2-1.8-7.8-1.5c-4.9,0.4-9.8,0.9-14.7,1.4l0,0c0.8-1.7,2.6-2.5,4.3-2.9
							c1.9-0.5,4-0.8,5.9-1.2c3-0.7,6-1.4,9-2.3c0.6-0.5,1.2-0.9,1.9-1.2l0,0c0.4-0.2,0.9-0.3,1.3-0.4l0.6-0.1
							c0.4-0.1,0.8-0.2,1.2-0.2h0.5c0.8-0.2,1.5-0.4,2.3-0.6c0.7-0.3,1.4-0.6,2.2-0.9c0.2-0.1,0.5-0.1,0.7-0.1
							c1.2-0.5,2.4-1,3.6-1.6c5-2.9,9.9-7.6,12.3-12.7c2.4-5.3,0.6-11.9-3.5-16.8c-1.9-2.4-4.7-4-7.8-4.4 M12.3,422.3l3.2,0.7
							c-1,0.7-2.1,1.2-3.3,1.5L12.3,422.3 M20.2,444.3c-2.6,1.6-4.6,1.6-5.5-2.1c-1.3-5.3,3.6-16.5,6.7-18.7c1.2-0.9,3.3-0.7,5-1
							C29,428.9,25,441.4,20.2,444.3 M11.6,416.6c-4.5-2.6-7.6-8.6-5-11.7c0.2-0.2,0.6-0.2,0.8-0.3c5-1.9,9-1.8,12.6,1.5
							c3.2,3,8.1,4.7,8,10.2c0,0.6-0.8,1.9-1.2,1.8C21.9,417.6,16.7,419.5,11.6,416.6 M43.2,431c-5.3-1-12.4-9.8-12-14.3
							c0.1-2.6-0.1-5.1-0.7-7.6c1.6-1.5,3-3.2,4.1-5.1c0.3-0.5,0.6-0.9,0.9-1.4c0-0.1,0.1-0.2,0.1-0.3c0.8-1.7,2.3-3.2,4-4
							c0-0.1,0-0.2,0-0.2c6.2-2.6,10.1-2,14.1,2.1c0.7,0.7,1.2,1.5,1.4,2.5c0.3,0.6,0.5,1.2,0.6,1.8c0.3,1,0.4,2,0.6,2.9
							c0.1,0.6,0.3,1.2,0.3,1.8c0,0.3,0,0.5,0.1,0.8l0,0c0.5,0.7,0.7,1.6,0.5,2.5c-0.4,3.2-1,6.5-1.7,9.7
							C54.6,427.2,47.9,431.8,43.2,431 M61.4,405.1c0.5,0.3,0.7,1.2,1,1.9c-0.7,0.7-1.8,1-2.1,0.6c-0.6-0.9-1.1-1.9-1.4-3
							C59.7,404.7,60.6,404.8,61.4,405.1 M76.8,412.8c3.4,3.9,5.1,9,4.7,14.1c-0.4,7.6-0.1,15.3-5.2,22.1s-12.5,5.9-15.7-2.1
							c-1.4-3.5-1.7-7.5-2.7-11.2c-0.2-0.5-0.4-0.9-0.7-1.3l0,0l0,0l0,0c0,0-0.1-0.2-0.2-0.4c-0.2-0.4-0.3-0.8-0.5-1.3v-0.1
							c0,0,0,0,0-0.1l-0.1-0.3c0-0.2-0.1-0.5-0.1-0.7s0-0.5,0-0.7c0,0,0-0.5,0-0.2c0-0.1,0-0.2,0-0.3c0-0.4,0.1-0.9,0.2-1.3
							c1.7-2.2,2.9-4.7,3.4-7.4c0.4-1.9,0.2-4.1,1.1-5.7c1.7-2.7,3.7-6.2,6.3-7c3.3-1.1,6.8,0.8,9.5,3.9 M67.8,404
							c-2.6-0.5-5.5-1.5-6.6-3.2c-1.7-2.9-4.4-5.1-7.6-6.3c0-0.1,0-0.3,0-0.5c-0.2-1.2-0.5-2.5-0.6-3.8c0,0,0-0.1,0-0.1
							c-0.2-0.5-0.3-1.1-0.4-1.6c0-0.2-0.1-0.4-0.1-0.6c0-0.4-0.1-0.7-0.1-1.1s0-0.5,0-0.8s0-0.5,0-0.8s0-0.7,0-1s0.1-1,0.2-1.5
							c-0.1-1.2-0.2-2.4-0.2-3.6c0.1-0.8,0.2-1.5,0.5-2.3c0.6-1.2,1-2.4,1.5-3.7c0.2-1.4,0.5-2.8,1-4.1c1.3-2.7,3.4-5.1,5.2-7.5
							c3.5-2,7.4-1.3,11.8,1.4c6.4,4,6.9,16,5.2,21.9c-0.4,1.5-1,3-1.5,4.5c0,0.3,0,0.5-0.1,0.8c-0.5,1.9-1.1,3.7-1.8,5.5
							c-0.4,1.2-0.9,2.3-1.5,3.4c-0.3,0.6-0.6,1.1-1,1.6c-0.2,0.2-0.4,0.4-0.7,0.5c-0.9,1-1.9,2-2.9,3 M263.8,8.7
							c0.1-1.5,0.9-3.4,2-4.1c1.5-0.9,3.3-0.8,4.2,1.8c1,3.1,3.3,5.9,3.8,9c0.8,5.3,1.1,10.6,1,16c0,1.2,1.2,6.3-3.6,3.3
							C268.3,25.6,263.1,18,263.8,8.7 M288.8,336.6c-6.7,4.6-15.2,10.5-23.8,9.5c-3.8-0.5-8.5-2.5-8.8-6.8s3.3-7.6,6.7-9.6
							c3.9-2.3,8.2-3.8,12.4-5.5c3.9-1.5,7.8-2.9,11.7-4.2c7.2-2.6,14.8-4.2,22.5-4.7c0.9,0.5,0.5,1.5-0.8,3.6
							C302.8,325.6,296.1,331.6,288.8,336.6 M322.1,376.1c-1.8,2-3.9,3.7-6.2,5.1c-8.4,5-17.8,6-27.2,6.2c-2.7,0-5.3-1.6-8-2.4
							c-4.3-1.4-4.4-4.3-4.9-7.1c-0.8-4.5,0.7-7.8,4.1-10.6c10.5-8.8,23.5-11.2,36.2-14c0.9-0.2,1.8-0.4,2.6-0.7
							c6-2.3,9.1-0.2,8.3,6.2C326.3,364.7,326.6,371.2,322.1,376.1 M324.9,453.6c-0.3-3.4-1-8.3,0.9-10.2c6.6-6.5,13-13.5,21.9-17.2
							c0.5-0.2,0.8-0.6,1.1-1.1c1.6-1.3,4.2-1.7,6-2.3c0.4-0.1,0.8-0.3,1.3-0.4c0.7,0.1,1.3,0.2,2,0.2c1.7,0.1,3.4,0.4,5,0.9
							c0.2,1.1,0.2,2.2,0.2,3.3c-0.2,2-1,3.8,0.4,5.4c-1.9,11-11.8,19.6-21,22.5c-4.1,1.3-8.8,0.9-12.8,2.3S325.1,455.9,324.9,453.6
							 M318.8,477.6c0,0,0.1-0.1,0.1-0.1l1.5-2.2c0.1-0.7,0.2-1.4,0.2-2.1c0-0.6,0.1-1.3,0.3-1.9c0.1-0.6,0.3-1.3,0.6-1.9
							c0.7-2.6,1.2-5.3,2.2-7.9c0.3-1,2.2-2.3,3-2c7.1,2.1,13.6,0.8,19.7-2l0.1,6.2c0.2,0.7,0.4,1.5,0.5,2.2c0,0.1,0,0.2,0,0.3h0.1
							v0.6c0,0.2,0,0.4,0,0.5c0,2.1-0.1,4.3-0.4,6.4c-0.4,2.2-1.3,5.1-3,6.3c-3.9,2.6-8.1,4.9-12.5,6.7c-9.9,4.5-10.6,4-11.8-6.8
							C319.2,479.1,319.1,478.3,318.8,477.6 M414.4,519.1c-0.6,0.9-1.9,2.2-1.7,2.7c2.1,5.1,3.8,10.5,7,14.9
							c2.5,3.5,1.1,5.4-0.7,8.1c-2,3-4.4,2.7-6.7,1c-3.8-2.8-7.5-5.7-10.9-8.9c-0.9-0.8-0.8-2.8-1.1-4.2c1.1,0,2.2-0.1,3.4-0.1
							c0.5,0,0.9,0,1.4,0c1.1-0.2,2.1-0.4,3.2-0.7c-1-0.5-1.9-1.1-2.9-1.6c-1.4-0.6-2.8-1.1-4.2-1.6c1-2.8,2.3-5.4,3.9-7.8
							c4-5.2,9.5-5.7,15-2.4c2.5,1.5,5.6,1.7,8.5,2.5c1.1,0.3,2.8,0.5,3.2,1.2s-0.3,2.3-0.9,3.3c-1.8,3.3-3.8,6.6-5.8,9.9
							c-0.5,0.5-1,0.9-1.7,1.2c-0.4-0.6-0.8-1.2-1.1-1.9c-2-4.7-3.8-9.4-5.8-14C416,520.1,415,519.6,414.4,519.1 M402.2,504.1
							c-3.1,5.2-6.4,10.2-9.7,15.2c-1.8,2.2-3,3.7-4.2,5.2c-0.6,0.8-1.3,1.5-2,2.3c-0.6-0.8-1.5-1.4-1.8-2.2c-0.8-3-1.2-5.1,2.2-7.8
							c4.9-3.9,8.2-9.7,12.4-14.6c0.7-0.8,2-1.1,3-1.6C402.2,501.7,402.7,503.2,402.2,504.1 M397,499.9
							c-4.9,5.6-10.2,10.9-15.5,16.1c-1.9,1.8-4.7,2.7-6.6,4.5c-1.3,1.3-1.9,3.4-2.8,5.1c1.3-0.4,2.6-0.8,3.9-1.3
							c1.3-0.7,2.6-1.5,3.8-2.3c0.4,1.5,0.8,2.9,1.2,4.4c0.2,0.8-0.1,2,0.3,2.3c1.2,1,3.2,2.7,4,2.3c9.4-4.6,14.4-12.8,17.8-22.4
							c0.5-1.5,2.3-2.6,3.5-3.8c1.1,1.3,3,2.5,3,3.8c0,1.9-0.6,3.8-1.9,5.3c-2.6,3.3-6.1,5.9-8.4,9.3c-1.4,2-3.5,4.4-1.7,7.8
							c1.1,2.1-1,3.3-3.3,2.6c-5.6-1.9-9.8-0.2-13.4,4.3c-2.5,3.1-5.2,2.8-6.9-0.9s-2.5-7.7-4.1-11.4c-1.4-3.4-3.6-6.7,2.9-6.5
							c0.3,0,0.6-0.7,0.9-1.1c3-4.2,6.4-8.2,8.8-12.7c1.6-2.9,2-6.5,2.7-9.8c0.2-0.8-0.5-1.8-0.7-2.8c-0.8,0.7-1.4,1.4-2,2.3
							c-2.1,4.8-4,9.6-6.1,14.4c-2.1,5.1-4.4,6.2-9.9,5.5c-0.5,0.2-1,0.2-1.4-0.1c-0.5,0-1,0-1.5,0c-0.2-0.8-0.4-1.5-0.6-2.3
							c-0.1-0.3-0.2-0.6-0.2-0.9l-0.1-0.2c0-0.1,0-0.3-0.1-0.4s0-0.3,0-0.5c-0.1-0.4-0.1-0.9-0.1-1.3c0-0.1,0-0.2,0-0.4
							c0-0.4,0.1-0.9,0.2-1.3c0.1-0.5,0.3-1,0.5-1.5l0.2-0.5c0.1-0.3,0.3-0.6,0.4-0.8s0.2-0.4,0.3-0.6c0.5-0.9,1.2-1.8,1.9-2.7
							c1.3-4,3.7-6.7,8.8-7.8c3.8-0.8,7.4-2.3,10.8-4.3c3.2-2,8.3-3.2,10.7-1.1C400.1,491.7,400.6,495.7,397,499.9 M407.3,550.1
							c0,0.2,0,0.3,0,0.5c-0.2,1.3-0.2,2.5-0.2,3.8c0.4,2.1,0.2,4.2-0.3,6.2c-1.4,2.1-3.2,4.1-4.6,6c-2.3,3-4.7,6-7.1,8.9
							c-2.4,2.9-4.8,5.8-7.4,8.6c-1.1,1.3-2.4,2.3-3.9,3c-0.9,0.6-1.9,1-3,1.2c3.5-1.8,5.6-4.9,7.4-8.5c3-6.1,6.5-12,9.5-18
							c3.3-6.5,3-13.1-0.5-19.5c-0.4-1-0.7-2.1-0.8-3.2c1.2,0.2,2.7,0.1,3.7,0.8c4,2.6,8.1,5.1,11.5,8.3c1.2,1.1,0.6,4.1,0.8,6.3
							c0,0.2-1,0.6-1.1,0.5c-0.4-0.5-0.5-1.1-0.8-1.5c-0.9-1.2-1.9-2.3-2.8-3.5C407.5,549.9,407.3,550,407.3,550.1 M387.6,481.6
							c0.3,0.9-0.5,2.2-0.8,3.4c-1-0.3-2.2-0.4-2.9-1c-0.9-1-1.5-2.2-2-3.4c-0.8-1.6-1.3-3.3-2-5l4.8,2.9
							C385.8,479.9,387.3,480.5,387.6,481.6 M370.8,476.6c-2.1,0.8-4.5,2.1-5.5,3.9c-4,7.2-7.9,8.8-15.6,5.8h-0.4
							c-0.2,0-0.4-0.1-0.6-0.1c-0.1,0-0.1-0.1-0.2-0.1l0,0l-0.1-0.1h-0.1c-0.8-0.2-1.6-0.5-2.4-0.8c-0.3-0.1-0.5-0.2-0.8-0.4
							c-0.1-0.1-0.2-0.2-0.4-0.3l0,0c0,0,0.1-0.2,0.2-0.3c0.3-0.3,0.6-0.6,0.9-0.9c0.7-0.5,1.4-1.1,2.2-1.5c0.8-1.1,1.9-2.1,3.1-2.8
							c0.4-0.5,0.8-0.9,1.2-1.4s0.8-0.8,1.2-1.2l0.2-0.2c0.5-0.5,1.1-0.9,1.7-1.2c0.3-0.1,0.5-0.3,0.8-0.4c0.8-0.6,1.5-1.2,2.2-1.9
							c5.5-5.3,11.6-9.7,19.5-10.6c1.7-0.2,3.5,0.5,5.2,0.9c-0.5,1.9-0.7,3.9-1.6,5.5C379.2,472.9,375.1,474.8,370.8,476.6
							 M276.5,463c-0.2-0.8-0.5-1.5-0.9-2.2c0-0.4,0.1-0.9,0.2-1.3c0-0.3,0.1-0.5,0.2-0.8c0-0.1,0-0.2,0-0.2
							c0.4-1.9,0.6-3.8,0.9-5.6c0.2-1,0.4-2,0.8-3l0,0c1.3-6.1,5-10.9,9.3-15.2c2.1-1.8,4.8-2.7,7.5-2.4c8.2,1.4,14.1,12,10.3,19.4
							c-3.2,6-7.2,11.5-12,16.3C288.4,472.5,278.3,469,276.5,463 M296.6,472c1.9,2.5,3.3,4.3,3.9,6.4c0.2,0.7-1.8,2.4-3.1,3
							c-0.8,0.3-2.6-0.6-3.1-1.4c-0.9-1.5-1.8-3.6-1.5-5.1C293,473.6,295.2,472.9,296.6,472 M246.6,462.2c-0.2-1.3,1.4-4.2,2.1-4.1
							c1.9,0.1,3.8,1.3,5.6,2.2l-3,3.5C248.1,466.3,246.8,463.9,246.6,462.2 M227.6,437C227.6,437,227.6,437,227.6,437
							c-0.2-0.4-0.5-0.7-0.7-1.1c-0.2-0.3-0.3-0.7-0.3-1.1c0-0.1-0.1-0.2-0.1-0.2c0-0.1-0.1-0.2-0.1-0.3l0,0c0-0.2-0.1-0.4-0.1-0.6
							c0-0.1,0-0.2,0-0.3v-0.1c0,0,0-0.1,0-0.1c0-0.1,0-0.2,0-0.4c0-0.2,0.1-0.5,0.1-0.7c0-0.2,0.1-0.4,0.1-0.6l0.1-0.3
							c0,0,0-0.1,0-0.1l0.1-0.2c0-0.1,0-0.2,0-0.3c0-0.1,0-0.2,0.1-0.3c0-0.1,0.1-0.3,0.2-0.4l0.2-0.3c0.4-1.5,1-2.9,1.9-4.2
							c2.7-5.8,7.1-6.8,13.6-4.9c7.2,2.1,12,4.1,9.3,13.9c-1.1,4.1-2.2,9-5.1,11.7c-2.2,2-3.2,6.4-8.5,5.7c-5.5-0.8-7.7-2.7-8.7-8
							c-0.4-2.3-1.3-4.6-2.4-6.7 M192.9,440.9L192.9,440.9c0.1-0.2,0.3-0.3,0.5-0.5l0,0c0.1-0.1,0.1-0.1,0.2-0.2l0,0
							c0.5-1.1,1.2-2.1,2-3.1c0.4-0.4,0.8-0.7,1.3-0.9c1.5-0.7,3.2-0.6,4.7,0.2c2.8,1.2,2.4,3.6,0.6,6.5c-2.2,3.5-3.3,4.4-6.7,1.6
							c-0.5-0.4-1-0.8-1.5-1.3c-0.6-0.1-1.1-0.5-1.3-1.1l0,0c0-0.1-0.1-0.1-0.1-0.2C192.5,441.6,192.6,441.2,192.9,440.9
							 M173.3,410.9c0-5.7,2.8-10.3,6.8-14.2s13.5-1.2,16.3,6c4.3,11.2-6.9,26.9-18.7,27.1c-4.4,0.1-2-3.7-3.6-5.2
							C173.7,419.7,173.3,415.3,173.3,410.9 M120.3,398.1c0-0.1,0-0.1,0-0.2c-3.2-5.5,0.7-10.9,1.7-16c1.1-4.2,5-6.9,9.3-6.6
							c5,0.3,10.5,5.2,11.3,9.3c1.3,6.5-0.4,12.4-4.1,17.8c-2.5,3.6-4.7,7.4-7.6,10.6c-1.3,1.5-4,1.8-6.1,2.6
							c-0.4-1.4-1-2.8-1.3-4.2c-0.6-2.6-1-5.2-1.5-7.8c0-0.3,0-0.5,0-0.8c-0.8-1.4-1.4-3-1.6-4.7 M84.5,413.5
							c-2.5-0.9-5.5-2.2-7.2-4.1l0.1-0.2c0.3-0.6,0.7-1.2,1.1-1.6l0.2-0.2c0,0,0-0.1,0.1-0.1l0.1-0.1l0.5-0.4l0,0l0.3-0.2
							c0.3-0.2,0.7-0.3,1-0.4l0,0c0.5-0.2,1.1-0.3,1.7-0.3c0.2,0,0.4,0,0.6,0c0.3-0.1,0.6-0.2,0.9-0.3c1.9-0.1,3.9,0,5.8,0.2
							c-0.1,1.7,0.4,3.9-0.4,5C88.3,412.3,85.7,413.9,84.5,413.5 M99.1,432c-1.9-2.8-3.6-5.8-5-8.9c-3.7-9-0.6-18.4,10-23.1
							c0.9-0.5,1.8-1,2.8-1.3c8.9-1.8,9.8-2.1,11.2,6.3c0.3,1.5,0.7,3,1.2,4.4c2.2,6.7-1.4,11.9-4.2,17.2c-1.3,2.5-3.1,4.7-5.2,6.4
							C106.1,435.8,102.2,435.7,99.1,432 M133.6,455.7c-3.1,6.4-8.1,9.8-12.4,7.3c-2.3-1.4-4.7-4.3-5.1-6.9
							c-1.4-8.9-3.2-18.1,1.8-26.7c2.5-4.4,4.2-9.6,9.6-10.4c0.5-0.4,1-0.6,1.6-0.7c0.9-0.1,1.8,0.1,2.6,0.6l0.2-0.1
							c0.1,0,0.3,0.1,0.4,0.2c-0.2-0.1-0.2-0.1,0,0l0.2,0.1l0.3,0.2c0.5,0.3,0.9,0.7,1.3,1.1l0,0l0,0c0.1,0.1,0.2,0.2,0.3,0.4
							s0.3,0.4,0.5,0.7c0.1,0.1,0.1,0.2,0.2,0.3C139.9,433.3,139,444.5,133.6,455.7 M140.5,423.4c0.2-0.8,0.6-1.6,1.1-2.1
							c1.1-1.1,2.2-2.8,3.5-2.9s2.7,1.6,3.3,2.8c2.3,5.6,0.9,8.2-4.1,8C140.3,429.1,142,425.2,140.5,423.4 M184.9,438.4
							c6.7,9.3,6.1,19.5,3.5,30c-3.5,4-6.7,7.8-10.7,10.7c-5.2,3.8-9.5,2.5-11.3-4c-3.6-12.8-1.5-25,3.1-37
							C171.5,432.9,181.1,433.1,184.9,438.4 M170.1,432.5c-0.2-0.5-0.8-1.1-0.6-1.6c0.4-1.3,0.9-2.6,1.4-3.8l1.8,2.5
							C172,430.8,171.2,431.7,170.1,432.5 M166.4,429.5c-2.1,4.4-2,9.8-3.2,14.7c-0.4,1.7-1.8,3.8-3.2,4.4c-3,1.3-5.8-0.4-6.7-3.3
							c-1.2-3.9-1.9-7.9-1.9-11.9c0-4.4,1.2-8.8,1.9-13.3c2.7-3,5.1-5.9,8.2-7.7c3.7-2.1,6.6-0.3,7.1,3.8
							C169.2,420.7,168.4,425.4,166.4,429.5 M216,464.7c-3.4,2.5-9.1-0.7-10.8-5.8c-1.1-3.2-2.7-7.5-1.4-9.9
							c2.7-5,6.3-9.4,10.5-13.2c3.1-2.9,9-0.3,10.6,3.8c2.3,5.8,3.9,11.6-0.2,17.4C222.1,459.8,219.2,462.4,216,464.7 M239.3,459.3
							c0.5,2.1,0.9,4.2,1.3,6.3c2.9,8.6,1.1,20.2-6.3,26.1c-4.3,3.5-10.3,2.1-12.2-3.4c-3.1-8.9,1.1-25.4,8.8-32.2
							C234,453.7,238.5,455.4,239.3,459.3 M287.9,503.4c-0.9,1.7-2.2,3.2-3.7,4.4c-2.7,1.8-5.7,4.2-8.6,4.2
							c-0.7-0.1-1.3-0.6-1.6-1.2c-0.7-0.5-1.2-1-1.6-1.7c-0.7-1.1-1.1-2.2-1.7-3.3c-0.1-0.3-0.1-0.6,0-0.9
							c-1.6-10.5,0.8-19.8,4.7-28.8c1.5-3.3,5.5-3.8,8.7-2C295.3,480.4,292.7,496.2,287.9,503.4 M272,463.2
							c0.6,4.1,0.6,8.3-0.3,12.4c-0.9,4.2-8.6,7.2-12.5,5.5c-1.1-0.5-2.6-1.6-2.6-2.5c-0.3-4.6-3.2-9.6,0.4-13.7
							c0.4-0.8,1-1.6,1.8-2.2c0-0.1,0-0.2,0.1-0.3c0.9-1.6,2.2-2.8,3.8-3.8c3.2-1.7,7.1-0.4,8.7,2.7
							C271.6,461.9,271.9,462.5,272,463.2 M308.2,476.9c4.3-1.7,6.6-0.3,7.3,4.1c1.4,9.3-3.5,14.9-9.4,15.2
							C298.6,490.7,300,480.2,308.2,476.9 M333.6,497.8c1.2,0.2,2.3,0.4,3.5,0.7c0.6,0.3,1.1,0.7,1.5,1.2c-0.9,0.9-2.2,1.7-2.7,1.3
							C334.9,500.3,334.4,498.9,333.6,497.8 M331.4,512.3c-1.2,8.5-4,16.4-10.7,22.1c-2.7,2.3-6.2,4.9-10.2,3
							c-3.7-1.7-5-5.3-5.1-9.1c-0.2-5.2,0.2-10.4,0.3-15.6c3-6.1,5.8-11.7,9.4-16.8c3.5-4.9,7.8-4.1,11.6,0.5
							C330.6,501.3,332.3,506.4,331.4,512.3 M340.2,506.1c0.3-5,4-6.8,7.7-8.7c6.1,3.1,8.3,9.1,5.1,14c-1.3,2-4.7,3.5-7.3,3.8
							C342.9,515.4,339.9,509.3,340.2,506.1 M366.5,540.7c-1.5,9.4-8.3,15.2-14.7,21.2c-2.9,2.7-10.6,2.6-11.2-0.2
							c-1-4.7-2.1-9.9-1.3-14.5c1.1-6.3,3.9-12.4,6.1-18.5c1.9-5.1,5.2-9.6,9.4-13c1.1-1,2.5-2.4,2.6-3.6c0.3-3.6,0.1-7.2-0.4-10.8
							c-0.7-4.9-8.5-8.1-13.2-6.1c-1.7,0.7-4.1,0.1-6.1,0.1c-1.1,0-2.5-0.7-3.3-0.3c-2.9,1.5-4.8,0.2-6.7-1.6c1.6-1.1,3-2.3,4.7-3.3
							c3.1-1.8,6.2-3.5,9.3-5.2c0,0.2,0.1,0.5,0.2,0.7c0.4,0.9,1.2,1.6,2,2c0.9,0.4,1.9,0.8,2.9,1l3.5,1.1h0.1
							c0.3,0.2,0.7,0.3,1.1,0.5c1.9,1,3.7,1.9,5.6,2.8c0.4,0.1,0.8,0.1,1.2-0.2c4.9-4,9.7-8.1,14.8-11.9c1.3-1,3.9-1.9,4.8-1.2
							c1.5,1.4,2.5,3.3,2.8,5.3c0.2,1-1.5,2.6-2.7,3.4c-2,1.2-4.3,1.9-6.5,3c-6,3-9.2,8-9.4,13.7v0.2c0,0.1,0,0.2,0,0.4l0,0
							c0,0.3,0,0.6,0,0.9c-0.1,2.1-0.7,4.2-0.5,6.4c0.2,1.9,0.6,3.7,1.2,5.5l0,0c0.1,0.4,0.2,0.8,0.4,1.3
							C368.9,525.7,367.7,533.2,366.5,540.7 M364.2,587.8c-1.1-0.4-1.9-1.3-2.1-2.4c-0.1-3-0.4-6.2,0.4-9.1
							c2.2-7.7,4.1-15.4,9.9-21.6c4.1-4.3,7.5-9.2,11.3-13.8c3.1-3.7,7-3.2,9.2,1.3c0.9,2.2,1.6,4.5,2.2,6.9
							c-1,9.3-2.1,17.9-7.4,25.2c-1.5,2.1-2.7,4.4-4.2,6.6C378.8,588,371.6,588.3,364.2,587.8 M797.4,784.2
							c-0.1,6.3-2.1,12-5.2,17.5c-3.3,5.9-6.9,11.5-10.8,17c-12.9,18.2-28.3,34.5-45.8,48.3l-0.4-0.2c3.2-3.3,6.3-6.7,9.3-10.2
							c1-0.9,1.9-1.8,2.7-2.8c10.9-12.6,21.5-25.4,32.2-38.2c0.2-0.2,0.3-0.4,0.4-0.6c0-0.2,0.1-0.5,0.3-0.7
							c1.4-1.8,2.7-3.7,3.8-5.7l0,0c0.6-1,1.2-2.1,1.8-3.1s1.1-2,1.7-3c1.7-2.6,3.1-5.4,4.4-8.2l0,0c0.2-0.5,0.4-1,0.6-1.4l0,0
							c0.3-0.9,0.6-1.8,0.8-2.7c0.1-0.2,0.2-0.5,0.3-0.6c0-0.1,0.1-0.2,0.1-0.3c0.1-0.1,0.1-0.1,0.2-0.2l0.1-0.2
							c0.1-0.1,0.1-0.3,0.2-0.4c0.1-0.3,0.3-0.6,0.4-1c0.1-0.4,0.3-0.7,0.5-1c0.1-0.1,0.1-0.2,0.2-0.2c0-0.1,0-0.3,0.1-0.4
							c0.7-2.8,1.3-5.6,1.7-8.4c0.1,2.2,0.1,4.4,0.1,6.5 M533.4,590.8c6.3,3.8,12.3,8.2,18.9,11.4c7.7,3.8,15.9,6.5,24,9.7l2.7,1
							c0,0,0-0.1,0-0.1c5.1,2.6,10.4,4.8,15.9,6.5c2.9,1.2,5.9,2.3,8.8,3.3c4.3,1.4,8.7,2.7,13.2,3.7c3.7,0.9,7.5,1.7,10.8,3.7l0,0
							c0.4,0.1,0.8,0.3,1,0.6c-0.3-0.4,0,0,0.1,0l0.2,0.2h0.1c0.1,0.1,0.2,0.1,0.3,0.2l0.5,0.2l0.2,0.1c0.5,0.1,1,0.2,1.6,0.4
							l0.2-0.1c9.5,3.8,19,7.7,28.6,11.4c5.4,2.1,10.9,3.9,16.7,6.1c1.8,0.7,3.4,0.7,4.7,1.4c6,2.9,12.2,5.6,18.2,8.6
							c0.1,0,0.3,0,0.4,0.1l0,0c0.1,0.1,0.3,0.1,0.4,0.2l0.5,0.4l0,0c1.9,1.4,3.9,2.6,6,3.7c1.3,0.7,2.5,1.4,3.6,2.2
							c0.8,0.6,1.7,1.2,2.5,1.9l0.2-0.1l0.6,0.5c0.3,0.2,0.6,0.3,0.9,0.2l2.7,2l0.7,0.4c0.1,0.1,0.2,0.2,0.3,0.3
							c7.8,5.7,15.6,11.5,23.4,17.2c9.3,6.9,18.6,14,26.8,22.1c8.1,8,15.3,17.1,20,27.5c1.4,3.2,2.6,6.6,3.5,10
							c-0.1,0.3-0.1,0.7,0.1,1c0.2,0.5,0.4,1.1,0.6,1.7c0.4,1.7,0.7,3.5,1,5.2l0.8,11.3c0,1,0,1.9-0.1,2.9
							c-0.5,9.4-2.6,18.6-6.3,27.3c-2.9,4.7-5.9,9.4-9,14.3c-0.3,0.3-0.6,0.6-0.9,1c-2,3.1-4.8,5.7-7.3,8.3
							c-4.3,4.6-7.8,9.9-12.2,14.5c-2.5,2.7-4.8,5.5-7.2,8.3l0,0c-1.8,2.1-3.5,4.2-5.3,6.3c-1.3,1.5-2.7,3.1-4,4.6
							c-2,2.4-4,4.7-6.1,6.9c-1,1.2-2.1,2.4-3.1,3.7c0,0-0.1,0-0.1,0.1l-0.1,0.1c-1.7,1.9-3.6,3.7-5.6,5.3c-0.7,0.6-1.4,1.2-2.2,1.8
							c-2.7,2.6-5.5,5.1-8.2,7.6c-6.7,4.4-13.9,8.1-21.4,11c-5,2-10.5,3-15.8,4.3c-0.2-0.1-0.4-0.2-0.6-0.2l-0.4,0.1l-1,0.3
							c-1.9,1.1-4.1,0.7-6.1,0.1c-2.5-0.7-5-1.8-7.5-2.7c-5.4-2.1-10.7-4.5-15.8-7.3c-9.5-5.3-18.3-11.8-26.1-19.4l0,0l-0.2-0.2
							c-0.1-0.1-0.3-0.2-0.4-0.3l0,0c-0.1-0.1-0.2-0.2-0.3-0.4c0-0.1-0.1-0.1-0.2-0.2c-0.1-0.2-0.3-0.3-0.5-0.4
							c-0.2-0.2-0.3-0.4-0.4-0.6c-1-0.8-2-1.7-2.9-2.6c-2-1.8-3.8-3.7-5.8-5.5c-0.6-0.6-1.3-1.2-2-1.9c-1.3-0.7-2.5-1.6-3.6-2.6
							c-5.2-5.1-10.5-10.2-15.3-15.6c-6.2-7.1-12.9-14.1-17.9-22.1c-5.6-8.9-9.7-18.7-14.1-28.2c-2.4-5.1-5.4-9.8-8.2-14.7
							c-2.1-2.8-4-5.7-5.8-8.7c-2.1-3.6-4-7.4-5.8-11.2c-1.6-3.8-3.8-7.5-6.4-10.7c-0.3-0.3-0.4-0.7-0.3-1.1c-0.4-0.5-0.7-1-1-1.6
							c-3-5.1-4.9-10.9-8.2-15.7c-5-7.3-10.9-14-16.4-20.9c-4-4.9-7.9-9.9-12-14.7c-3.1-3.6-6.3-7-9.5-10.5
							c-7.1-7.8-14-15.7-21.4-23.2c-4.1-4.1-9.1-7.2-13.4-11.1c-3.9-3.5-7.1-7.7-11-11.2s-8.2-6.8-12.4-10.1
							c-0.7-0.7-1.4-1.3-2.2-1.8c-8-4.1-16.1-8.2-22.7-14.6c-1.9-1.6-4.1-2.9-6.5-3.8l-1.2-0.8c-1.3-0.8-2.5-1.6-3.7-2.5
							c5.2-4.6,10.2-9.5,15.2-14.3c0.6-0.5,1.1-1,1.8-1.4c0.4,0.6,0.7,1.3,0.8,2c0.4,5.4,9.3,9.8,13.7,7.9
							c7.9-3.3,13.6-9.5,15.2-16.7l2.5,1.9c-0.4,0.5-0.8,1.1-1.2,1.7s0,1.6,0,2.4c0.6-0.3,1.2-0.6,1.8-1s1.2-0.8,1.9-1.2
							c1.8,1.4,3.6,2.8,5.5,4.1c-3.5,3.5-7.2,7-10.7,10.5c-0.6,0.7-0.6,2-0.8,3c1.1-0.3,2.1-0.8,3.1-1.4c3.7-3.3,7.3-6.7,10.8-10.3
							c2.4,1.9,4.9,3.7,7.4,5.5c0.5,3.9-0.7,7.9-3.3,10.9c-2.2,2.7-8.9,3.8-13.3,1.2c-3.7-2.2-6.5-5.9-9.8-8.9
							c-0.8-0.6-1.6-1.2-2.4-1.7c-0.2,1-1,2.3-0.6,2.8c2.7,3.6,5,8.2,8.6,10.3c5.7,3.4,12.3,4.8,18.8,0.9c0.7-0.3,1.4-0.5,2.2-0.7
							c0,0.8,0,1.7,0,2.5c0.3,3.1,0.5,6.2,1,9.3c0.3,1.9,1.8,3.9,1.5,5.6c-1.2,7.2,8.1,13.2,14.1,10.9c4.3-1.6,8.5-3.6,12.7-5.5
							c3.2-1.5,5.6-0.8,7,2.5c1,2.5,2.9,5.2-0.6,7.2c-3,1.7-5.8,2-7.4-2.1c-0.4-1-2-1.5-3.1-2.2c0.1,1.4-0.1,2.8,0.3,4
							c0.6,1.1,1.4,2,2.5,2.7c2.1,1.5,2.3,2.7,1.1,5.4c-1.4,3.5-2.5,8.1-1.3,11.4c2.2,6.4,13.9,8.2,19.5,4c2.5-1.9,5.1-5.4,7.8-0.2
							c0.3,0.4,0.7,0.6,1.2,0.7c4.4,0.8,2.9,2.8,1.2,5.2c-2.8,4.2-5.5,8.5-8.1,12.8c-0.4,0.2-0.6,0.6-0.7,1c-0.3,1.7-0.3,3.3,0,5
							c0.3,1.8,1.3,3.5,2.8,4.7c0.4,0.3,0.8,0.4,1.2,0.3c4.8,2.1,9.6,4,15.1,3.1c4.4-0.8,7.2-3.8,9.7-7.3c1-1.4,2.5-4.4,3.1,0.3
							c0.1,0.8,0.5,1.4,1.2,1.8c5.5,2.1,4.8,4.5,0.4,7.2c-0.3,0.3-0.5,0.7-0.6,1.2c-0.7,6.8-1.5,13.5-1.8,20.3c0.1,2,1,3.8,2.5,5
							c4,2.5,8.3,4.3,13.6,3.5c3.8-2.2,7.1-4.5,10.6-6.6c1.2-0.5,2.5-0.9,3.9-1.2c-0.2,1.3-0.6,2.5-1.1,3.7
							c-3.2,5.6-6.8,10.9-9.6,16.7c-2.6,5.4-0.2,14.5,4.2,17.6c6.9,5,14.6,6.1,22.8,4c4.4-1.1,7.2-4.1,7.7-8.2
							c0.9-7.2,1.3-14.4,1.2-21.7l5.6,5c-2.1,1.7-4,3.3-2.8,6.4c1.1,2.9,2.6,6,4.9,7.8c3.3,2.6,1.7,4.1-0.4,5.7
							c-8.1,6-13.1,14.1-14,24c-0.4,3.8,0.7,8.9,3.1,11.7c4.3,5.1,10,9,17.4,9.5c8.7,0.5,16.7-0.9,23.4-6.9c5.6-5,4.9-11.8,5.2-18.4
							c0.1-1.8,0.3-3.6,0.4-5.4c1.9,0.7,4.1,0.9,5.5,2.1c8.7,6.8,17.4,13.8,25.9,20.9c3,2.5,5.6,5.3,8.4,8
							c4.8,4.7,9.3,9.6,14.4,13.9c4.6,3.9,9.8,7,14.5,10.7c5.9,4.5,11.5,9.4,17.4,13.9c1.2,0.9,3.3,0.7,5,1
							c-0.8-1.2-1.4-2.8-2.5-3.7c-9.9-7.8-20.2-15.1-29.8-23.1c-10-8.4-19.6-17.3-29.4-26c-0.6-0.4-1.2-0.8-1.8-1.3l-0.4-0.3
							c-0.2-0.2-0.5-0.3-0.7-0.4c-0.2,0-0.5-0.1-0.6-0.3c-9.5-6.5-18.5-13.6-27.5-20.8c-0.8-0.4-1.5-0.9-2.2-1.4
							c0.1-0.1,0.1-0.1,0.2-0.2l-1-0.8c-0.6-0.5-0.7-1.4-0.3-2c0,0,0,0,0,0v-0.1c-4.5-4-9-8-13.6-12c0.8-6.7-0.7-8.7-6.2-10.5
							c-1.7-0.5-3.6-0.3-5.4-0.5c-0.4,0-0.7-0.1-0.9-0.1L604,734c0.1-0.6,0.3-1.2,0.6-1.8c2.6-5.8,5.4-10.6,12.9-10.5
							c4,0.1,6.2-5.4,11.5-4.2c1.8,0.4,4.2-1.8,6.6-3.1c4.8,3.5,9.5,7.1,14.2,10.7c-0.3-0.1-0.7-0.2-1-0.3
							c-5.1-1.9-15.2-0.8-19.1,4.2c-0.6,0.9-1,1.8-1.4,2.7c1.1-0.2,2.6,0.1,3.2-0.5c3.6-4,8.5-3.5,13-3.9c1-0.1,2.2,1.5,3,2.5
							c0.3,0.4-0.2,1.5-0.4,2.2c0.7-0.5,1.4-0.9,2.1-1.2c1.3-0.5,2.6-0.8,3.9-1.2c-0.3,1.2-0.3,3-1.1,3.6c-4,3.1-8,6.5-12.5,8.5
							c-2.4,1.1-7,0.7-8.6-1c-3.7-3.8-8.1-7.9-6.6-14.3c0.1-0.9,0-1.8-0.1-2.6c-0.6,0.7-1.7,1.3-1.8,2.1c-0.4,2.7,0.7,6.5-0.7,8
							c-4.3,4.3,1.8,3.4,2.1,5.2c0.1,0.7,1.1,1.1,1.3,1.8c0.8,2.7,1.4,5.6,2.3,8.3c1,2.6,2.2,5.2,3.5,7.7c0.4,0.5,1,0.8,1.7,0.9h0.2
							c0.3-0.1,0.8-0.7,0.8-0.9c-0.7-2.6-1.4-5.3-2.3-7.8c-0.5-1-1.1-1.9-1.9-2.8c1.3-0.3,2.7-0.4,4-0.5c5.6,0.1,11.2,0.1,15.2-4.8
							c1.7-2,3.8-3.6,5.6-5.5c1.7-1.7,3.2-3.3,5.4-2.7c4.1,3.3,8.2,6.6,12.3,10c-0.1,0.8-0.3,1.5-0.7,2.2c-2.2,3.1-5,5.9-7.1,9.1
							c-2.4,3.5-5.4,2.3-8.1,1.2c-2.1-0.9-3.8-2.9-5.7-4.4c-1.7-1.3-3.3-2.6-5-3.8c0.8,1.9,1.1,4.1,2.3,5.7
							c4.5,5.8,12.5,10.2,17,6.2c4.2-3.7,7.1-8.8,10.3-13.5c11.4,9.6,22.4,19.5,33.1,29.9c0.5,0.2,0.9,0.6,1.2,1
							c1.9,1.8,4,3.5,6.1,5c2,1.6,3.8,3.5,5.7,5.1l0,0l0.7,0.6c0.1,0.1,0.2,0.2,0.2,0.4l2,2.2c3.2,3.5,6.3,7.1,9.8,10.3
							c4.3,3.9,9,7.5,13.7,11.1c0.9,0.5,2,0.9,3,1.1c-0.5-1.2-0.7-2.7-1.6-3.5c-2.4-2.3-5.4-4.1-7.7-6.4c-8-7.9-15.7-16-23.6-24
							c-3.5-3.5-7.2-6.9-11-10.2c-8.8-7.6-17.6-15.1-26.7-22.6l0,0l-3.7-3.1c0.1-0.3,0.1-0.6,0.2-0.8c0.4-1.7,1-3.4,1.8-5
							c3.5-6.1,7.9-11.8,10.7-18.2c5.1-11.7,2.9-21.3-5.3-28.3c-4.2-3.6-8.4-3.2-11.9,1c-1,1.4-2.2,2.7-3.4,4
							c-0.3,0.2-2.2-0.6-2.2-0.9c0.2-7.7-5.3-11.4-10.3-15.7c-3.8-3.2-8.6-2.5-10.5,0c-3.9,5-6.2,11.3-9.1,17.1
							c-0.2,0.5,0.4,1.4,0.6,2.2c0.7-0.4,1.8-0.6,2.1-1.2c1.4-3,2.7-6,4-9c2.8-6.5,6.7-8.4,12-5.7c1.5,0.8,2.4,2.6,3.7,3.8
							c5.5,5.5,6.1,11.5,2.6,17.2c-1.7,2.7-2.3,6.1-3.5,9.1l-0.4,1c-0.6-0.2-1.1-0.4-1.6-0.7c-3.6-2.3-7.3-4.8-11.9-4
							c-3.1,0.6-4.2-1.1-5.8-3.2c-1.9-2.5-4.6-5.4-7.5-6.1c-3.9-0.9-3.2-1.7-1.4-4c5.5-7,10-14.5,11.6-23.4
							c1.9-11.2-0.3-15.4-11.8-20.8c-2.3-1.1-5.8,0.4-8.8,0.5c-0.8,0-1.6-0.3-2.2-0.9c-1-1.4-1.6-3.2-2.7-4.6
							c-3.7-4.4-6.7-9.7-13.7-9.6c-0.8,0-2.4-1.6-2.4-2.5c-0.7-9.2-9.4-14.8-18-13.1c-2,0.4-4.4-0.8-6.4-1.5c-6-2.2-11.8-5.5-18-6.4
							c-4-0.6-7.7-2.6-10.4-5.5c-5.8-5.8-8.4-6.2-14.5-1.2c-0.7,0.5-3.3-0.1-3.3-0.3c-0.4-4.2-3.8-5.9-6.5-8.1
							c-7.8-6.2-16.7-2.9-19.2,6.7c-0.9,3.6-3.2,6.9-5.1,10.2l-3.7-2.7c-0.7-4.2-5-10.5-7.9-12.6c-2.6-1.8-7.1-3.2-6.2-7.5
							c0.6-3.3,3.5-5.8,6.9-5.9c1.7,0,3.3,1.7,5,2.2c6.9,2,8.2,4.4,5.8,11.6c-0.7,1.6-1.2,3.3-1.6,5.1c-0.1,1.5,0,2.9,0.3,4.4
							c1-0.9,1.9-1.9,2.6-3c0.8-1.7,0.8-3.9,1.7-5.5c3-5.3,2-12-2.5-16.1c-4.2-3.8-8.6-4.8-13.8-2.2c-0.7,0.4-1.7,0.1-2.6,0.1
							c0.3-0.8,0.6-1.5,0.8-2.3c0.5-2,0.8-4.1,0.8-6.2c-0.4-9.4-8.8-9.8-14.8-12.8c-0.3-0.2-1.1,0.2-1.5,0.5c-1.6,1.5-3.3,3-5.2,4.3
							c-1,0.6-2.6,0.4-3.9,0.6c0.6-0.8,1.2-1.6,1.8-2.4c0.8-1,1.5-2.7,2.4-2.9c4.2-0.7,4.9-3,4.1-6.7c-0.5-2.3,0-4.9-0.6-7.2
							c-0.4-1.5-2.1-2.7-3.2-4.1c0,1.6,0.1,3.1,0.4,4.6c1.4,6,0.8,6.8-5.3,8.3c-2.2,0.6-3.9,2.7-5.9,4c-0.9,0.6-1.8,1-2.7,1.5
							c-0.4-1.1-0.6-2.2-0.7-3.3c0.2-1,0.5-2,1.1-2.9c2.6-5.3,3.5-10.5-1.3-15.2c-0.3-0.7-0.2-1.6,0.2-2.3c1-0.4,2.1-0.7,3.1-0.8
							c-1.2,7,2,1.8,3.7,1.4c0.9-0.3,1.9-0.4,2.8-0.1c4,2,7.9,4.4,11.6,6.9c6.8,5.1,13.2,10.8,20,16c5.3,4.2,10.9,8.1,16.3,12
							c4.2,3.1,8.4,6.3,12.8,9C523,585,528.4,587.7,533.4,590.8 M434.2,571.1c-0.7,3.3-1.8,6.4-3.2,7.7c-2.8,2.5-7.8,0.3-9.3-4.1
							c-0.2-0.8-0.3-1.6-0.3-2.4c-0.2-0.8-0.4-1.6-0.6-2.4c-0.3,0.2-0.7,0.4-0.9,0.7c-2.3,4-0.7,8.4,3.4,10.5
							c1.2,0.6,1.9,2.1,2.8,3.2c-1,0.7-1.9,1.8-3.1,2.1c-5,1.5-12-1.5-12.9-5.9c-0.3-1.9,1-4.5,2.3-6.1c2.8-3.7,6-7.2,9.6-10.2
							c0.7-0.5,1.4-1,2.1-1.3c0.1,0.3,0.3,0.7,0.5,0.9C427.8,566.2,431,568.7,434.2,571.1 M436.7,549.6c0,0.8,0,1.5,0.1,2.2
							s0.3,1.7,0.4,2.5c0.8-0.7,2-1.3,2.5-2.2c0.9-2,1.2-4.3,2.2-6.2c0.8-1.5,2.4-2.7,3.7-4c0.8,1.8,1.5,3.7,2.1,5.6
							c0.3,1.2,0.3,2.5,0.1,3.7c-0.3,1.5,0.1,4-3,2.6c-0.4-0.2-2.6,2-2.4,2.2c1.6,2.8,0.7,4.8-0.8,6.8c-3-3.6-5.8-7.5-8.2-11.5
							c0.3-0.2,0.6-0.4,0.8-0.8C434.6,549.9,435.8,549.8,436.7,549.6 M434.2,547.7c-0.1-1-0.7-2.3-0.3-2.9c1.8-2.7,4.1-5.1,5.9-7.8
							c0.9-1.4,1.2-3.3,1.8-4.9c2.1-5.6,4-6.1,8.7-2.3l3,2.4c-8.8,1-12.4,7.5-16,14.2C436.9,547.1,435.3,547.2,434.2,547.7
							 M513.7,616.6c-2.4-1.6-5-2.9-7.3-4.7c-0.8-0.9-1.2-2-1.1-3.2c0.1-2.1,0.6-4.1,1.4-6c0.8-1.7,2-3.1,3.6-4.1
							c4.5-2.4,13.3,0.8,14.6,5.1c0.1,0.9,0.1,1.8,0,2.6c-0.8-0.2-1.6-0.5-2.3-0.9c-2.7-2.7-5.7-3.5-9.1-1.8
							c-1.7,1.6-3.1,2.2-3.7,3.2s-0.5,2.4-0.7,3.7c1-0.5,1.9-1.1,2.7-1.8c3.3-3.4,5.8-3.5,9.6-0.7s2.9,5.8,0.9,9.2
							c-1.8,3.2-3.5,6.1-7.9,5.5c-0.5,0.7-0.8,1.6-0.8,2.5c0,0.4,0.9,1,1.4,1.2c3,0.6,4.7,2,5.4,4c-5.2-3.6-10.4-7.3-15.5-11
							c1.1-2.9,2.1-2.6,6.4-1c0.6,0.2,1,0.8,1.6,0.9c1.2,0.1,2.5,0.1,3.7,0C515.7,618.3,514.8,617.4,513.7,616.6 M576.9,650.5
							c-0.6,1.5-1,3.1-1.1,4.7c0,0.3,0.1,0.6,0.2,0.8h-0.3c0,0.1,0.1,0.2,0.1,0.3c0.2,0.5,0.5,1,0.9,1.4c0.3,0.4,0.6,0.8,1,1.1
							l0.3,0.2l0.1,0.1h0.1l0.3,0.2l0.2,0.1c0.5,0.1,1,0.2,1.5,0.2c0.5-0.2,0.9-0.5,1.3-0.8c0.9-0.6,1.8-1.3,2.7-2
							c0.3-0.5,0.7-1.1,1.1-1.5c0.5-0.5,1-1,1.5-1.4c0.8-0.7,1.7-1.3,2.5-2c1.2-1.2,2.4-2.5,3.4-3.9c0.1-0.1,0.2-0.2,0.4-0.3
							c1.3-2.2,2.5-4.5,3.6-6.8c1.2-2.6,1.5-4,5.1-2.7c6,2.1,9.4,6.6,12,11.6c0.7,1.3-0.9,5-2.5,6.1c-4.7,3.3-8.3,8-10.3,13.4
							c-1.9,4.8-3.6,4.9-7.8,2c-2.7-1.7-5.5-3.1-8.5-4.1c-0.5-0.2-1.4,0.4-2.1,0.6c0.3,0.6,0.5,1.5,1,1.8c2.1,1.2,4.3,2.1,6.6,2.9
							c2.5,0.7,5.7,6,5.5,9.8c-6.9-4.8-13.7-9.5-20.6-14.2c-0.6-1.3-0.8-2.9-1.3-4.3c-0.8-2.2-1.4-4.6-2.7-6.5c-0.7-1-2.6-1.3-4-1.9
							c0.7,1.1,1.2,2.3,1.6,3.6c0.2,1.2,0.2,2.8-0.5,3.7c-0.1,0.2-0.3,0.3-0.4,0.5l-7.7-5.3c1-1.8,1.9-3.6,2.7-5.5
							c1.3-3.3-0.4-7.8,0.6-11.3c1.4-4.8,4.2-9.3,6.5-13.8c0.3-0.7,1.8-0.7,2.8-1c-0.1,0.9-0.3,1.8-0.6,2.6c-1.4,3.3-3,6.5-4.4,9.8
							c-0.2,0.7-0.2,1.3-0.2,2c0.6-0.3,1.5-0.3,1.8-0.8c2.3-4.2,4.9-8.4,6.6-12.8c1.6-4.3,4.4-6.4,8.6-4.7c4.5,1.9,9.2,3.1,10.7,9.2
							c0.9,3.6-0.1,5-2.8,5.8c-7.1,2.3-12.5,6.5-15.6,13.3 M592.6,641c-0.4,1.3-0.5,2.8-1.4,3.7c-2.4,2.6-5,4.9-7.6,7.4
							c-0.4,0.4-0.6,1-0.6,1.6c-0.3,0.3-0.7,0.6-1.1,0.9c-0.8,0.7-1.6,1.3-2.5,1.8c-0.2,0.1-0.4,0.3-0.7,0.4l-0.3,0.2l0,0h-0.1
							l-0.3,0.1H578l0,0c0,0-0.1-0.1-0.1-0.2c-0.1-0.1-0.2-0.2-0.3-0.3c0.3-0.3,0.6-0.6,0.7-1c1.5-5.9,5.4-9.9,10.1-13.3
							C589.6,641.5,591.2,641.4,592.6,641 M655.1,716.4c0.5,0.8,0.3,2.1,0.4,3.2c-1.2-0.1-2.4-0.5-3.5-1.1c-0.7-0.5-1.1-1.2-1.3-2
							c0-0.4,1.1-1.3,1.6-1.2C653.4,715.3,654.4,715.7,655.1,716.4 M663.5,706.8c3.6-4.6,7.3-9.2,11.1-13.7c1.2-1.5,8.6,1.1,10,3.3
							c5.2,7.9,2.8,15.7-0.6,23.2c-2.7,5.8-6.3,11.2-9.7,16.5c-0.4,0.6-2.9,0.4-3.8-0.2c-1.8-1.3-3.2-3.2-4.8-4.9
							C658.4,725.1,657.8,714.2,663.5,706.8 M648.7,713.9c-3.1,4.4,1.3,5.5,3.4,7.1c1.6,1.3,4.1,1.8,3.2,4.3
							c-5.4-4.2-10.8-8.3-16.2-12.3c2.7-0.6,5.5-1,8.2-1.2C647.7,711.7,648.9,713.7,648.7,713.9 M633.7,709.1
							c-2.3-1.7-4.6-3.3-6.8-5c0.1-0.6,0.1-1.2,0.2-1.9c2.9-0.8,7.5,2.5,7.2,5.4C634.2,708.1,634,708.6,633.7,709.1 M620.4,696.4
							c0.5,1.1,0.8,2.3,0.7,3.5c-3.4-2.5-6.9-4.9-10.3-7.3l-9.7-6.8c0.4,0,0.7,0,1.1-0.1l3.3-0.4c-0.8-0.5-1.6-0.9-2.4-1.4
							c-2.1-1.3-3.7-2.9-2.4-5.7c2.7-3,5.1-6,8.2-7.6c4.4-2.3,5.4-6.5,6.7-10.3c2.5-7.5,8.4-10,15.2-5.8c7.6,4.6,8.7,11.9,5.2,20.3
							c-2.6,6.1-6.6,11.6-10.2,17.3c-0.7,1-2.2,1.5-3.2,2.3C621.8,695.1,620.3,696.1,620.4,696.4 M605.7,668.2
							c1.1-2.8,2.6-5.4,4.3-7.9c0.5-0.3,1.1-0.3,1.7,0c0.3,0.4,0.5,1.5,0.2,1.8C609.9,664.2,607.8,666.2,605.7,668.2 M593.1,703.7
							c-1.3,2.9,3.5,13.3,6.5,15.1c2.3,1.4,6.5,2.2,4.6,6.7c-0.9,2-1.6,4.3-2.8,6c-2.8-2.5-5.5-5-8.3-7.5c-0.6-3.1-2.1-4.1-5.3-4.8
							c-2.4-2.3-4.8-4.5-7-6.9c1.1-4.7,5.1-9.9,8.9-11c1.9-0.5,3.6-2.1,5.4-3c1.2-0.6,3.1-1.8,3.8-1.4c4.1,2.8,8.4,5.6,8.4,11.5
							c0,2.2-0.4,4.4,0.1,6.5c1.4,5.2-2,3.3-4,2.6c-1.3-0.6-2.3-1.6-2.9-2.9c-1.7-3.2-3-6.5-4.5-9.7c-0.5-0.8-1.1-1.4-1.8-1.9
							C593.7,703.1,593.4,703.4,593.1,703.7 M576.8,712.5c0.1,0.6,0.2,1.2,0.4,1.8c-1.8,0.8-3.2,1.1-4.3,0.8
							c-1.6-0.6-3.2-1.4-4.7-2.2c0.8-1.5,1.7-3,2.7-4.4c0.4-0.5,0.8-0.8,1.3-1.1C573.7,709.1,575.2,710.8,576.8,712.5 M610.2,739.3
							c1.1,0.3,3.2,0.7,2.7,2.4C612,740.9,611.1,740.1,610.2,739.3 M580.8,716.6l0.2,0.2c0.4,0.5,0.9,0.9,1.4,1.3
							c-0.5-0.1-1-0.4-1.3-0.8C580.9,717,580.8,716.8,580.8,716.6 M510.9,686.3L510.9,686.3L510.9,686.3l0-0.1
							c-0.2-0.3-0.4-0.6-0.6-0.9l0,0l-0.1-0.2c-0.1-0.2-0.1-0.3-0.2-0.5c-0.1-0.2-0.1-0.3-0.2-0.5v-0.1c0,0,0-0.2,0-0.2
							c-0.1-0.3-0.1-0.7-0.1-1v-0.5v-0.3c0-0.2,0-0.1,0,0c0-0.3,0-0.7,0.1-1c0-0.3,0.1-0.7,0.1-1c3.1-4.2,6.1-8.5,9.2-12.7
							c0.8-1.2,1.8-2.2,3-2.9c-0.3-0.2-0.3-0.7-0.1-1c0,0,0,0,0,0c0.3-0.3,0.8-0.4,1.1-0.1c0.1,0.1,0.2,0.3,0.2,0.5
							c1.3-0.4,2.6-0.5,3.9-0.3c4.2,0.7,5.4,3.6,6.3,6.9c0.5,2,0.7,4.1,0.7,6.2c-0.1,6.3-2.6,11-7.7,11.7c-4.7,0.6-9.6-0.6-14.4-1
							h-0.2c-0.1-0.2-0.2-0.4-0.4-0.5L510.9,686.3L510.9,686.3L510.9,686.3 M492.9,623.6c-0.8-0.2-1.4-1.1-2.1-1.6
							c0.4-0.6,1-1.2,1.6-1.7c0.3-0.2,0.6-0.3,0.9-0.4l10.6,10.6l12,11.8c-1.8,1-3.8,1.4-5.8,1.3c-3.7,0-9.8-6.7-9.5-10.3
							C500.9,629,497.2,624.4,492.9,623.6 M449.7,578.7c0.1,0.1,0.1,0.2,0.1,0.3l-3.9-2.9C447.1,576.1,448.6,577.6,449.7,578.7
							 M455.3,583.2l-1.7-1.3C454.3,582.2,454.9,582.6,455.3,583.2 M503.8,622.6c5.6,4,11.2,8,16.8,11.9c-0.1,0.4-0.2,0.9-0.3,1.3
							c-0.4,1.6-1.1,3.2-2.1,4.5l-5.7-5.7l-10.1-10.1c0.3-0.1,0.5-0.3,0.8-0.5C503.5,623.6,503.7,623.1,503.8,622.6 M519.2,645.6
							c5.3,5.3,10.6,10.6,15.7,16c-2.8-0.1-5.6-0.8-6.5-2c-1.7-2.7-2.8-5.9-4.6-8.6c-0.8-1.2-2.3-2-3.5-2.9c-0.2,1.3-0.3,2.7-0.3,4
							c0.2,1.2,0.5,2.4,1,3.5c0.5,1.3,1,2.6,1.5,3.9c-1.7,0-3.5,0.3-5-0.2c-3.8-1.2-8.4-6.7-8-9.6c0.1-0.8,1.5-2.3,2.1-2.2
							C514.3,647.8,517,647.1,519.2,645.6 M565.7,665.5c-2.3,2.5-4.7,4.9-6.9,7.5c-1.8,2.1-3.5,3.1-6,1.4c-2.9-2-0.6-3.6,0.5-5.4
							c1.7-2.8,3.5-5.5,5.2-8.3L565.7,665.5 M526.7,634.8c1.5-1.2,3.7-1,5,0.5c0.7,1,1,2.3,0.8,3.6L526.7,634.8 M564.5,698.8
							c-2.6-2.8-5.4-5.5-8.3-7.9c-1.9-1.6-4.2-2.9-2.2-5.8c0.1-0.2,0.3-0.5,0.4-0.7c2.8,3.7,5.6,7.5,8.3,11.3
							c1.1,1.5,2.2,2.9,3.2,4.3C565.4,699.5,564.9,699.1,564.5,698.8 M545.6,678.8c0.5-0.8,3.2-1.3,3.3-1c0.8,1.6,2.2,3.7,1.7,5.1
							c-1,2.7-3.3,4.5-6.6,3.1c-2.1-1.4-3.8-1.9-4.7-3c-0.6-0.8-0.1-2.4-0.1-3.7c1,0.1,2.2,0,3.1,0.4
							C544.6,680.9,544.3,680.9,545.6,678.8 M537.9,672.5c-0.6-1-0.5-2.4-1.2-3.4c-1.9-2.8-1.4-4.1,0.9-4.5c2.5,2.7,5,5.5,7.5,8.3
							c-1.6,0.7-3.2,1.2-4.9,1.6C539.6,674.7,538.4,673.4,537.9,672.5 M576.2,674.5c0.7,4.5,1.2,9.1,1.4,13.7
							c-0.2,1.1-0.9,2-1.9,2.4c-0.8,0.1-2-0.9-2.6-1.7c-1.5-2-2.6-4.3-4.2-6.2c-0.6-0.8-2.2-0.7-3.3-1.1c0.2,1.2,0,2.7,0.6,3.5
							c1.9,2.7,4.3,5,6.2,7.7c0.8,1.2,1.7,3.7,1.2,4.4c-1,1.2-2.2,2.1-3.5,2.8l-0.9-1.2c-4.5-6-8.8-12.2-13.4-18.2
							c0.7-1.4,1.8-2.2,4.7-1.4c4.7,1.3,8.5-1.1,10.5-5.3c0.7-1.2,1.6-2.3,2.6-3.2l1,0.7C575.2,672.3,575.8,673.4,576.2,674.5
							 M579.5,675c5.1,3.5,10.3,7,15.4,10.6c-1.2,3.1-2.6,6.1-4.1,9c-1.6,3.2-4.3,4.2-7.9,3.2c-0.4-0.1-1.7,1.1-1.8,1.8
							c-0.4,2.3-0.4,4.8-0.8,7.1c-0.3,0.5-0.9,0.8-1.4,0.9c-1.7-1.3-3.8-2.4-4.8-4.2c-0.4-0.8,0.9-3.5,2.1-4.2
							c2.2-1.1,3.4-3.6,2.8-5.9C581.8,687.5,582,680.8,579.5,675 M569.1,671c-2.4,2-5,3.8-7.6,5.5c-0.4,0.3-1.4-0.2-2.1-0.4
							c0.3-0.7,0.5-1.8,1-1.9c3.9-1.2,6.3-3.5,7.2-7.3l1.9,1.3C569.4,669.1,569.2,670,569.1,671 M551.1,667.5
							c-1.4,4.1-2.4,2.6-4.2,0.7c-0.8-0.7-1.6-1.3-2.4-1.9c0.1,0.5,0.2,1,0.3,1.5c-1.1-1.2-2.1-2.4-3.2-3.5c2.4-0.7,4-2.6,5.1-5.2
							c0.5-1.2,1.1-2.4,1.7-3.7c0-0.6,0-1.2-0.1-1.8l7.6,5.2C554,661.7,552.1,664.4,551.1,667.5 M505,648.3c1.2,3.4,1.1,7.5-2.4,9.7
							c-3.7,2.4-7.5,0.2-11.1-1c-0.9-0.3-1.5-1.5-2.2-2.3c-0.9-8.8,1.2-13,7.5-15.3c0.9-0.3,2.6-0.7,2.8-0.3
							C501.7,642.1,503.9,645.1,505,648.3 M550.7,692.2c10.8,3.7,14.4,13.9,9.9,23.5c-2.5,5.4-8.7,5.4-14.3,4.2
							c-0.5,0-0.9,0-1.4,0.1c-6.3-4.6-4.2-10.6-3.8-15.6c0.3-3.8,2.9-7.5,5-10.9C546.7,692.5,549.3,691.7,550.7,692.2 M567.8,705.2
							c-0.5,1.2-1.1,2.4-1.6,3.7c0.1-1.8,0.2-3,0.4-4.1L567.8,705.2 M589.9,726.2c3.1,8.5,0.5,16.3-0.4,24.1
							c-0.2,1.7-2.8,3.5-4.6,4.4c-6.4,2.9-17.8,2.5-22.1-5.2c-2.6-4.8-3-9.8-0.6-14.4c2.4-4.4,5.2-8.6,8.5-12.4
							c1.8-2.2,4.3-3.4,7.7-1.5C582,723,587.2,721.7,589.9,726.2 M610.5,715.1c0.5-5.7,1-11.6-3.7-16c-2-1.8-4.8-2.6-7.2-4.1
							c-1.2-0.8-3-2.7-2.9-2.9c0.9-1.2,0.7-3.1,1.2-4.4c7.6,5.2,15.1,10.5,22.6,15.9c-0.8,3.1-1.7,6.2,0.5,9.6
							c1.8,2.7-2.3,5.5-5.7,6.2C610.1,720.5,610,720.2,610.5,715.1 M624.2,708l-0.9,0.9L622,707C622.7,706.9,623.4,707.4,624.2,708
							 M626.4,710c0-0.7,0.1-1.4,0.1-2.1c1.7,1.2,3.4,2.5,5.1,3.7c-0.4,0.4-0.9,0.8-1.3,1.2c-0.8,0.7-2.5,0.6-3.6,0.3
							C626.4,713,626.4,711.1,626.4,710 M569.7,624.1c-4.2,3.2-7.5,6.7-8.6,12c-0.1,0.3-2.4,0.8-3,0.4c-1.8-1.4-3.1-3.4-4.8-4.9
							c-0.6-0.5-1.7-0.4-2.6-0.5c0.2,1,0.5,1.9,0.9,2.7c2.4,3.3,4.9,6.4,7.3,9.7c0.4,0.7,0.7,1.4,0.8,2.2c-0.7,0.2-1.5,0.3-2.2,0.4
							c-1.2,0-2.4-0.3-3.6-0.4c-0.9-0.1-1.9-0.1-2.8,0.1c-0.2,1.4-0.2,2.8,0.1,4.2c0.1,0.4,1.6,0.4,2.4,0.7c1.7,0.5,3.4,1,5.1,1.5
							c-0.5,1.3-0.9,2.6-1.4,3.8l-11.2-7.7c-1.2-2.2-2.7-4.1-3.8-4.4c-0.8-0.1-1.5,0-2.3,0.2c0,0,0,0.1,0,0.1l-5.4-3.7
							c1.5-3,3.8-3.2,6.5-0.5c0.6,0.6,1.8,0.6,2.7,0.9c-0.2-0.8-0.2-1.9-0.7-2.4c-2.2-2.5-0.7-3.8,1.3-5.2c3.8-2.5,6.3-6.4,7-10.9
							c-0.1-0.9-0.3-1.8-0.6-2.6c-0.8,0.4-1.5,0.8-2.1,1.5c-1,1.5-1.7,3.2-2.7,4.7c-0.7,0.7-1.5,1.2-2.4,1.7c-0.2-1-0.3-2-0.2-3
							c2.2-7.1,9.8-11,16.9-8.8c0,0,0,0,0,0c0.6,0.2,1.1,0.4,1.7,0.7c2.3,1,4.5,2.5,7,3.1C574,620.5,571.4,622.7,569.7,624.1
							 M547.2,612.3c0.1,0.9-0.2,1.8-0.8,2.4c-5.6,3.3-6,9.2-7.6,14.6c-0.7,2.3-1.6,4.2-4.5,2.7c-4.3-0.7-4.3-3.1-3.2-5.9
							c0.3-0.7,1.1-1.5,1-2c-0.5-1.4-1.1-2.7-1.8-4c-0.5,1.1-1.1,2.2-1.6,3.4c-0.8,2.2-1.5,4.4-2.4,6.6c-0.6,0-1.2-0.1-1.7-0.4
							c-0.1-2.6-0.9-5.6,0.1-7.7c2.6-5.2,3.6-11.6,9.4-15C539.1,604.1,546.2,606.8,547.2,612.3 M502.8,617.8l-2-1.4
							c0.7-0.1,1.3-0.1,2,0C502.8,616.9,502.8,617.4,502.8,617.8 M542.3,649.3l1,0.7c1.7,3.3,0.8,7.1-2.7,10.2
							c-0.5,0.4-1.1,0.7-1.8,0.8c-3-3.2-6.1-6.4-9.2-9.6c0.5-0.7,0.9-1.4,1.3-2.1c0.9-2,1.8-4,2.6-6.1
							C536.4,645.2,539.4,647.3,542.3,649.3 M528.3,648.1c-0.3,0.8,0.5,1.9,1,3c-2.6-2.7-5.2-5.3-7.8-7.9c1.1-1.5,2-3.1,2.7-4.9
							c0.2-0.4,0.4-0.9,0.6-1.3l6.7,4.7C530.5,643.9,529.2,645.9,528.3,648.1 M478.9,600.8c2.9,0.1,5.7,1.5,7.5,3.8
							c0.8,1,1.5,2,2,3.2L478.9,600.8 M475,596.7c-0.2,0-0.5,0-0.7-0.1l-3-3c-0.8-1.2-1.6-2.5-2.4-3.8l5.3-1.2
							c0.3,1.4,0.7,2.7,1.3,4c0.4,0.8,1.4,1.6,1.3,2.4C476.5,595.8,475.8,596.5,475,596.7 M469.2,585.3c0.7-1.6,1.9-3.2,2.1-4.9
							c0.5-4.4,0.5-8.8,0.8-13.2c0-0.8,0.2-1.6,0.3-2.3c0.9,0.1,1.7,0.4,2.5,0.8c4.5,3.4,6.9,11.7,4.8,16.8c-0.2,0.5-1.2,0.7-1.9,1
							c-1.3,0.4-2,0.8-2.7,1C473.2,584.8,471.2,585.1,469.2,585.3 M469.3,568c-0.2,5.7-0.2,11.5-3.8,16.3c-0.4,0.5-1.9,0.3-3.2,0.2
							l-3.8-3.8c-1.5-3.5,0.3-7,1.8-10c1.2-2.4,4.8-3.6,7.3-5.3C468.2,566.3,469.3,567.2,469.3,568 M446.3,565c0.1,1,0,1.9-0.2,2.8
							c0,0,0,0.1-0.1,0.1c-0.6-0.6-1.2-1.3-1.7-1.9C445,565.6,445.6,565.3,446.3,565 M453,571.4c-3.2-0.5-2-2.6-1.3-4.3
							c0.5-0.3,1.1-0.4,1.7-0.3c1,1.4,2.9,3.8,2.5,4.4c-1,1.2-2.2,2.3-3.6,3.2l-1.4-1.5C451.7,572.5,452.4,572,453,571.4
							 M440.9,566.9c0.2,0.4,0.3,0.8,0.4,1.2l0.4-0.3c0.8,1,1.7,1.9,2.6,2.9l-0.5,0.7c-0.5,0.7-1.1,1.3-1.6,2c-1.3-1-2.7-2.1-4-3.1
							c0.1-3.3-0.7-6.6-2.3-9.6C437.5,562.8,439.2,564.8,440.9,566.9 M433.9,562.2c0.7,1.1,0.9,3.1,0.8,5.3c-2.5-2-5.1-3.9-7.6-5.8
							c1.3-0.4,2.6-0.8,3.8-1.2C431.7,560.3,433.4,561.3,433.9,562.2 M497.4,618l4.1,2.9c-0.3,0.5-0.5,1.1-0.7,1.7
							c0,0.1,0,0.2,0,0.2l-4.4-4.4C496.7,618.3,497.1,618.2,497.4,618 M489.1,615.6c-0.2,0.9-0.5,1.9-0.8,2.8
							c-1.6,4.3-5.2,5.2-8.1,7.2c-3.2,2.2-12.2-0.8-15.1-4.8c-1.9-2.5-0.4-9.1,3.2-11.5c2.1-1.4,5.1-3.4,7.1,1.2
							c1.5,3.5,4.1,6.5,6.3,9.7c0.4,0.5,1,0.9,1.7,1c0.2,0.1,0.9-0.5,1-0.8c1.3-5.6-8.3-16.7-13.6-15.4c-2.3,0.6-4.2,2.7-6.2,4.2
							c-1.2,0.9-2.3,1.9-3.5,2.8l-1.1-4c2.9-5.4,8.2-4.7,12.6-6.1c0.6-0.2,1.2-0.4,1.9-0.5l1.5,1.1L489.1,615.6 M468,598.8
							c-1.5,0.6-3.1,1.1-4.8,1.3c-2.3,0.3-3.4,0.1-2.1-2.3c0.8-1.6,0.9-3.6,1-5.5l6.8,5.1C468.8,597.9,468.4,598.4,468,598.8
							 M470.9,628c-0.9,0.8-2.1,1.2-3.3,0.9c-0.9-0.2-1.5-1.4-2.3-2.1c0.5-0.2,1.2-0.8,1.6-0.7C468.3,626.6,469.7,627.2,470.9,628
							 M628.2,759.8c1.6,1.6,2.6,3.6,3,5.8c0,0.2,0,0.3,0,0.5c0.3,0.3,0.5,0.7,0.5,1.1c0.6,4.3,1.2,8.8,0.7,13.1
							c-0.6,5.2-3,9.5-8.4,12.1c-6.8,3.2-13.8,3.7-20.6,1.2c-4.1-1.5-9.6-4.2-10.9-7.7c-5.1-13.4,4-29.5,17.8-32.3
							c3.1-0.6,5.4-1.9,6.6-4l11.4,10.1l-0.4-0.1L628.2,759.8 M611.6,749c-4.3-0.4-7.8-2.3-9.7-6.4c-2.1-2.5-2.5-4.2,0.6-4.1
							c0.7,0,1.4,0,2.1,0.1l0.6,0.6l9.4,8.3C613.6,748.1,612.6,749.1,611.6,749 M456.5,562.5c-0.2-1.2,0-2.4,0.4-3.5l1.2,0.5
							L456.5,562.5 M442.1,520.5c-1.5,5.8-3.2,12-6.4,17c-1.7,2.6-3.4,5.1-5.2,7.7c-0.1,0.2-0.1,0.4-0.3,0.5c-0.3,0.3-0.5,0.7-0.7,1
							c-0.2,0.3-0.4,0.7-0.7,1l-0.1,0.2l0,0c-0.1,0.1-0.1,0.2-0.2,0.3c-0.1,0.1-0.1,0.1-0.2,0.2c-0.1,0.1-0.2,0.2-0.2,0.3
							c-5.2,7.7-10.9,15.1-17,22.1c-7.7,8.6-14.2,18.8-25.2,23.9c-2,0.9-4.5,2-6.5,1.6c-1.7-0.3-2.9-2.7-4.4-4.2
							c0.5-0.4,1-0.9,1.4-1.4c0.1,0.3,0.3,0.5,0.5,0.7c3,2.7,7.2,0.7,10.2-1c3.7-2.1,6.4-6.1,9.2-9.3c3-3.6,6-7.2,8.8-10.9
							c1.4-1.8,2.8-3.7,4.2-5.6c0.6-0.8,1.1-1.5,1.7-2.3l0.5-0.7c2.7-3.3,5.5-6.4,7.9-9.8c5.1-7.5,10.1-15.1,14.8-22.9
							c1.3-2.3,1.6-5.5,1.4-8.2c-0.1-1.2-2.3-2.9-3.9-3.2c-2.3-0.5-4.9,0-7.4-0.1c-0.7,0-1.3-0.8-2-1.2c0.5-0.5,0.8-1.4,1.4-1.5
							c4.2-1.3,8.5-2.4,12.9-3.2C439.8,510.8,443.3,515.9,442.1,520.5 M437.4,504.5c-0.5,0.9-1.2,1.6-2,2.2
							c-2.3,1.7-4.6,3.3-6.9,4.8c-3.4,2.2-9.3,1.4-11.9-1.7c-3.1-3.7-6.1-7.4-9.2-11.1c-3.4-3.3-3.6-5.7,0.1-7.5
							c4.9-2.4,9.7-5.1,14.9-6.8c2-0.7,4.9,0.9,7.2,1.8C437.9,489.5,440.8,496.4,437.4,504.5 M417.3,467.8c4.1-2.6,8.7-6.8,14.8-3.7
							c3.9,1.9,4.9,4.7,2.3,8.1c-0.9,1.1-1.8,2.2-2.7,3.4c-6,2.7-11.3,5.3-16.6,7.9c-2.7,1.3-5.5,2.4-7.8,4.1
							c-2.7,2-4.8,1.4-6.5-0.7s-1.1-3.5,1.2-5.4C407.3,477.2,411.6,471.5,417.3,467.8 M391.9,450.3c0,0-0.1-0.1-0.1-0.2
							c3-1.8,5.9-3.8,8.5-6.1c3-2.6,5.7-5.5,9.2-7.4c2.5-1.4,6.6-3.3,9.4-1.8c2.2,1.1,3,4,4.2,6.2c1.8,6-3,11.7-7.4,15.4
							c-2.6,2.3-5.3,4.4-8.2,6.3c-2.7,1.6-5.7,2.7-8.7,3.2c0,0.1-0.1,0.2-0.1,0.2c-0.4,0.5-0.8,0.9-1.1,1.3
							c-0.2,0.2-0.4,0.5-0.5,0.7l-0.1,0.2l-0.2,0.2l0,0l0,0c0,0.1-0.4,0.6-0.3,0.7l0,0c0,0,0-0.1,0-0.1c0,0,0,0.1,0,0.1v0
							c0,0,0,0.1,0,0.1v0.2c0,0.1,0,0.3,0,0.3l0,0c0.1,0.2,0.1,0.4,0.2,0.6l0,0c0.1,0.1,0.1,0.2,0.2,0.3c0.1,0.2,0.3,0.5,0.5,0.7
							c0.3,0.5,0.7,0.9,1,1.3c0.6,0.7,1.2,1.5,1.8,2.3c0.4,0.6,0.3,1.4-0.2,1.9c-0.5,2.1-1.9,3.8-3.8,4.7c-2,0.7-4.9-0.1-7-1.2
							c-1.7-0.9-2.4-3.5-4-4.8c-2.5-2-1.7-3.4-0.2-5.5c1.2-1.6,2.5-3.9,2.2-5.7c-0.8-3.8,0.5-7.7,3.3-10.3
							C391.5,453.4,392.4,451.3,391.9,450.3 M384.2,446.4c0.8,1.1,0.7,1.7,1,2c3.6,4,2.9,7.6-2.2,9.3c-3.8,1.3-7.8,2.3-11.5-0.5
							c-3.4-2.3-4.3-7-2-10.4c0,0,0,0,0,0c0.4-0.6,0.8-1.1,1.4-1.5c0.4-0.4,1-1,1.5-1C376.3,444.9,380.2,445.7,384.2,446.4
							 M370.8,429.9c0.2,0.2,0.3,0.5,0.3,0.7c0.2,1.3,0.2,2.6,0.2,3.9c0,0.1,0,0.2,0,0.2c0,0.6-0.1,1.2-0.2,1.8c0,0,0,0.1,0,0.1
							c-0.1,0.6-0.2,1.3-0.3,1.9l0,0c0,0.1,0,0.3-0.1,0.4c-0.2,0.8-0.4,1.5-0.6,2.3c-0.1,0.3-0.2,0.6-0.3,0.9s-0.1,0.3-0.2,0.5
							c-0.2,0.4-0.3,0.7-0.5,1c0,0.1-0.1,0.2-0.2,0.3c-0.5,0.9-1.1,1.8-1.8,2.6l-0.1,0.1c-0.1,0.2-0.2,0.4-0.3,0.5
							c-2.7,4.3-2.8,8.1,1.7,11.3c0.7,0.5,1,2.9,0.9,3l-0.9,0.4c-0.8,0.8-1.7,1.5-2.8,2.1c-0.7,0.3-1.3,0.7-1.8,1.2
							c-0.5,0.6-1,1.2-1.6,1.7c-0.5,0.4-1.1,0.8-1.6,1.2s-1.1,1.1-1.6,1.7c-1,1.1-2.2,2-3.4,2.9c-0.4,0.3-0.8,0.7-1.2,1.1l0,0
							c-0.6,0.6-1.3,1.1-2.2,1.5c-0.3,0.1-0.6,0.1-0.9,0.1c-0.4,0.4-0.9,0.7-1.3,1.1c-0.1-2-0.6-4.1,0.2-5.9v-0.3v-0.1
							c0-0.1,0-0.2,0-0.4c0-0.5-0.1-1-0.1-1.6c-0.1-0.8-0.2-1.7-0.3-2.5s-0.3-1.6-0.4-2.4c-0.1-0.6-0.1-1.1,0-1.7l-0.1-5.8
							c0.7-0.4,1.5-0.8,2.2-1.3c8.3-5,13.8-12.1,15.6-21.7c0.3-1.4-0.6-3.1-0.9-4.6h-0.1c0-0.1,0.1-0.2,0.1-0.3c0.2-1,0.2-2,0.1-3
							c0.2,0.1,0.4,0.2,0.7,0.3C368.8,426.1,370.1,427.8,370.8,429.9 M380.3,404.5c0.1-0.1,0.3-0.3,0.4-0.5
							c-0.1,0.2,0.3-0.3,0.1-0.2c0.2-0.2,0.4-0.3,0.6-0.4c0.3-0.1,0.8-0.4,1.2-0.5c0.9-0.4,1.8-0.8,2.7-1.1c1.6-0.6,3.2-1,4.9-1.4
							c1.9-0.4,3.8-0.4,5.7-0.1c7.2,1.5,9,7.7,10.5,13.5c0.4,1.9,0.3,3.8-0.3,5.7c-1.2,3-4.4,4.6-6.1,7.2c-0.1,0.2-0.2,0.4-0.3,0.7
							c-0.9,1.1-2,1.9-3.2,2.6c-1.6,0.8-3.3,1.4-5,1.9l-10.4,3.4c-1.1-0.6-2.2-1.2-3.3-1.7c-1-0.4-1.8-1-2.6-1.8
							c-1.7-2.1-3.2-4.3-4.7-6.5c-1.8-2.6-2.8-4.9,0.2-7.6c3-2.6,5.7-5.5,8.1-8.6C379.8,407.8,380.3,406.2,380.3,404.5 M368.6,401
							c2.9,0.4,5.5,1.8,7.5,3.9c0.6,0.6-1.6,4.2-2.8,6.2c-0.8,1.2-2.4,1.9-3.3,3.1c-1.7,2.2-4.1,3.8-6.9,4.6
							c-0.5-0.2-1.1-0.4-1.6-0.5c-1.3-0.2-2.7-0.1-4,0.3c-2-0.7-3.9-1.8-5.4-3.2c-2.7-2.5-2.4-5.1,1.1-6.8c2.7-1.3,5.4-2.4,8.1-3.6
							C364.1,403.1,366.5,400.9,368.6,401 M355.5,398.5c0.9-0.7,2-1.1,3.1-1c0.7,0.1,1.4,1.7,1.3,2.6c-0.1,1-0.7,1.9-1.6,2.3
							c-2,0.4-4.1,0.7-6.1,0.8C353,401.5,354.1,399.9,355.5,398.5 M349.1,394c0,6.7,0.4,13.7-6.9,18.1c-2.1,1.3-3,4.6-4.5,6.8
							c-6.1,8.8-16.1,10-25.9,4.8c-3.3-1.8-4.5-6.6-3.1-11.7c8.4-7.1,17.5-13.3,27.3-18.4c2.1-1.1,4.1-2.4,6.2-3.5
							C347.5,387.2,349.1,388,349.1,394 M364.9,371.8l1.5-0.6c0,0.1,0,0.1,0,0.2c0.4-0.2,0.8-0.4,1.2-0.6c0.6-0.6,1.2-1.2,1.9-1.7
							c0.2-0.2,0.3-0.3,0.5-0.4c0.6-0.5,1.2-1,1.9-1.5l0.6-0.4c1.7-1.2,3.4-2.4,5.1-3.6c0.2-0.1,0.5-0.2,0.8-0.2
							c4-2.7,9.3-2.8,10.9-0.2c2.4,3.7-0.1,6.6-2.3,9.5c-4.2,5.6-10,8.5-16.2,11c0,0,0-0.1,0-0.1c-1.2,0.6-2.4,1-3.6,1.4
							c-1.1,0.3-2.3,0.6-3.4,0.9c-0.6,0.2-1.1,0.3-1.7,0.5l-0.7,0.3l-0.5,0.3c-0.2,0.1-0.5,0.2-0.8,0.2c-2.1,0.8-4.2,1.6-6.4,2.2
							c-0.2,0.1-0.5,0.2-0.6,0.5c-0.1-0.2-0.2-0.4-0.4-0.6c0.5-0.5,1-1.1,1.5-1.7c1.1-1.3,2.2-2.7,3.2-4c0.2-0.3,0.3-0.6,0.3-0.9
							c2.1-2.8,4-5.8,5.9-9l-0.1-0.3c0.1-0.1,0.1-0.1,0.2-0.2h0c0.1-0.1,0.1-0.1,0.2-0.2c0.1-0.1,0.2-0.2,0.4-0.2
							c-0.2,0.1,0.3-0.1,0.3-0.1l0.4-0.2 M338.6,361.6c0.3-0.1,0.6-0.1,0.8,0c0.4-0.1,0.9-0.3,1.3-0.3l1.1-0.2
							c0.6,0.3,1.3,0.6,2,0.8c3.1,0.8,6.3,1.8,9.5,2.4c4.5,0.8,5.4,5,6.2,8.1c0.5,1.7-2.6,4.5-4.1,6.8l-0.2,0.2
							c-0.2,0.4-0.5,0.9-0.8,1.3c0,0.3,0,0.6,0,0.9l-2.6,3.2c-0.4,0.5-0.9,1.1-1.3,1.7c-0.2-0.3-0.4-0.5-0.6-0.8
							c0-0.1-0.1-0.1-0.1-0.2c-0.3,0.1-0.5,0.2-0.8,0.2c-0.3,0-0.6,0-0.9,0c-0.2-0.1-0.5-0.1-0.7-0.2c-1.1,0.3-2.2,0.3-3.3,0.1
							c-0.1,0-0.3-0.1-0.4-0.1c-0.6,0.1-1.2,0.1-1.8-0.1c-3.9-1.3-8-2.5-11.6-4.6c-3-1.7-4.3-4.7-2.1-8.3c0.5-0.8,0.9-1.7,1.2-2.7
							c0.1,0,0.3,0.1,0.4,0.1c1.1-1.3,2.2-2.5,3.4-3.7c0.6-0.8,1.2-1.5,1.9-2.1c0.3-0.2,0.5-0.5,0.8-0.7c0.1-0.1,0.1-0.2,0.2-0.2
							C336.9,362.5,337.7,362,338.6,361.6 M328.8,353.6l4,7.6c0.1,0.2,0.3,0.4,0.5,0.6c-1.2,1.2-2.4,2.6-3.3,4
							c-0.2-3.7-0.7-7.5-1.2-11.2c-0.1-0.4-0.1-0.9,0-1.3C328.7,353.4,328.7,353.5,328.8,353.6 M343.8,330.1c0,0.3-0.1,0.5-0.2,0.8
							h0c0-0.1,0.1-0.2,0.1-0.3c1.2-1.5,2.7-2.7,4.4-3.6c0.2-0.2,0.5-0.4,0.8-0.7c1.9-1.3,3.9-2.5,6-3.6c5-2.5,11.2-5.5,16.9-4.8
							c1.3,0.1,3.3,0.9,2.7,2.5c-0.5,1.5-2,3-3,4.2c-2.1,2.7-4.3,5.3-6.8,7.7c-4.6,4.7-9.6,8.9-15,12.7c-5.1,3.6-11.7,6.3-17.8,3.8
							c-0.8-0.3-1.7,0-2,0.8c0,0,0,0,0,0c0,0,0,0.1,0,0.1h-0.2c-1.4-0.3-2.9-0.8-4.3-1.1c2.6-1.1,4.9-2.5,7.1-4.2
							c-0.2,0.6-0.3,1.3-0.3,1.9c0.6-0.2,1.2-0.4,1.8-0.8c1-1.1,1.9-2.3,3.2-3.8c0.7-1.3,1.4-2.6,2-4c0.8-1.9,2.4-4.5,2.5-6
							c0.7-0.6,1.3-1.1,2-1.7 M335.6,327.1c0.1,0.1,0.2,0.2,0.3,0.3c1.6,4.6-0.1,9.5-3.4,13c-3.9,4.2-9.8,6.5-15.3,7.7
							c-1.1,0.3-2.3,0.4-3.5,0.3c-1.5-0.4-2.9-1.1-4.1-2c-1.2-0.8-2.3-1.7-3.4-2.7c-0.6-0.6-2.6-2.2-2.6-3.1c0-0.3,1-1.2,1.3-1.5
							l1.7-2.1l3-3.6c2-2.4,4-4.8,6-7.2c0.2-0.2,0.3-0.5,0.3-0.8c0.6-0.3,1.2-0.7,1.7-1h0.2c0.4,0,0.8-0.3,1.1-0.6
							C325.8,320.4,329.3,321.4,335.6,327.1 M318.7,316.6c0.1,0.2,0.1,0.4,0.2,0.6c0,0.1,0,0.3,0.1,0.4c0,0.2,0,0.3,0.1,0.5
							c0,0.1,0,0.2,0,0.3c0,0,0,0,0,0.1c0,0-0.1,0.4-0.1,0.4s-0.2,0.4-0.1,0.2c-0.2,0.3-0.3,0.8-0.3,1.2c-0.7,0.3-1.5,0.6-2.2,1
							c-0.4,0-0.8,0-1.3,0s-1-0.1-1.5-0.1l-0.4-0.1l0.5-0.8c0.5-0.8,1.1-1.6,1.8-2.4l0.2-0.2c0,0,0,0,0.1,0c0.2-0.1,0.3-0.3,0.5-0.4
							c0.2-0.1,0.3-0.2,0.5-0.3l0.2-0.1l0.1,0c0.2-0.1,0.4-0.2,0.6-0.2l0.3-0.1h0.1l0.5,0c0.2,0,0.2,0,0.1,0h0.1
							C318.6,316.5,318.7,316.6,318.7,316.6 M335.7,290.3c4.1-3.9,11.3-7.4,16.8-6c0.4-0.1,0.9,0,1.2,0.3c2.7,2.2,6,4.3,7.9,7.2
							l1.1,0.9c4.2,7.1,2.4,11.8-5.1,14.9c-5.4,2.3-11.6,3-17.5,4c-5.7,0.9-11.4,1.2-17.1,1.9c-0.6,0.2-1.2,0.6-1.6,1.2
							c-0.4-0.9-1.2-1.5-2.2-1.6c-0.7-0.1-1.5,0-2.2,0.2c-0.1-0.2-0.2-0.5-0.3-0.7c-0.3-1-0.6-2.6,0-3.2
							C323,303,329.2,296.5,335.7,290.3 M309.4,284.6c0.3-0.1,0.6-0.3,0.8-0.6c1.3,0.1,2.6,0.3,3.9,0.7l0,0c0.2,0,0.3,0.1,0.5,0.2
							c0.1,0.1,0.1,0.1,0.2,0.1c0,0,0,0,0.2,0.1l0.2,0.1c0.3,0.1,0.7,0.3,1,0.4c0.7,0.2,1.3,0.4,1.9,0.7c0.5,0.3,0.9,0.6,1.3,1
							c1.1,0.6,2.1,1.4,2.9,2.5c1.8,2.3-0.3,5.1-1.9,6.9c-1.9,2-4.1,3.7-6.4,5.2l-1.2,0.8c-0.3,0.3-0.6,0.6-0.9,0.9
							c-0.4,0.3-0.9,0.5-1.4,0.7c-0.3,0.1-0.6,0.2-0.9,0.2l-0.1,0.1c-0.1,0.1-0.2,0.1-0.3,0.2c0,0,0,0,0,0.1
							c-0.7,0.3-1.4,0.6-2.1,0.9c-6.5,2.2-13.6-0.5-17-6.5c-0.2-0.3-0.3-0.6-0.5-0.9c0.2-0.6,0.3-1.3,0.5-2c0.8-0.9,1.5-1.9,2.1-3
							c0.8-1.4,1.9-2.6,3.2-3.4c1.4-0.7,2.8-1.3,4.3-1.8c3.3-1.2,6.6-2.5,9.9-3.7 M300.6,276.2c0.2,0.2,0.6,0.6,0.9,0.9l0.4,0.5
							l0.2,0.3l-0.1,0.1l-0.3,0.2l-0.1-0.1c-0.7-0.5-1.6-0.4-2.2,0.2c-0.2,0.3-0.3,0.7-0.3,1l0,0h-0.3c-0.3-0.1-0.1,0-0.1,0
							c-0.1,0-0.3-0.1-0.4-0.2l0,0h0l-0.2-0.1c-0.2-0.1-0.3-0.3-0.5-0.4l-0.2-0.2l-0.1-0.1c-0.1-0.2-0.3-0.3-0.4-0.5
							s-0.2-0.4-0.4-0.5l-0.1-0.2l0,0v-0.1c-0.1-0.2-0.2-0.3-0.2-0.5s-0.1-0.2-0.1-0.3l-0.1-0.3c0-0.1,0-0.1,0-0.2
							c0-0.1,0-0.3,0-0.4c0-0.1,0-0.2,0-0.2c0-0.1,0-0.1,0-0.2c0-0.2,0.1-0.5,0.1-0.7v-0.1c0-0.1,0.1-0.2,0.1-0.2
							c0.1-0.2,0.2-0.4,0.3-0.6l0.1-0.1c1.6,0.7,3,1.8,4.2,3.1 M292.2,266.4c-0.3,2.5-1.8,4.9-1.8,7.3c0,10.5-7.8,13.8-15.5,17
							c-0.7,0.3-1.5,0.6-2.2,0.8l0,0c-1.1,0.5-2.2,0.9-3.4,1c-1.1,0.1-2.2,0.2-3.2,0.4c-0.6,0-1.1,0-1.7,0h-0.4
							c-0.3,0-0.5,0-0.8,0.1c-0.1,0-0.3,0-0.4,0c-5.4,0.5-10.8-0.5-15.6-2.9c-2.3-1.1-5.7-2.9-6.8-5.2l-0.1-0.2
							c0.1-0.7,0.3-1.4,0.7-2c3.5-6,9.1-9,15.4-11.6c10-4.1,20-8,31-9c4-0.4,5.5,0.9,5,4.5 M312.8,241.3c4.1-0.5,9-0.9,12.5,0.8
							c7.2,3.5,13,16.5,8.2,24.5c-3.2,5.3-8.3,6.6-13.4,7.7c-7,1.6-13.2-0.6-18.8-5c-1.5-1-3.1-1.9-4.8-2.7c-2.7-5.6,0.4-8,3.8-10.8
							c2.6-2.1,5.2-4.9,6.3-8C307.8,244.4,309.5,241.7,312.8,241.3 M301.4,238.9c1.5,2.2,2.1,6.4,0.9,8.6
							c-4.3,8.4-13.6,13.1-23.2,12.5c-0.4,0-0.8,0-1.1,0c-0.3,0-0.6-0.1-0.9-0.2l0,0c-0.8-0.3-1.5-0.8-2.1-1.4H275h-0.1l-0.5-0.3
							c-0.3-0.2-0.5-0.4-0.8-0.6s-0.3-0.3-0.4-0.4c0.2,0.2-0.1-0.1-0.1-0.1c-0.3-0.3-0.5-0.6-0.7-0.9l-0.4-0.6v-0.1
							c-0.7-0.6-1.2-1.4-1.6-2.2h-0.2c-0.7-2.2-1.1-4.6-1.1-6.9c0.2-5.1,9-12.3,13.3-11.8c3.8,0.5,7.6,0.3,11.3,1
							c2.7,0.5,6.3,1.4,7.6,3.3 M283.9,217c1,1.7,2,3.5,3,5.2c0.7,1.3,1.2,2.7,1.5,4.1c0.3,1.4-0.2,2.8-1.2,3.7
							c-1.1,0.9-2.6,1.2-3.9,0.6c-1-0.4-1.9-1-2.7-1.5c-1-0.6-2.1-1.1-3.1-1.8c-1.6-1-3.4-2.3-3.8-4.3c-0.1-0.3-0.2-0.6-0.4-0.8
							c0.1-0.6,0.2-1.3,0.5-1.9c0.7-1.8,1.8-3.5,2.4-5.4c0.1-0.6,0.5-1.1,1.1-1.4c0.8-0.1,1.6-0.1,2.3,0.2c0.8,0.2,1.5,0.5,2.3,0.8
							C282.8,215.3,283.5,216,283.9,217 M272.3,212.8c-0.7,0.7-0.8,1.9-1.2,2.9c-2.8,7.7-6.5,14.8-13.8,19.2s-14.7,8.4-23.3,3.7
							h-0.2c-0.2,0-0.3-0.1-0.4-0.2l-0.1-0.1c-1.3-0.6-2.5-1.4-3.5-2.3c-0.9-0.7-1.7-1.5-2.4-2.4l-0.2-0.2l0,0v-0.1
							c-0.6-0.8-0.7-1.8-0.3-2.8c-0.7-5.4-1.6-10.8-1.4-16.1c0.1-2.8,2.9-6.1,5.3-8.1c3.9-3.3,8.3-6.6,13-8.4
							c6.5-2.5,13.3-6,20.5-5.1c0,0,0,0.1,0.1,0.1c1.8,0,3.6,0.6,5.1,1.6c1,0.7,1.8,1.8,2.3,2.9c0.9,1.3,1.8,2.6,2.5,3.9
							c0.1,0.2,0.3,0.4,0.6,0.5C276.3,205.8,275.6,209.4,272.3,212.8 M282.4,199.9c3.6-6.8,9.1-11.2,15.1-15.4c4.4-3,8.5-5.4,13.6-4
							v0h0.1l0.2,0l0.4,0.1c0.5,0.1,0.9,0.3,1.4,0.5c0.1,0.1,0.2,0.2,0.4,0.2s0,0,0.1,0c0.9,0.5,1.8,1.1,2.5,1.8
							c0.5,0.4,1,0.9,1.5,1.3c0.2,0.2,0.4,0.4,0.6,0.6s0.3,0.3,0.4,0.5c0.2,0.2,0.3,0.4,0.5,0.6c0.1,0.2,0.3,0.4,0.4,0.6l0.1,0.1
							c5.5,7.4,3.8,16.9-0.6,21.7c-7.1,7.7-21.9,11.3-31.4,7.4c-0.3-0.1-0.6-0.2-0.9-0.4c0,0,0-0.1-0.1-0.1
							c-0.6-1.3-1.5-2.4-2.7-3.2c-0.9-0.6-1.9-1-3-1.3C278.9,207.9,279.3,203.9,282.4,199.9 M279.1,172.1c0.5,0.6,0.9,1.2,1.3,1.8
							c0.7,1.3,2.2,2.1,3,3.4c2.1,3.3-0.5,10.4-4.7,11.4c-3.8,1-8,0.4-12,0.5c-3,0.1-5.9,0.1-9,0.1c-0.1-0.3-0.2-0.5-0.4-0.7
							c-0.2-0.2-0.4-0.3-0.6-0.5c-0.1-0.1-0.2-0.1-0.2-0.2l0-0.1c-0.3-0.4-0.6-0.8-0.9-1.2c-0.1-0.2-0.2-0.4-0.4-0.6
							c0,0,0-0.1,0-0.1l-0.2-0.4c-0.2-0.5-0.4-0.9-0.5-1.4c0.2-4.3,1.8-8.5,4.7-11.7c4.4-4.4,11.1-5.5,16.7-2.9l0,0
							c0.2,0.1,0.3,0.1,0.5,0.2l-0.2-0.1l0.4,0.2l0,0l0.9,0.4c0.3,0.1,0.5,0.3,0.7,0.4C278.6,171.1,278.9,171.6,279.1,172.1
							 M275.3,155.6c0.6,1,1.2,2.1,1.9,3.1l1.9,3.1c0.3,0.5,0.6,1,0.9,1.5c0,0.3,0.1,0.6,0.1,0.9c-0.2,0.9-0.7,1.7-1.3,2.3
							c-0.3,0.4-0.6,0.7-0.9,1c-4.7-2.5-12.7-2.8-16.8-0.7c-1.5,0.8-3.5,0.7-5.2,1c1-1.5,1.7-3.5,3.1-4.3c4.9-2.8,8.3-6.4,9.9-10.8
							c0.6,0.1,1.3,0.2,1.9,0.2c0.8-0.1,1.6-0.1,2.3,0.1C274.1,153.7,274.9,154.6,275.3,155.6 M266.2,143.4
							c0.4,6.6-1.6,11.8-7.4,16.1c-6.8,5-13.8,8.1-22.2,8.6c-4.5,0.3-7.7-1.6-9.2-5c-1-2.3,0.2-5.7,0.5-8.6c2.1-4.6,5.5-8.4,9.8-11
							c8.5-5.5,17-4.4,25.8-2.8C264.8,141,265.8,142.1,266.2,143.4 M286.3,122.6l0.6-0.3c0.5-0.6,1.1-1.2,1.8-1.6v-0.1
							c3-1.6,6-3.1,8.9-4.9c5.3-3.3,10.4-3.6,15.7-0.1c0.1,0.1,0.2,0.1,0.4,0.2c1.6,1,3,2.2,4.2,3.6c0,0.1,0.1,0.1,0.1,0.2
							c0.1,0.8,0.3,1.5,0.7,2.2c0.4,0.6,0.7,1.2,1,1.8l0,0c0,0.3,0.2,0.6,0.4,0.8c4.4,10.2-1.6,18-11.1,23.4c-8.2,4.6-17.3,1.8-26-1
							c-0.2,0-0.4-0.1-0.6-0.1c-0.2,0-0.4-0.1-0.5-0.1l-0.4-0.1l-0.5-0.1l-0.5-0.2l-0.3-0.1c-0.2-0.1-0.4-0.2-0.6-0.3l-0.5-0.2
							c-2.3-1.2-4.5-2.6-6.6-4.1c-1.1-0.5-2.1-1.1-3-1.9c0.4-1.6,1.5-2.7,3.1-4.1c2.6-2.4,5.7-4.4,7.9-7c0.3-0.1,0.6-0.3,0.8-0.5
							c0.9-1,1.8-1.9,2.8-2.8c0.6-1,1.4-1.8,2.3-2.4 M273.8,106.1c7.6,7.5,8.8,14.4,1.9,21.6c-1.2,1.3-2.9,2.2-4.1,3.6
							c-4.5,5.3-14.2,7.6-20.4,4.5c-0.9-0.4-1.5-1.9-1.7-3c-1.1-5.2-0.5-10.6,1.7-15.3c0-0.2,0.1-0.3,0.2-0.5l0-0.1
							c0.1-0.1,0.1-0.3,0.2-0.4l0.1-0.2c0.1-0.1,0.1-0.2,0.2-0.3l0.2-0.2l0.2-0.3l0.2-0.3c0.2-0.4,0.4-0.7,0.7-1.1
							c0.2-0.3,0.5-0.6,0.7-0.9c1.7-2.9,3.7-5.5,5.9-8c1.3-1.5,2.8-3,4.8-3.5c0.4-0.1,0.8-0.1,1.2-0.1c0.3,0.2,0.5,0.4,0.8,0.5
							C269,103.4,271.9,104.2,273.8,106.1 M264.1,98.6c-0.8,0.2-1.6,0.5-2.4,0.9c0.3-0.5,0.7-1.1,1-1.6c0.2-0.3,0.4-0.6,0.6-0.9
							C263.5,97.6,263.7,98.1,264.1,98.6 M234.3,111.9C234.3,111.9,234.3,111.9,234.3,111.9L234.3,111.9c-0.7-0.2-1.3-0.5-1.8-0.9
							c-1.1-0.8-2.2-1.6-3.2-2.5c0,0-0.1-0.1-0.1-0.1c-0.2-0.1-0.4-0.2-0.5-0.3c-1.8-1.3-2.8-3.4-2.8-5.6c-0.3-4.2,1.4-8.6,3.7-12.1
							c2.4-3.6,5.6-6.4,9.5-8.3c2.1-0.9,4.3-1.6,6.6-2.2c2.3-0.7,4.4-1.9,6.8-2.2c0.2,0,0.4-0.1,0.5-0.2c2.2,0,4.5,0,6.7,0
							c5.1,0,6.3,1.4,5.1,6.3c-0.9,3.8-2.1,7.4-3.6,11C255.6,107.6,245.4,112.4,234.3,111.9 M270.5,91.6c0,0.2,0.1,0.4,0.2,0.6v0.1
							c0,0.1,0,0.2,0,0.2c0.1,0.4,0.1,0.8,0.2,1.1c0,0.6-0.1,1.2-0.3,1.8l-0.1,0.2l0,0c-0.1,0.2-0.3,0.4-0.4,0.5s-0.2,0.3-0.4,0.4
							l-0.2,0.2v0.1l0,0c-0.2,0.1-0.3,0.2-0.4,0.3c-0.1,0.1-0.1,0.1-0.2,0.1h-0.1l-0.2,0.1h-0.1l0,0H268c0.3,0,0,0-0.2,0h-0.1
							c0,0,0,0-0.1,0c-0.1,0-0.3-0.1-0.4-0.2l0,0l-0.2-0.1l-0.2-0.1l0,0c-0.1-0.1-0.2-0.2-0.3-0.4l0,0l0,0l0,0c0-0.1,0-0.1,0-0.1
							l0,0v-0.1c0-0.1,0-0.1,0-0.2c-0.1-0.6-0.5-1.1-1.1-1.3c0.5-0.2,0.9-0.7,1-1.2c0,0,0-0.1,0-0.1l0.1-0.2c0-0.1,0.1-0.3,0.2-0.4
							l0,0l0.1-0.1c0.1-0.2,0.2-0.3,0.4-0.5l0.1-0.1l0,0c0.1-0.1,0.3-0.2,0.4-0.3s0.3-0.2,0.5-0.3c-0.2,0.2,0.1-0.1,0.2-0.1
							c0.3-0.1,0.7-0.3,1-0.3h0.2l0,0l0.6-0.1h0.2c0.1,0.2,0.1,0.4,0.2,0.6 M267.9,88.3c-0.2,0.1-0.3,0.1-0.5,0.2c0-0.3,0-0.7-0.1-1
							c0.8,0.2,1.8,0.2,2.5,0.4C269.2,88,268.6,88.1,267.9,88.3 M315.1,71.3c6.2,5.3,4.4,14.4-0.4,18.8s-10.6,7-16.5,9.7
							c-2.5,1.3-5.2,2.1-7.9,2.4c-0.2,0-0.4,0.1-0.5,0.1h-0.3c-0.1,0-0.3,0-0.4,0c-0.2,0-0.3-0.1-0.5-0.1c-1.3-0.3-2.6-0.8-3.8-1.5
							c-1.2-0.7-2.4-1.5-3.5-2.5c-1-0.8-1.8-1.9-2.7-2.7c-0.1-0.1-0.1-0.1-0.2-0.2h-0.1c-1.6-2.4-3.2-4.7-4.9-7.3
							c-0.4-0.8-0.9-1.5-1.5-2.1c-4-3.9-3.5-6.8,1.6-9.2c5.4-2.5,10.8-5,16.1-7.6C298.3,64.6,308.1,65.5,315.1,71.3 M284.5,54.8
							c1.3-0.1,2.6-0.3,3.9-0.3l1.3,0.1h0.2c0.9,0.3,1.1,1,1.4,2.3c0.6,2.3,1.5,4.5,2.8,6.5c-0.3,0.1-0.7,0.3-1.1,0.4
							c-4.3,2.2-8.5,5-13.1,6.5c-6.9,2.3-13.2,7.5-21.4,4.1c-2.2-0.9-5.2-0.2-7.8,0.1c-0.1-0.3-0.2-0.5-0.4-0.7
							c-2-1.9-2.6-4.9-1.5-7.5c1.5-1.6,2.8-3.3,3.9-5.1c0.1-0.1,0.1-0.2,0.2-0.3c3.3-2.4,7.4-3.3,11.4-3.9c2,0.4,4.3-0.2,6.4-0.5
							c0.2,0,0.3-0.2,0.4-0.3C275.5,55.6,280,55.2,284.5,54.8 M272,45.3c0,1-0.2,2-0.6,2.9c-1.4,0.8-2.6,2-3.3,3.4
							c-0.3,0.5-0.2,1.2,0.2,1.6c-1,0.1-1.9,0.3-2.9,0.4c-0.9,0-1.9-0.1-2.8-0.1c-1.7,0-3.9-0.5-5,0.3c-0.5,0.4-1,0.8-1.5,1.2
							c-5.5-2.4-11-4.7-16.3-7.2c-2.5-1.2-4.8-2.7-6-5.3c-1-2.1-1.2-4.5-0.7-6.8c0-0.2,0.1-0.5,0.2-0.7c2.4-2.7,5.1-5,7.7-7.5
							c0.9-0.3,1.9-0.6,2.9-0.7c1.9-0.4,3.9-0.4,5.9-0.2c0.1,0,0.2-0.1,0.3-0.1l0,0c0.2,0,0.3,0,0.5,0h0.1c0.2,0,0.3,0.1,0.5,0.2
							c0.9,0.6,1.9,1,2.9,1.3l0,0h0.1c1.1,0.4,2.2,0.8,3.1,1.5c0.4,0.2,0.7,0.5,1,0.8c0.1,0.1,0.2,0.2,0.2,0.2
							c0.2,0.3,0.5,0.5,0.7,0.8c0.3,0.3,0.5,0.7,0.8,1c2.6,1.9,5.2,3.8,7.7,5.8c1.8,1.4,4.3,3.4,4.1,6C271.6,44.5,271.8,45,272,45.3
							 M314,21c2.2,7-3.9,16.9-10.9,19c-3.1,0.9-6.2,1.7-9.3,2.5l-1,0.5l-0.3,0.1c-0.4,0.2-0.8,0.3-1.2,0.4
							c-1.1,0.3-2.3,0.5-3.5,0.6c-0.7,0.1-1.3,0.1-1.9,0.2c-2.3,0.6-4.6,1.1-6.9,1.6c-1.1,0.2-2.3,0.4-3.4,0.7
							c1.9-2.1,4.9-4.3,0.5-7.2c-0.4-0.2-0.3-2,0.2-2.5c5.9-7.4,11.5-15.2,18-22c3.8-4,9.1-4.6,14.9-3.1
							C314.8,13.2,313.1,17.9,314,21"/>
					</g>
					<g id="Group_21">
						<path id="Path_15" class="st2" d="M312.7,320.7L312.7,320.7C312.6,320.7,312.6,320.7,312.7,320.7"/>
					</g>
					<g id="Group_23">
						<path id="Path_17" class="st2" d="M296.4,273.3C296.5,273.2,296.4,273.3,296.4,273.3L296.4,273.3"/>
					</g>
					<g id="Group_24">
						<path id="Path_18" class="st2" d="M298,270.3l0.3,0.2C298.2,270.5,298.1,270.5,298,270.3C298,270.4,298,270.4,298,270.3"/>
					</g>
					<g id="Group_25">
						<path id="Path_19" class="st2" d="M295,270.2c0.2-0.2,0.4-0.3,0.6-0.4C295.4,269.9,295.2,270.1,295,270.2"/>
					</g>
					<g id="Group_26">
						<path id="Path_20" class="st2" d="M302.2,278L302.2,278"/>
					</g>
					<g id="Group_27">
						<path id="Path_21" class="st2" d="M270.2,90.7L270.2,90.7C270.2,90.7,270.1,90.4,270.2,90.7"/>
					</g>
					<g id="Group_30">
						<path id="Path_24" class="st2" d="M266.4,96.6L266.4,96.6c0-0.1,0-0.1-0.1-0.1L266.4,96.6"/>
					</g>
				</g>
			</g>
		</g>
	</g>
</g>
</svg>
