<?xml version="1.0" encoding="utf-8"?>
<!-- Generator: Adobe Illustrator 24.0.0, SVG Export Plug-In . SVG Version: 6.00 Build 0)  -->
<svg version="1.1" id="Layer_1" xmlns="http://www.w3.org/2000/svg" xmlns:xlink="http://www.w3.org/1999/xlink" x="0px" y="0px"
	 viewBox="0 0 277.2 248" style="enable-background:new 0 0 277.2 248;" xml:space="preserve">
<style type="text/css">
	.st0{fill:#393B25;}
</style>
<g>
	<title>SVGS</title>
	<path class="st0" d="M123.7,248c-15.1,0-27.4-12.3-27.4-27.4c0-15.1,12.3-27.4,27.4-27.4s27.4,12.3,27.4,27.4
		C151.1,235.7,138.8,248,123.7,248z M123.7,213.1c-4.1,0-7.4,3.3-7.4,7.4s3.3,7.4,7.4,7.4s7.4-3.3,7.4-7.4S127.8,213.1,123.7,213.1z
		"/>
	<path class="st0" d="M191.3,248c-15.1,0-27.4-12.3-27.4-27.4c0-15.1,12.3-27.4,27.4-27.4c15.1,0,27.4,12.3,27.4,27.4
		C218.8,235.7,206.4,248,191.3,248z M191.3,213.1c-4.1,0-7.4,3.3-7.4,7.4s3.3,7.4,7.4,7.4s7.4-3.3,7.4-7.4S195.4,213.1,191.3,213.1z
		"/>
	<path class="st0" d="M233,183H82c-4.8,0-8.9-3.4-9.8-8.1l-6.5-34.3c-0.2-0.5-0.4-1.1-0.5-1.7L42.7,20H10C4.5,20,0,15.5,0,10
		S4.5,0,10,0h41c0,0,0.1,0,0.1,0c0,0,0,0,0,0c0,0,0,0,0,0c0,0,0,0,0,0c0,0,0,0,0,0c0,0,0,0,0,0c0,0,0,0,0,0c0,0,0,0,0,0
		c0,0,0,0,0.1,0c0,0,0,0,0,0c4.7,0.1,8.7,3.5,9.5,8.1l2.5,12.9l204,1.2c3.1,0,6,1.4,7.8,3.9s2.5,5.6,1.8,8.6l-26.2,104.7
		c-1.1,4.4-5.1,7.6-9.7,7.6H87.2l3,16H233c5.5,0,10,4.5,10,10S238.5,183,233,183z M83.4,127h149.8l21.2-84.8L67.1,41.1L83.4,127z"/>
</g>
</svg>
