<?xml version="1.0" encoding="utf-8"?>
<!-- Generator: Adobe Illustrator 24.0.0, SVG Export Plug-In . SVG Version: 6.00 Build 0)  -->
<svg version="1.1" id="Layer_1" xmlns="http://www.w3.org/2000/svg" xmlns:xlink="http://www.w3.org/1999/xlink" x="0px" y="0px"
	 viewBox="0 0 288.3 288.4" style="enable-background:new 0 0 288.3 288.4;" xml:space="preserve">
<style type="text/css">
	.st0{fill-rule:evenodd;clip-rule:evenodd;fill:#393B25;}
</style>
<title>SVGS</title>
<path id="Path_3" class="st0" d="M144.2,25.9c19.2-0.7,38.4-0.2,57.6,1.6c9.3-0.1,18.5,1.5,27.2,4.8c12,5.6,21.6,15.2,27.2,27.2
	c3.3,8.7,4.9,17.9,4.8,27.2c0,14.4,1.6,19.2,1.6,57.6c0.7,19.2,0.2,38.4-1.6,57.6c0.1,9.3-1.5,18.5-4.8,27.2
	c-5.6,12-15.2,21.6-27.2,27.2c-8.7,3.3-17.9,4.9-27.2,4.8c-14.4,0-19.2,1.6-57.6,1.6c-19.2,0.7-38.4,0.2-57.6-1.6
	c-9.3,0.1-18.5-1.5-27.2-4.8c-12-5.6-21.6-15.2-27.2-27.2c-3.3-8.7-4.9-17.9-4.8-27.2c0-14.4-1.6-19.2-1.6-57.6
	c-0.7-19.2-0.2-38.4,1.6-57.6c-0.1-9.3,1.5-18.5,4.8-27.2c2.8-5.9,6.6-11.3,11.2-16c3.8-5.6,9.5-9.6,16-11.2
	c8.7-3.3,17.9-4.9,27.2-4.8C105.8,25.7,125,25.2,144.2,25.9 M144.2,0.3C124.5-0.4,104.7,0.2,85,1.9c-12,0-23.9,2.2-35.2,6.4
	c-9.7,3.2-18.5,8.7-25.6,16c-7.3,7.1-12.8,15.9-16,25.5C3.3,60.9,1.1,73,1.9,85c-1.8,19.7-2.3,39.4-1.6,59.1
	c-0.7,19.7-0.2,39.5,1.6,59.2c0,12,2.2,23.9,6.4,35.2c3.2,9.7,8.7,18.5,16,25.6c7.1,7.3,15.9,12.8,25.6,16
	c11.2,4.3,23.1,6.4,35.2,6.4c19.7,1.8,39.4,2.3,59.2,1.6c19.7,0.7,39.5,0.2,59.2-1.6c12,0,23.9-2.1,35.2-6.4
	c19.5-6.7,34.9-22,41.6-41.6c4.3-11.2,6.4-23.2,6.4-35.2c0-16,1.6-20.8,1.6-59.1c0.7-19.7,0.2-39.5-1.6-59.2c0-12-2.1-24-6.4-35.2
	c-3.2-9.7-8.7-18.5-16-25.5c-7.1-7.3-15.9-12.8-25.5-16c-11.2-4.3-23.2-6.4-35.2-6.4C183.7,0.1,163.9-0.4,144.2,0.3 M144.2,70.6
	c-39.9-0.7-72.9,31.2-73.5,71.1c0,0,0,0,0,0c0,0.8,0,1.6,0,2.4c0,40.6,32.9,73.5,73.5,73.6s73.5-32.9,73.6-73.5
	S184.8,70.7,144.2,70.6L144.2,70.6L144.2,70.6 M144.2,192.1c-26,0.5-47.5-20.2-48-46.2c0,0,0,0,0,0c0-0.6,0-1.1,0-1.7
	c-0.5-26,20.2-47.5,46.2-48c0,0,0,0,0,0c0.6,0,1.1,0,1.7,0c26-0.5,47.5,20.2,48,46.2c0,0,0,0,0,0c0,0.6,0,1.1,0,1.7
	c0.5,26-20.2,47.5-46.2,48c0,0,0,0,0,0H144.2 M220.9,49.8c-9.7,0-17.6,7.9-17.6,17.6c0,9.7,7.9,17.6,17.6,17.6
	c9.7,0,17.6-7.9,17.6-17.6C238.6,57.7,230.7,49.9,220.9,49.8C221,49.8,221,49.8,220.9,49.8"/>
</svg>
