<?xml version="1.0" encoding="utf-8"?>
<!-- Generator: Adobe Illustrator 24.0.0, SVG Export Plug-In . SVG Version: 6.00 Build 0)  -->
<svg version="1.1" id="Layer_1" xmlns="http://www.w3.org/2000/svg" xmlns:xlink="http://www.w3.org/1999/xlink" x="0px" y="0px"
	 viewBox="0 0 268.2 268" style="enable-background:new 0 0 268.2 268;" xml:space="preserve">
<style type="text/css">
	.st0{fill:#393B25;}
</style>
<title>SVGS</title>
<g id="Group_34" transform="translate(0 -952.36)">
	<path id="Path_199" class="st0" d="M108.1,952.4c-59.6-0.1-108,48.2-108.1,107.8c-0.1,59.6,48.2,108,107.8,108.1
		c24.9,0,49-8.5,68.3-24.2l73,73c4.4,4.4,11.4,4.4,15.8,0c4.3-4.3,4.4-11.3,0-15.7c0,0,0,0,0,0l-73-73
		c37.6-46.2,30.6-114.2-15.6-151.8C157,960.9,133,952.3,108.1,952.4z M108.1,974.7c47.3,0,85.6,38.4,85.6,85.7
		c0,47.3-38.4,85.6-85.7,85.6c-47.3,0-85.6-38.3-85.6-85.6c-0.1-47.2,38.1-85.5,85.3-85.6C107.9,974.7,108,974.7,108.1,974.7
		L108.1,974.7z"/>
</g>
</svg>
