<?xml version="1.0" encoding="utf-8"?>
<!-- Generator: Adobe Illustrator 24.0.0, SVG Export Plug-In . SVG Version: 6.00 Build 0)  -->
<svg version="1.1" id="Layer_1" xmlns="http://www.w3.org/2000/svg" xmlns:xlink="http://www.w3.org/1999/xlink" x="0px" y="0px"
	 viewBox="0 0 294.4 183.5" style="enable-background:new 0 0 294.4 183.5;" xml:space="preserve">
<style type="text/css">
	.st0{clip-path:url(#SVGID_2_);}
	.st1{clip-path:url(#SVGID_4_);}
	.st2{fill:#9D9D67;}
</style>
<title>SVGS</title>
<g>
	<defs>
		<rect id="SVGID_1_" x="0" width="294.4" height="183.5"/>
	</defs>
	<clipPath id="SVGID_2_">
		<use xlink:href="#SVGID_1_"  style="overflow:visible;"/>
	</clipPath>
	<g id="Group_33" class="st0">
		<g>
			<defs>
				
					<rect id="SVGID_3_" x="-608.2" y="45.1" transform="matrix(0.5 -0.866 0.866 0.5 -339.4645 29.0342)" width="927.3" height="526.8"/>
			</defs>
			<clipPath id="SVGID_4_">
				<use xlink:href="#SVGID_3_"  style="overflow:visible;"/>
			</clipPath>
			<g class="st1">
				<g id="Group_31">
					<g id="Group_20">
						<path id="Path_14" class="st2" d="M292.6,74.7c0-0.1,0-0.3-0.1-0.4c-0.3-1.4-0.8-2.8-1.3-4.1c-0.2-0.7-0.5-1.4-0.8-2l-0.4-0.6
							c-0.6-0.5-1.1-1-1.6-1.5c-4.5-6.3-11.2-9.5-17.8-13c-0.9-0.5-1.7-1.2-2.4-1.8c0.9-0.5,1.9-1,2.8-1.4
							c5.5-1.9,11.2-3.3,16.5-5.7c2.2-1,4.1-3.9,5-6.3c0.5-1.4-0.7-4.8-2-5.2c-2.8-1.2-5.9-1.5-8.9-1c-8.6,1.8-15.6,6.9-22.5,12
							c1.1-2,2-4.2,2.9-5.9c1.8-3.1,3.4-6.2,4.8-9.5c1.1-3.1,1.3-6.4,0.5-9.5c-0.2-0.8-0.4-1.5-0.6-2.3c-0.8-1.2-1.4-2.5-1.9-3.9
							c0-0.1-0.1-0.2-0.1-0.3l0,0c-0.3-0.6-0.6-1.1-0.9-1.7c-0.3-0.5-0.7-0.9-1.1-1.3l0,0L262.7,9l-0.2-0.1
							c-0.3-0.2-0.5-0.5-0.6-0.8c-1.3-1.3-2.9-2.2-4.7-2.8c-0.2-0.1-0.4-0.1-0.6-0.2c-0.5-0.3-1-0.6-1.6-0.9
							c-2.6-1.3-6.8-4.3-9.9-0.6c-4.4,5.2-7.9,10.9-7.6,18.3l-2.3,8.7c-1.5-1.9-3.3-3.5-5.5-4.6c-4.6-2.3-10.3-1.5-13.6,2.6
							c-0.6-1-1.2-2.1-1.7-3.2c-1.1-2.5-2.4-4.8-3.9-7.1c-2.9-3.9-6.7-6.9-11.2-8.7c-2.1-0.9-4.4-1.5-6.7-1.8c-1-0.3-2-0.5-3-0.6
							c-4-1-7.6-0.2-10.1,3.3c-0.3,0.5-0.5,1.1-0.5,1.7c-0.7,1.5-1.3,3.1-1.8,4.7l0,0v0.1c0,0,0,0,0,0.1l0,0l0.1-0.2
							c0,0.1-0.1,0.3-0.1,0.4c0,0.3-0.1,0.6-0.2,0.9c-0.1,0.3-0.2,0.7-0.3,1c-0.1,0.6-0.2,1.2-0.3,1.7c0,0.1,0,0.2-0.1,0.3s0,0,0,0
							c0.2,2.6,0.6,5.3,1.4,7.8c1,3.1,2.9,5.9,4.4,8.7c-1.5-0.6-3.1-1-4.6-1.3c-0.3-0.1-0.5,0-0.8,0.1c-5-2.3-10.8-2.3-15.8-0.1
							c-4.1,1.7-5.5,0.3-7.1-2.6c-3.8-6.5-8.8-11.6-16-14.2c-11.2-4.1-17.3-0.6-17.4,12c-0.1,4.8,3.2,9.5,4.9,14.3
							c0.4,1.1,0.9,3.1,0.4,3.5c-1.2,1-2.8,1.5-4.4,1.6c-1.4,0-2.9-0.8-4.3-1.3c-3.3-1-5.9-1.2-7.9-0.5c-0.3,0-0.5,0-0.8,0.2
							c-1.5,0.7-2.9,1.8-4,3.1c-1.2-1.1-2.5-1.9-3.2-3c-2.7-4.3-4.6-9.2-8-12.9c-3.6-4.2-8.1-7.8-13-10.4c-8.2-4-15.5,0.4-22.8,3.8
							c-0.1,0.1-0.2,0.3-0.4,0.4c-0.4,0.3-0.8,0.6-1.2,1l-0.4,0.4c-0.2,0.2-0.4,0.5-0.6,0.7c-0.9,1.1-1.6,2.3-2.2,3.6
							c-0.3,0.6-0.5,1.2-0.8,1.8l0,0c-0.3,0.6-0.5,1.3-0.8,1.9c-0.1,0.2-0.1,0.3-0.2,0.5l0,0c-0.3,0.7-0.6,1.5-0.6,2.3l0,0l0,0l0,0
							l0,0c0,0.2-0.1,0.3-0.1,0.5c-0.9,3.1-0.7,6.3,0.4,9.3C53.3,58.8,57,65,62.9,68.9c2.9,1.9,5.7,4.2,8.8,5.8
							c-0.5,0.4-0.9,0.9-1.3,1.4c-0.1,0.2-0.2,0.3-0.2,0.5c-0.6,0.7-1.1,1.5-1.5,2.3c-0.6,1.3-1.1,2.6-1.6,3.9
							c-0.1-1-0.2-2.1-0.3-3.1c-0.3-0.1-0.5-0.2-0.7-0.4c-0.2-0.2-0.4-0.4-0.7-0.6l-0.2-0.1L65,78.3c-0.5-0.3-1-0.6-1.5-0.9h0
							c-2.9-0.1-5.1-2.1-7.7-3.2c-5.3-2.4-11.5-0.9-15,3.6c0,0-0.1,0.1-0.1,0.1c-1.6,1.4-2.9,3.1-3.6,5.2l-0.4,0.1
							c-0.3,0.1-0.9-0.6-1.4-1.3c-1.8-3.9-3.3-7.6-5.1-11c-4-7.6-9.6-13.9-15.9-19.7c-2.9-2.7-5.7-1.6-8.3,0.4
							c-0.3,0.2-0.5,0.5-0.6,0.9c-1.5,1.9-2.6,4.1-3.3,6.4c-2.4,6.6-2.5,13.8-0.5,20.5c0,0.1,0,0.1,0,0.2c0.8,7.2,5.4,12.4,9.8,17.6
							c3.4,4,8.2,6.6,13.4,7.2c-1.9,0.8-3.5,2.2-4.4,4.1c-0.6,1.1-0.8,2.4-0.4,3.6c0.1,0.5,0.3,0.9,0.6,1.3l-0.4,0.4
							c-0.3,0.3-0.7,0.7-1,1c-0.9-1.6-1.8-3.1-2.7-4.7c-0.7-1.4-1.5-2.7-2.5-3.9c-0.8-0.9-1.7-1.6-2.7-2.1h0.1
							c-0.4-0.3-0.9-0.5-1.3-0.8s-1-0.4-1.5-0.7c-0.2-0.1-0.5-0.3-0.7-0.4H7.5c-1.9-1.1-3.7-2.2-5.9-0.9c-2.4,1.4-4.3,3.5-5.7,5.9
							c-2.8,4.8-3.1,10.7-0.9,15.7c0.2,0.4,0.4,0.8,0.7,1.2c-0.1,0.2-0.2,0.4-0.2,0.6c0.2,2.1,1.4,3.3,2.9,3.4c0.8,1,1.7,2,2.6,2.9
							c1.1,1.2,2.2,2.3,3.4,3.4c-1.4-1-3-1.8-4.6-2.3c-3.8-1.1-6-2.6-7.3-5.6c-1.1-5.1-2.7-10-4.8-14.7c-0.2-0.7-0.4-1.3-0.5-2
							c-1.2-1.9-2.3-3.9-3.2-6c0,0,0,0.1,0,0.1c-2.1-4.1-4.4-8.1-6.7-12.1l-0.2-0.3l0.4,0.1c-0.5-1.5-1.4-2.9-2.6-4
							c-0.1,0-0.1-0.1-0.2-0.2l-0.1-0.2c-0.1-0.2-0.2-0.5-0.1-0.8c-0.4-0.4-0.7-0.8-1.1-1.2c-0.2-0.2-0.4-0.4-0.5-0.6
							c-0.1-0.1-0.2-0.2-0.2-0.3c0,0,0-0.1,0-0.1c0-0.1-0.1-0.2-0.1-0.3c-1.1-1.5-2.2-3-3.5-4.4c-3-3.2-7.1-5.5-11.6-4.9
							c-4.2,0.6-6.9,3.9-8,7.8c-2.6,9.1,3.2,17.5,8.7,24.1c7.1,8.4,15.4,15.7,24.7,21.6c-0.6,0.2-1.1,0.7-1.3,1.3
							c-0.2,0.6-0.3,1.3-0.3,2c-0.3-0.2-0.6-0.4-0.9-0.6c-1.2-0.7-2.3-1.4-3.5-2.1c0.1,0.2,0.1,0.3,0.2,0.5c-3.9-2.4-7.8-4.9-11.9-7
							c-0.7-0.4-1.5-0.6-2.3-0.4c-0.2,0.1-0.4,0.2-0.7,0.4l-0.2,0.1l0,0l0,0c-0.1,0.1-0.3,0.2-0.4,0.3c-0.6,0.5-1.1,1.1-1.7,1.7
							c-0.2,0.2-0.3,0.3-0.4,0.5l-0.1,0.1l-0.1,0.2c-0.2,0.3-0.5,0.6-0.7,1c-0.4,0.6-0.7,1.2-1.1,1.8c-0.1,0.2-0.3,0.4-0.5,0.5
							c-0.5,0.8-0.9,1.7-1.3,2.6c-0.6,1.2-1,2.6-1.2,3.9c-2.5-5.9-5.2-11.8-8.2-17.5c-4-7.6-10.3-13.7-18-17.5
							c-3.9-1.9-12.3,0.5-13.9,4.2c-3.1,7-3.4,15-0.7,22.2c3.2,8.6,7.3,16.8,14.1,23.3c0.5,0.7,0.7,1.6,0.4,2.4
							c-4,4.5-5.9,9.6-4.9,15.6c0.1,0.4-0.2,0.9-0.3,1.3c-0.5-0.2-1.1-0.4-1.5-0.7c-0.8-0.6-1.4-1.4-2-2.2
							C-87,158.5-91,149.1-99,142.7c-3.9-3.1-7.4-6.6-13.1-5.4c-8.2,1.7-13.8,15.2-10.2,23.8c3.6,8.8,10.8,13,18.9,16.5
							c0.9,0.4,1.8,0.6,2.7,0.9c-0.7,0.7-1.4,1.5-2.2,2.1c-1.9,1.5-3.6,3.2-5,5.1c-1-2.2-2.1-4.3-4.1-5.7c-0.1-0.1-0.2-0.1-0.4-0.2
							c-0.2-0.4-0.5-0.9-0.8-1.2c-5.8-5.6-11.2-11.9-17.7-16.5c-3.9-2.7-9.2-5.4-14.9-1.9c-1.7,1.1-4.6,0.1-7-0.1
							c-0.8,0-1.5-0.1-2.3-0.2c-0.9,0.1-1.9,0.2-2.8,0.3c-2.1,0.2-4.4,0.6-6.4,0.2h-0.5c-0.2,0-0.4,0-0.6-0.1
							c-0.3-0.1-0.6-0.3-0.8-0.6l-0.9-0.4c1-1.7,1.2-3.7,0.6-5.6c-0.5-2.1-2.2-4.1-2-6.1c0.2-2.8,1.6-5.4,2.9-8
							c0.1-0.3,2.9,0.4,4.2,1.1c3,1.5,5.7,3.6,8.8,4.9c5,2.1,10.4,3.8,15.4,1c3.2-1.7,5.7-4.8,8.2-7.5c5.3-5.6,5.2-11.7,0-17.5
							c-5.9-6.6-13.8-7.7-21.9-8.1c-0.4,0-0.7,0.1-1.1,0.2c-0.1-0.1-0.3-0.1-0.4-0.1c-1.4-0.1-2.9-0.3-4.4-0.4
							c2-3.3,2.1-7.6-0.2-11.6c-1-1.7-1.6-4.5-0.9-6.2c2-4.5,1.8-7.9-4.2-10.6c-0.6-0.3-1.3-0.6-1.9-1c0.6-0.7,1.2-2,1.7-1.9
							c1.6,0.2,3.1,0.6,4.4,1.4c4.7,2.8,8.9,6.5,13.9,8.4c5.6,2.1,11.7,2,17-2c7.3-5.6,6.7-17.2,2.6-23.4c-1.6-2.2-4.1-3.8-6.8-4.2
							c-0.2,0-0.5,0-0.7-0.1l0,0h-0.1c-0.2-0.1-0.4-0.2-0.6-0.3c-0.5-0.2-1-0.3-1.5-0.5l-0.8-0.2c-1.4-0.3-2.9-0.5-4.4-0.6h-0.4
							c2.1-4.7,0.1-10.1-6.1-14c-0.5-0.3-0.4-2.7,0.2-3.3c3.4-3.1,2.9-6.9,0.9-9.9c-1.1-1.6-4.1-1.9-6.5-2.5l-1.7-1
							c1.5-2.2,3-4.3,4.5-6.4c1.2-1.6,2.1-1.8,3.7,0.4c5.2,7.3,13.8,11.5,22.7,11.2c7-0.2,14.1-4.6,15.6-11.2
							c2.8-12.9-5.5-21.2-18.4-18.6c-2.6,0.5-2.5-0.6-1.9-2.3c2.2-6.5-0.6-13.3-7.2-14.6c-4.6-0.9-2.6-2.1-1.9-4.6
							c0.6-2.2,0.4-5.9-0.9-6.9c-1.7-1.3-3.5-1.9-3.3-4c0.8-1,1.5-2,2-3.2c5.9,2.5,11.9,4.9,17.8,7.5c8.4,3.4,18,0.2,22.7-7.5
							c5.5-9.5,1.5-18.4-9.2-20.1c-3.5-0.6-7.1-0.3-10.7-0.6c-0.9-0.1-2.3-1.1-2.3-1.7c-0.3-7.4-3.7-12.9-9.4-17.4
							c-1.3-1-2.7-3.9-2.1-4.8c2.6-4.5-0.7-7.3-2.5-10.4c0-0.2-0.1-0.5-0.2-0.7c-0.8-1.7-2.3-3.1-4-3.8c0.3-0.4,0.5-0.8,0.7-1.2
							c-0.2-0.4-0.2-0.9,0-1.3c0.1-0.2,0.3-0.4,0.5-0.5c0.1-0.4,0.1-0.8,0.1-1.2c1.1,0.7,2.1,1.5,3.2,2.1h0.1l1,0.5
							c0.4,0.1,0.8,0.3,1.1,0.4s0.5,0.1,0.7,0.2h0.2c0.8,0,1.6,0.2,2.4,0.4l0,0c0.4,0.1,0.7,0.3,1,0.5c6.2,1.8,12.6,1.8,19.3,1.2
							c6-0.3,10-2.9,13.7-7.4c3.9-4.9,4.5-9.7,2.4-15.1c-1.7-4.5-5.6-6.2-10-7c-0.2,0-0.5-0.1-0.7-0.1l-0.3-0.1
							c-0.4-0.2-0.9-0.3-1.4-0.3l-0.4,0.1c-0.9,0.1-1.9,0.1-2.8-0.1l-1-0.2l0,0l-1.8-0.3c-0.9-0.1-1.7-0.2-2.6-0.3
							c-3.9-0.4-7.8,1-11.4,2.1c-0.2,0.1-0.5,0.1-0.7,0l-0.3,0.1c-0.3,0.1-0.6,0.1-0.9,0.2c-0.3,0-0.5,0-0.8-0.1
							c-0.8,0.2-1.5,0.5-2.3,0.8c0-0.6,0-1.2,0-1.9c-0.1-1.1-0.2-2.1-0.4-3.2c-0.9-3.5-2.4-7-5.6-8.8c-0.4-0.2-0.9-0.5-1.3-0.7h-0.1
							l-0.1-0.1c-1.4-0.6-2.7-1.2-4.1-1.8c-1.1-0.5-2.1-1.1-3.1-1.6c-1.1-0.5-2.1-0.8-3.1-1.3c-0.1-0.1-0.2-0.2-0.3-0.2l0,0
							c-0.3-0.3-0.4-0.6-0.4-1c-0.8-2.2,1.9-3.5,3.5-5.2c3.6-3.7,3.8-14.8-0.1-18.1c-1.5-1.3-4.8-2.4-6.2-1.6
							c-3.1,1.7-6.6,4.2-8,7.3c-1.2,2.8-1.9,3.4-4.4,2.3c-4.9-2.2-5.9-1.6-5.4,3.9c0.2,2.3,0.4,3-2.2,1.8c-2-0.8-4.2-1.3-6.4-1.3
							c-8-0.4-13.5,5.1-10.9,10.7c1.6,3.5,9.2,7.5,13.1,7.2c2.5-0.2,5.1-0.2,7.6,0c0.9,0.4,1.5,1.3,1.6,2.2c-0.1,1-1,2-1.6,2.9
							c-3.9,6.7-3.2,13.4,0.7,17.7c-1.5,0.4-3,1.2-4.2,2.2c-5.8,0.9-11.1,2.9-15.3,7.1c-3.3,3.2-3.9,9.5-1.9,13.2
							c2.4,4.1,14.4,9.9,19.3,9.3c6.9-0.9,14-0.3,20.6-3.3c0.6-0.3,2.6,1,2.9,2c1.2,3.1-1.8,2.7-3.4,3.7c-3.9,2.6-7.5,5.8-11.4,8.4
							c-6,3.9-3.3,9-2,13.8c0.6,2.3,0.1,2.1-2.2,2.5c-7,1.3-14.4,2.5-20.6,5.6c-5.9,3-7.9,14.4-0.5,18.6c9.1,5.3,18.7,7.4,29,4.3
							c2.2-0.7,3.2-0.6,4,2c1.5,4.8-2,4.8-4.6,5.1c-8.9,1.2-12.6,4.8-13,13.3c-0.1,1.7,0.6,3.3-2.4,2.9c-7.3-1-14.1,1.2-20.6,4.1
							c-7.3,3.3-9.8,9-6.1,14.6c3.4,5.1,8.1,9.1,13.5,11.8c6.4,3.1,13.9,2.1,20.9,0.3c3.7-1,5.8-1.4,4.3,3.5c-0.6,2.2,0.1,4-4.1,3.8
							c-10.4-0.6-16.4,10.3-11.4,19.1c0.3,0.9,0.5,1.8,0.6,2.7c-0.6,0.1-1.4,0.4-1.9,0.2c-7.1-2.9-13.9-1.1-20.4,1.9
							c-6.7,3.1-8.2,9-4.2,15c5.4,8.2,17.8,11.5,28,7.6c1.6-0.6,3.1-1.4,4.6-2.1c-0.6,1.5-1.1,3-1.4,4.6c-0.2,2.8-0.9,4-4.3,4.3
							c-5.2,0.4-10.4,2.4-11.2,8.6c-0.4,2.8,1,5.8,1.5,8.6c0.2,0.9,0.3,1.8,0.5,2.6c-0.8,0.1-1.7,0.4-2.2,0.1
							c-7.5-3.7-14.7-0.9-21.6,1.5c-6.6,2.3-8.9,8.4-5.4,13.8c2.2,3.3,5.3,5.9,9,7.4c6.8,2.3,13.9,4.6,21.3,1.6
							c0.6-0.2,2.2,0.7,2.5,1.4c1.6,3.9-1.7,3.1-3.5,3.3c-6.2,0.5-8.6,2.7-10.2,8.7c-0.2,0.7-2.4,1.7-3.1,1.3
							c-9.5-4.4-18.9-3.1-28.2,0.1c-7.6,2.7-9.5,10.1-5.9,17.2c4.9,9.9,22.6,13.9,32.4,11c1.8-0.5,4,0.1,6,0.2
							c-1.5,1.1-3.2,2.1-4.9,2.9c-4.1,1.6-7.3,3.7-7.7,8.6c0,0.5-2.3,1.3-3.3,1c-1.9-0.5-3.6-2-5.5-2.3c-6.8-1.2-13.8-2.1-20.7-2.6
							c-4.3-0.1-8.6,0.5-12.7,1.8c-2.3,0.7-5.5,2.8-5.9,4.7c-1.6,7.5-0.7,12.7,6.9,16.5c0.7,0.4,1.3,0.8,1.9,1.4
							c5.1,4.8,12,7.4,19,7.2c1,0.2,1.8,0.9,2.2,1.9c0.2,2.2-1.4,4.2-3.6,4.4c0,0,0,0-0.1,0c-1,0.1-1.9-0.2-2.7-0.7
							c-10.5-6.3-21.7-10-34-10.2c-8.1-0.1-12,3.6-11.7,11.6c0.1,1.4-0.4,2.7-1.3,3.8c-5.2,4.9-6,11-2.2,16.1
							c-0.1,0.1-0.1,0.1-0.1,0.2c-1,1.5-1.8,3.1-2.4,4.8l-0.4,0.9c-0.4,1.5-0.6,3.1-1.1,4.6c-0.4,1.2-1,2.3-1.8,3.3
							c-1.2,2.4-2.4,4.8-3.6,7.2c-1.4,2.9-3.4,5.8-3.8,8.9c-1.3,11.7-8.7,20.4-14.4,29.8c-6.7,11.1-14.9,21.2-22.5,31.8
							c-3.8,5.3-7.1,10.9-11.4,15.8c-10,11.2-20.4,22-30.9,33.1c-5.2,4.7-9.9,9.5-15,13.8c-3.2,2.7-7.1,4.7-10.5,7.1
							c-3.6,3.5-6.7,7.7-10.6,10.8s-7.8,5.9-11.9,8.6c-2.8,3-5.4,6.2-9,8.4c-6.5,4-12.1,9.5-18.3,14c-4.4,3.2-9.8,5.3-13.8,9
							c-7.3,6.6-14,13.9-20.7,21.2c-0.4,0.4-0.7,0.8-1.1,1.2c0,0.1-0.1,0.2-0.1,0.3c-2.1,3.5-5,6.5-7.3,9.9
							c-1.2,1.7-2.5,3.4-3.8,5.1c-1.1,2-2.1,4.1-2.9,6.2c-2.2,5.6-6.7,10.3-10.5,15.3l-0.1,0.1c-0.1,0.2-0.2,0.3-0.3,0.5l-0.7,1
							l-2.5,3.5l0.2-0.1c-5.8,8.9-10.5,18.4-13.9,28.5c-2,6-3.6,12-4.7,18.2c-0.8,4.2-2.1,9.2,0.7,12.9c0.6,3.3,1.5,6.5,2.6,9.7
							c1.4,3.6,3.4,7,4.9,10.6c0.2,0.1,0.4,0.2,0.6,0.5l0.3,0.5l0,0l0.2,0.2c0.7,0.9,1.3,1.8,2,2.7l0.4,0.5c2,2.7,3.9,5.4,6,8l0,0
							l0.3,0.3l0,0c0.5,0.6,0.9,1.1,1.4,1.7c1.3,1.5,2.6,2.8,4,4.2l0.1,0.1l0,0l0.4,0.4c2.1,1.9,4.2,3.8,6.2,5.7l0,0
							c0.8,0.7,1.5,1.5,2.3,2.2c0.3,0.3,0.4,0.6,0.4,1c1,0.9,2,1.8,3,2.8c0,0.1,0,0.2,0,0.2c2.2,2.6,4.6,5,7.1,7.4
							c2.6,2.2,5.8,3.7,8.5,5.8s5.3,4.4,8.2,6.5s6,4.3,9,6.3s6.2,3.7,9.3,5.6c2.8,1.9,5.7,3.7,8.8,5.3c2.8,1.3,5.5,2.7,8,4.4
							c3.1,1.4,6.3,2.6,9.5,3.5l0.9,0.2c0.2,0,0.5,0.1,0.8,0.1c0.3,0.1,0.6,0.3,0.8,0.5c0.8,0.3,1.6,0.7,2.4,1
							c5.8,2.3,11.8,4.3,18.1,4.1c7-0.2,14.1-2.1,20.9-3.7c6-1.3,11.9-3.4,17.4-6.2c2.6-1,5-2.2,7.5-3.5c6.2-3.4,11.9-7.6,16.9-12.6
							c0.3,0,0.5-0.1,0.8-0.3l2.2-2c1.7-2.2,3.5-4.4,5.4-6.4c3-3.2,5.6-6.7,7.9-10.5c0.1-0.2,0.3-0.4,0.6-0.5
							c2.5-4.6,5-9.1,7.5-13.7c0.2-0.3,0.3-0.7,0.4-1c1-1.8,1.9-3.5,2.9-5.2c0.1-0.3,0.2-0.6,0.3-0.9c0.4-0.8,0.8-1.5,1.2-2.2
							c0.2-0.6,0.4-1.2,0.7-1.8c0-0.1,0.1-0.2,0.1-0.2c0.1-0.3,0.3-0.5,0.6-0.6c0.9-1.7,1.7-3.3,2.7-4.9l0.1-0.2
							c0.3-0.8,0.7-1.5,1.2-2.3c0.4-0.7,0.8-1.3,1.2-2c1.1-1.8,2.2-3.7,3.1-5.7c1.1-2.2,2-4.4,3-6.7v-0.1l0.9-2.2
							c0.1-0.3,0.3-0.6,0.4-0.9l0,0c0.2-0.6,0.5-1.2,0.7-1.8c0.6-1.4,1.2-2.8,1.8-4.2l0,0l0.2-0.4c0,0,0,0,0-0.1l0.6-1.5l0,0
							c0.7-1.8,1.4-3.7,2.1-5.5s1.6-3.7,2.3-5.5l0,0l0.1-0.2c0.5-1.4,1-2.8,1.6-4.1c0.2-0.3,0.3-0.7,0.5-1c0.3-0.5,0.1-0.1,0.1-0.1
							c2.7-7.4,4.9-15,6.4-22.7c2.9-13.9,6.4-27.8,9.5-41.7c0.5-2.8,0.9-5.7,0.9-8.5c1.3-3.3,2.1-6.7,2.3-10.2
							c0.4-4.9,0.8-9.8,1.6-14.7c0.3-1.7,0.6-3.4,1-5.2c0.1-0.2,0.3-0.3,0.4-0.5c0.2-1.1,0.5-2.2,0.8-3.2c0-0.4,0-0.8,0.1-1.2
							c0.1-0.6,0.2-1.3,0.3-1.9c0.4-1.5,0.8-3,1.2-4.5c0-0.3,0-0.5,0.1-0.8c0.2-1.5,0.5-3,1-4.5c0.5-1.9,1-3.8,1.5-5.7l0,0
							c0.4-1.3,0.8-2.7,1.2-4c0-0.9,0.2-1.8,0.4-2.7c3.4-11.2,6.8-22.5,10.6-33.5c1.9-5.7,6-10.8,7-16.6
							c2.1-12.4,9.5-22.1,14.9-32.8c2.1-4.1,5.4-7.7,7.7-11.7c4.8-8.5,9.3-17.3,13.9-25.9c1.8-3.3,3.8-6.5,5.6-9.7
							c0.7-1,1.2-2.2,1.5-3.4c0.5-3.3,2.1-5.4,5.6-5.9c3.8-0.3,7.2-2.7,8.7-6.2c0.5-1,2.8-2.1,3.8-1.8c9.6,3.1,16.4-0.2,19.4-9.7
							c0.6-2,1.5-4,2.3-6c1.5,1.3,3,2.7,4.6,4c0.6,0.5,1.4,0.8,1.9,1.3c4.4,4.5,6.8,4.9,10.6,1.6c4.4-3.9,5.6-9.5,2.4-13.1
							c-4.9-5.6-10-10.9-14.9-16.5c-0.7-1.1-0.8-2.4-0.3-3.6c0.9-1.7,2.5-3,3.5-4.6c1.2,3.5,2.9,6.9,5.2,9.8
							c2.9,3.3,6.1,6.3,9.5,8.9c2,1.6,4.3,3,6.7,4c0,0.1,0.1,0.1,0.1,0.2c0.1,0,0.3,0.1,0.4,0.1c3.2,1.5,7,1.5,10.2,0l0.2-0.1
							c0.4-0.2,0.8-0.4,1.2-0.6l0,0c0.5-0.3,1.1-0.6,1.6-1h0.1l0,0c1.2-0.8,2.2-1.7,3.2-2.7l0,0l0,0l0,0c0.4-0.4,0.7-0.8,1.1-1.2
							c0.1-0.3,0.2-0.5,0.3-0.8c0,0,0.1-0.1,0.1-0.1c1.4-3.5-0.3-7.3-2.1-10.2c-2.3-3.7-5.5-6.4-8.9-9.1c-3.2-2.6-6.2-5.5-8.9-8.7
							c3.5-4.4,4.9-11.9,3-17c-0.2-0.5-0.3-1-0.4-1.6c1.3,0.4,2.6,0.7,3.9,0.8c0.4,1.6,0.7,3.3,1,4.9c0.2,0.3,0.4,0.5,0.5,0.8
							c0.3,0.4,0.6,0.9,0.8,1.3l0.1,0.1c1.8,3.4,2.7,7.2,3.9,10.8l0.5,1c1.2,2.4,2.8,4.6,4.7,6.5c0,0,0,0.1,0.1,0.1l0.3,0.2l0.3,0.3
							c3.5,2.7,6.8,6,10.8,7.2c5.4,1.6,17.2-6.4,19.6-11.9c1.3-3.1,1.5-6.6,0.5-9.8c0.2-0.3,0.3-0.8,0.2-1.2
							c-0.8-2.1-1.7-4.2-2.8-6.2c-0.5-1-1.1-1.9-1.7-2.8c-0.4-0.6-0.9-1.2-1.5-1.7c2.8-2.9,3-7.2,1.2-11.5c-0.7-1.5-0.9-4.4-0.1-5
							c4.2-3.1,1.9-5.6-0.1-8.4c-0.4-0.5-0.7-1.1-0.9-1.7c0.6-0.2,1.3-0.9,1.6-0.7c1.2,0.8,2.6,1.1,4,0.9c0,0.3,0,0.6,0.2,0.9
							c1.9,4,4.2,7.9,6.9,11.4c0.1,0.3,0.2,0.6,0.4,0.9c3.9,5.6,7.3,11.6,12,16.4c2.8,2.9,7.5,4.6,11.6,5.6c5,1.2,9.5-6.9,6.1-12
							c-2.6-3.6-5.6-7-9-9.9c0-0.3,0-0.5-0.2-0.7c-0.9-1.5-1.8-2.9-2.8-4.4c-0.6-1.1-1.3-2.2-2.2-3.2c3.6-2.1,6.3-5.5,7.6-9.5
							c0.8-2.3,1.5-4.6,1.9-7c0.3-2.5-0.6-4.9-1.5-7.2c-0.6-1.5-1.4-2.9-2.4-4.2l5.5-4.1c-0.3,1.3-0.2,2.7,0.4,3.9l0.1,0.1
							c0.6,0.6,1.1,1.3,1.5,2.1l0,0c0.3,0.6,0.5,1.1,0.7,1.7c0.1,0.3,0.2,0.5,0.3,0.8l0,0c0.1,0.2,0.2,0.4,0.2,0.6
							c1.3,2.3,2.8,4.6,4.5,6.6c1.1,1.5,2.3,2.9,3.5,4.2c1.2,1.1,2.4,2.2,3.6,3.2s2.3,2,3.4,2.9l0.8,0.5l0.1,0.1
							c4.9,3,9.4,6.5,14.2,9.7c2,1.5,4.2,2.7,6.4,3.7l0.3,0.1c1.4-0.1,2.8-0.6,3.9-1.6c2.8-2.6,2.1-6.2,0.6-9.2
							c-0.4-1-0.9-1.8-1.4-2.7c-0.8-2.1-1.8-4.1-3-6c-3.8-6.4-8.7-12.1-14.3-16.9c0.4-0.4,0.8-0.8,1.1-1.2c0.6-0.3,1.2-0.6,1.8-0.9
							c0.7-0.4,1-1.3,0.6-2c1-1.4,1.8-2.9,2.3-4.6c1.1-3.5,1.3-7.3,0.6-10.9c1.3,0,2.7-0.3,3.8-1c0.1-0.1,0.2-0.1,0.2-0.1
							c-0.2,0.6-0.2,1.1-0.1,1.7c2.4,9.2,4.9,18.4,7.4,27.9c0.2,1.1,0.5,2.1,0.9,3.1c2.6,5.4,6.1,9.6,12.2,10.7
							c2.1,0.4,4.3-0.1,6-1.4c0.1-0.2,0.2-0.4,0.4-0.6c0.3-0.4,0.7-0.8,1.1-1.1l0.3-0.3l0.7-0.6c1.8-1.5,3.6-2.9,4.9-4.9l0.5-0.8
							c0.5-0.8,0.9-1.7,1.4-2.5l0,0v-0.1c0.5-0.9,1-1.8,1.4-2.7l0,0l0.7-1.3c0.1-0.9,0-1.7-0.2-2.6c-1.3-8.9-6-15.3-14-19.5
							c-1.4-0.7-2.2-2.5-3.5-3.4s-2.6-2-3.8-3.1c0.4,0.3,0.9,0.5,1.3,0.8c3,1.6,6.7,2.5,9.4,0c2-2,3.3-4.6,3.6-7.4
							c0.6-2.1,0.9-4.3,1-6.5c0-0.9-0.1-1.9-0.4-2.8c0-0.2,0-0.3-0.1-0.5c-0.2-1-0.6-2.1-0.9-3.1c-0.1-0.1-0.1-0.3-0.2-0.4
							c0.4-0.4,0.9-0.8,1.2-1.2c0.5,0.5,1.1,0.8,1.7,1.1c0.7,0.2,1.4,0.1,2-0.2c0.5-0.4,1-0.8,1.4-1.4c0.6-0.7,1.1-1.4,1.7-2.1
							c-3.3,7.4-3.1,15,0.8,22.6c4.4,8.3,11.2,13.1,21.1,9.6c4.9-1.7,9.2-4.7,12.4-8.7c6.6-7.9,6.2-15.1,0.2-22.9
							c-0.7-1-1-2.3-0.6-3.5c1.5-3.2,3.3-6.3,5.3-9.2c0-0.1,0-0.1,0-0.2c0.1-0.3,0.1-0.5,0.1-0.8c0.2-0.5,0.3-1.1,0.3-1.6
							c0,0.4,0,0,0-0.1s0-0.2,0-0.4c0-0.3,0-0.6,0-0.9c0-0.5,0.3-1,0.7-1.2c-0.5-0.3-0.9-0.7-1.1-1.3l-0.1-0.4
							c1.2,0.8,2.6,1.2,4,1.2c2.1-0.2,4.2-0.9,5.9-2.2c1.2-0.8,2.4-1.8,3.6-2.7c-0.2,0.4-0.3,0.9-0.4,1.3c-2,9.4,1.1,17.2,6.7,24.7
							c8.6,11.6,23,11.1,30.4,2.5h0.1c0.9-0.9,1.8-1.8,2.5-2.8c0.7-1,1.3-2.1,1.9-3.1c0.3-0.6,0.6-1.3,0.9-1.9
							c0.2-0.7,0.5-1.4,0.7-2.2l0,0c2-4,1-8.1-1.4-11.6c-5.5-8.2-13.8-13.3-22-18.4c-1.3-0.8-2.6-1.5-3.9-2.2l0.4-0.3
							c0.2-0.1,0.5-0.2,0.7-0.3c0.4-0.4,0.9-0.7,1.3-1.1l0.8-0.6c0.4-0.4,0.8-0.8,1.2-1.3c0.7-0.8,1.4-1.6,2-2.5
							c1.2,3.5,3.6,6.4,5.8,9.3c4.7,6,11.2,6.2,15.7,1.1c1.4-1.8,2.6-3.8,3.5-5.9c1.4,1,2.9,1.6,4.6,1.9c1.1,0.1,2.1-0.2,3-0.8
							c1.2,0.1,2.3-0.3,3.3-1c1.3-1.4,2.5-3,3.5-4.7l0,0c1.1-0.9,2.1-1.9,2.9-3.1c0.6-1.1,0.8-2.3,0.6-3.5c-0.2-0.8-0.3-1.7-0.4-2.5
							c2.1,0,4.3-0.3,6.3-1c-0.5,1.3-0.8,2.6-1.1,3.9c-0.3,1.4-0.6,2.7-0.9,4.1c-0.4,1-0.8,2.1-1.2,3.2c-2,10.1-3.5,19.5,2,29.2
							c5.6,9.8,17.9,16,29,9c0.2,0,0.3,0,0.5,0c4.5-0.9,7-5.1,8.9-8.9c0.2-0.4,0.2-0.8,0.1-1.2c2.7-5.6,1.4-12.5-3.3-17.6
							c-2.4-2.7-4.7-5.2-7-7.5l0,0l0,0l-0.1-0.1c-0.2-0.2-0.4-0.4-0.6-0.7c-0.3-0.4-0.5-0.8-0.6-1.3c0-0.1,0-0.1,0-0.2
							c-0.6-0.6-1.3-1.2-2-1.8c1-0.1,2-0.3,2.9-0.5c6.5-1.9,13.8-7.5,16.4-14.2c0.2-0.2,0.4-0.5,0.6-0.8c0,0,0-0.1,0-0.1
							c0.7,0.7,1.4,1.2,2.3,1.6c1.1,0.6,2.3,0.8,3.5,0.7c0.4-0.1,0.8-0.1,1.1-0.2c-1.3,1.2-2.6,2.3-3.9,3.5
							c-0.4,0.6-0.8,1.1-1.1,1.7l0,0l0,0c-0.3,0.4-0.5,0.8-0.8,1.2c-0.4,0.5-0.7,1.1-1,1.7c-0.2,0.5-0.3,1.1-0.3,1.6
							c-0.1,0.4-0.2,0.9-0.3,1.3c-0.3,0.8-0.6,1.6-0.7,2.5c0,0.5-0.1,1-0.3,1.5v0.1c-0.2,2,0,4,0.6,5.9c2.9,8.4,8.1,15.2,14.9,21
							c6.4,5.5,19,3.9,23.5-3.3c3.5-5.6,4.7-11.3,2.6-17.6c-0.3-0.8-0.3-1.7-0.1-2.6c0.4,0,0.9-0.1,1.2-0.4c0.7-0.6,1.5-1.2,2.3-1.8
							l0.2-0.1l0,0c0.6-0.4,1.2-0.8,1.8-1.1c1.3-0.7,3-1.1,4.2-2.1c2.3-2,0.9-5.4,0.3-7.9c-1.2-4.8-2.4-9.5-3.7-14.3l0,0
							c1.8,0.5,2.9,2.2,3.6,3.8c0.8,1.8,1.4,3.8,2.1,5.7c1.1,2.9,2.4,5.7,3.7,8.5c0.6,0.5,1.1,1,1.5,1.6l0,0
							c0.2,0.4,0.5,0.8,0.6,1.2c0.1,0.2,0.1,0.4,0.2,0.5c0.2,0.4,0.3,0.8,0.4,1.2l0.1,0.5c0.3,0.7,0.6,1.4,1,2.2
							c0.4,0.7,0.8,1.3,1.2,2c0.1,0.2,0.2,0.4,0.2,0.7c0.6,1.1,1.4,2.2,2.2,3.3c3.6,4.5,9,8.6,14.4,10.1c5.6,1.6,11.9-1.3,16-6.1
							C291.5,80.8,292.7,77.8,292.6,74.7 M-163-149.8l-0.2,3.2c-0.8-0.9-1.5-1.9-2-3L-163-149.8 M-183.6-138.6
							c-2-2.3-2.3-4.3,1.3-5.8c5.1-2.1,16.8,1,19.5,3.7c1.1,1.1,1.2,3.1,1.7,4.8C-167-132.4-180-134.4-183.6-138.6 M-157.6-151.4
							c1.8-4.9,7.3-8.8,10.7-6.8c0.2,0.1,0.3,0.5,0.4,0.8c2.7,4.6,3.2,8.6,0.4,12.7c-2.4,3.7-3.4,8.8-8.9,9.5c-0.6,0.1-2-0.5-2-0.9
							C-156.9-141.2-159.6-146.1-157.6-151.4 M-166.9-118.1c0.2-5.4,7.8-13.8,12.2-14.1c2.5-0.3,5-1,7.4-1.9
							c1.7,1.4,3.7,2.5,5.8,3.2l1.5,0.7l0.4,0.1c0.8,0.2,1.5,0.6,2.2,1c0.9,0.6,1.7,1.3,2.3,2.2h0.2c3.6,5.7,3.5,9.7,0.1,14.3
							c-0.6,0.8-1.3,1.4-2.2,1.8c-0.5,0.3-1.1,0.6-1.6,0.9c-0.9,0.4-1.9,0.7-2.8,1.1c-0.6,0.2-1.2,0.4-1.8,0.6
							c-0.3,0.1-0.5,0.1-0.8,0.2l0,0c-0.6,0.6-1.5,1-2.4,0.9c-3.3,0.1-6.6,0-9.8-0.1C-161.3-107.4-167-113.3-166.9-118.1
							 M-138.5-104.1c-0.2,0.6-1.1,0.8-1.7,1.2c-0.8-0.6-1.3-1.6-1-2c0.8-0.8,1.7-1.4,2.7-1.9C-138.3-105.9-138.3-105-138.5-104.1
							 M-143.7-87.7c-3.3,4-8,6.4-13.2,6.8c-7.6,0.8-15.1,2.3-22.6-1.7c-7.5-4-7.8-11.4-0.4-15.8c3.3-1.9,7.1-2.8,10.6-4.4
							c0.4-0.2,0.8-0.5,1.2-0.9l0,0l0,0h0.1l0.3-0.2c0.4-0.2,0.8-0.5,1.2-0.6h0.1h0.1l0.3-0.1l0.7-0.2c0.2-0.1,0.4-0.1,0.7-0.1
							c0,0,0.5-0.1,0.1,0h0.3c0.4,0,0.9,0,1.3,0c2.4,1.3,5.1,2.1,7.9,2.2c1.9,0.1,4.1-0.5,5.8,0.2c2.9,1.3,6.7,2.7,7.9,5.1
							c1.6,3.1,0.3,6.9-2.4,10 M-136.3-98c0.1-2.7,0.6-5.7,2.1-7c2.6-2.2,4.4-5.1,5-8.5c0.2,0,0.3,0,0.4-0.1
							c1.2-0.4,2.4-0.8,3.6-1.2l0.1-0.1c0.5-0.2,1-0.5,1.6-0.7l0.6-0.2c0.3-0.1,0.7-0.2,1-0.3s0.5-0.1,0.8-0.2s0.5-0.1,0.8-0.1
							l1-0.1c0.5,0,1-0.1,1.5-0.1c1.2-0.3,2.3-0.5,3.6-0.8c0.8,0,1.6,0,2.3,0.1c1.3,0.4,2.6,0.6,3.9,0.9c1.4,0,2.8,0.1,4.2,0.3
							c2.9,0.8,5.6,2.6,8.3,3.9c2.5,3.2,2.5,7.1,0.4,11.9c-3,6.9-14.7,9.3-20.8,8.6c-1.6-0.2-3.1-0.5-4.6-0.8c-0.3,0-0.6,0-0.8,0
							c-1.9-0.2-3.9-0.5-5.7-0.9c-1.2-0.2-2.4-0.6-3.6-1c-0.6-0.2-1.2-0.5-1.7-0.8c-0.3-0.1-0.5-0.4-0.6-0.7
							c-1.2-0.7-2.3-1.5-3.4-2.4 M284.6,34c1.5-0.1,3.5,0.4,4.4,1.4c1.2,1.3,1.3,3.2-1.1,4.4c-2.9,1.5-5.3,4.2-8.3,5.2
							c-5.1,1.5-10.2,2.6-15.5,3.3c-1.2,0.2-6,2.2-3.8-3c8.4-4.3,15.2-10.6,24.4-11.4 M-35.2,109.9c-5.6-5.9-12.7-13.3-13.1-22
							c-0.1-3.8,1.2-8.8,5.4-9.8s8,2.1,10.5,5.1c2.9,3.4,5.1,7.5,7.3,11.4c2.1,3.6,4.1,7.2,6,10.9c3.7,6.8,6.4,14,8.2,21.4
							c-0.4,0.9-1.4,0.7-3.7-0.2C-22.2,122-29.1,116.3-35.2,109.9 M-68.9,148.9c-2.2-1.5-4.3-3.3-6-5.3c-6.2-7.5-8.7-16.6-10.4-25.9
							c-0.5-2.6,0.7-5.5,1.2-8.3c0.7-4.5,3.6-5,6.2-5.9c4.3-1.5,7.8-0.5,11.1,2.4c10.4,9,14.7,21.4,19.5,33.6
							c0.3,0.9,0.8,1.7,1.2,2.5c3.2,5.6,1.6,9-4.9,9.2C-56.9,151.3-63.3,152.6-68.9,148.9 M-145,163.9c3.3-0.8,8.1-2.3,10.2-0.7
							c7.4,5.5,15.4,10.7,20.4,18.9c0.3,0.4,0.7,0.7,1.2,0.9c1.6,1.4,2.4,3.8,3.2,5.6c0.2,0.4,0.4,0.8,0.6,1.2c0,0.7,0,1.3,0.1,2
							c0.2,1.7,0.2,3.3-0.1,5c-1,0.4-2.1,0.6-3.2,0.7c-1.9,0.1-3.9-0.4-5.2,1.2c-11.1-0.1-21.3-8.6-25.5-17.2
							c-1.9-3.9-2.3-8.5-4.3-12.3S-147.2,164.4-145,163.9 M-169.6,161.6l0.2,0.1l2.4,1.1c0.7,0,1.4,0,2.1-0.1c0.7,0,1.3,0,2,0
							c0.7,0,1.3,0.1,1.9,0.3c2.7,0.3,5.4,0.4,8.1,0.9c1,0.2,2.6,1.8,2.5,2.6c-0.9,7.4,1.3,13.5,5.1,19.1l-6.1,1
							c-0.7,0.4-1.4,0.6-2.1,0.9l-0.3,0.1c0,0,0,0,0,0.1l-0.6,0.1l-0.5,0.1c-2.1,0.4-4.2,0.6-6.4,0.6c-2.3-0.1-5.2-0.5-6.6-2
							c-3.2-3.5-6.1-7.2-8.6-11.3c-6-9.1-5.6-9.9,4.9-12.7C-171,162.2-170.3,161.9-169.6,161.6 M-195.7,262.4c-1-0.5-2.4-1.5-3-1.2
							c-4.7,2.9-9.7,5.4-13.6,9.2c-3.1,3-5.2,2-8.1,0.6c-3.2-1.5-3.3-3.9-2.1-6.5c2.1-4.2,4.5-8.3,7.1-12.2c0.7-1,2.6-1.2,4-1.8
							c0.2,1.1,0.5,2.2,0.7,3.3c0,0.5,0.1,0.9,0.2,1.4c0.4,1,0.8,2,1.1,3c0.4-1,0.8-2.1,1.1-3.2c0.4-1.5,0.6-3,0.9-4.4
							c2.9,0.5,5.7,1.4,8.3,2.7c5.8,3.1,7.1,8.5,4.7,14.5c-1.1,2.7-0.8,5.8-1.1,8.8c-0.1,1.1,0,2.9-0.7,3.3s-2.3,0-3.4-0.4
							c-3.6-1.3-7.1-2.7-10.6-4.2c-0.6-0.4-1.1-0.9-1.4-1.4c0.5-0.5,1.1-1,1.7-1.4c4.3-2.7,8.6-5.2,12.9-8
							C-196.4,264.1-196.1,263.1-195.7,262.4 M-182.8,248c-5.6-2.3-11-4.8-16.5-7.2c-2.5-1.4-4.2-2.4-5.8-3.4
							c-0.9-0.5-1.7-1.1-2.5-1.6c0.6-0.7,1.1-1.7,1.9-2.1c2.8-1.3,4.8-2,8,0.9c4.6,4.2,10.9,6.6,16.4,9.9c0.9,0.5,1.4,1.8,2.1,2.8
							C-180.5,247.6-181.9,248.4-182.8,248 M-179.5,242.2c-6.3-4-12.4-8.3-18.3-12.8c-2.1-1.6-3.4-4.2-5.5-5.8
							c-1.5-1.1-3.6-1.3-5.5-1.9c0.6,1.2,1.2,2.4,1.9,3.6c0.9,1.2,1.9,2.3,2.9,3.4c-1.4,0.6-2.8,1.3-4.2,1.8
							c-0.7,0.3-1.9,0.2-2.2,0.7c-0.8,1.4-2.2,3.6-1.6,4.3c6,8.6,14.9,12.2,24.9,14.1c1.6,0.3,2.9,1.9,4.3,2.9
							c-1.1,1.3-2,3.3-3.3,3.6c-1.9,0.3-3.9,0-5.6-1c-3.6-2.1-6.8-5.1-10.5-6.9c-2.2-1-4.9-2.7-8-0.5c-1.9,1.4-3.5-0.5-3-2.9
							c1-5.8-1.4-9.7-6.4-12.6c-3.4-2-3.5-4.7-0.2-7s7.2-3.7,10.6-5.8c3.1-1.9,6.1-4.6,6.9,1.8c0,0.3,0.8,0.5,1.2,0.7
							c4.6,2.3,9.1,5,13.9,6.8c3.1,1.1,6.7,0.9,10.1,1.1c0.9,0,1.8-0.8,2.6-1.1c-0.8-0.7-1.6-1.2-2.5-1.6c-5-1.3-10.1-2.5-15.2-3.7
							c-5.3-1.3-6.9-3.4-6.9-8.9c-0.3-0.4-0.3-1-0.1-1.4c-0.1-0.5-0.2-1-0.3-1.4l2.1-1c0.3-0.1,0.6-0.2,0.8-0.4l0.2-0.1l0.4-0.1
							l0.4-0.1c0.4-0.1,0.9-0.2,1.3-0.3h0.4c0.4,0,0.9,0,1.3,0c0.5,0,1,0.1,1.5,0.2l0.6,0.1l0.9,0.3c0.2,0.1,0.4,0.1,0.6,0.2
							c1,0.4,2,0.9,2.9,1.5c4.1,0.7,7.2,2.6,9.1,7.4c1.4,3.6,3.4,7,5.9,10c2.5,2.9,4.4,7.7,2.8,10.4
							C-170.9,244.2-174.7,245.3-179.5,242.2 M-227.4,260.4c-0.2,0-0.3,0-0.5,0.1c-1.3,0-2.5,0.1-3.8,0.4c-2,0.7-4.1,0.9-6.1,0.6
							c-2.3-1-4.6-2.5-6.7-3.6c-3.3-1.8-6.6-3.7-9.9-5.6c-3.2-1.9-6.5-3.9-9.6-5.9c-1.4-0.9-2.6-2-3.6-3.4c-0.7-0.8-1.3-1.8-1.6-2.8
							c2.3,3.2,5.7,4.8,9.6,6c6.5,2,12.8,4.5,19.3,6.6c6.9,2.2,13.4,0.9,19.2-3.6c1-0.6,2-1,3.1-1.3c0,1.3,0.3,2.7-0.2,3.8
							c-1.9,4.3-3.8,8.8-6.4,12.7c-0.9,1.4-4,1.3-6.1,1.7c-0.1,0-0.7-0.9-0.7-1c0.4-0.4,1-0.7,1.4-1.1c1-1.1,2-2.2,3-3.3
							C-227.2,260.5-227.2,260.4-227.4,260.4 M-162.9,230.3c-0.8,0.5-2.3-0.1-3.4-0.2c0.2-1,0-2.2,0.6-3c0.8-1,1.9-1.9,3-2.5
							c1.5-1,3.1-1.8,4.6-2.8l-2.1,5.2C-161.6,228.2-162,229.7-162.9,230.3 M-160.6,212.8c-1.2-1.9-2.8-4.1-4.7-4.8
							c-7.8-2.9-9.9-6.4-8.2-14.5c0-0.1-0.1-0.3-0.1-0.4c0-0.2,0-0.4,0-0.6c0-0.1,0.1-0.1,0.1-0.2l0,0l0.1-0.1v-0.1
							c0.1-0.8,0.2-1.7,0.4-2.5c0.1-0.3,0.1-0.5,0.2-0.8c0.1-0.1,0.1-0.3,0.2-0.4l0,0l0.3,0.1c0.4,0.2,0.7,0.4,1,0.7
							c0.6,0.6,1.3,1.2,1.8,1.9c1.2,0.6,2.3,1.5,3.2,2.6c0.5,0.3,1.1,0.6,1.6,1s0.9,0.6,1.4,1l0.2,0.2c0.5,0.4,1,0.9,1.5,1.5
							c0.2,0.2,0.3,0.5,0.5,0.7c0.7,0.7,1.5,1.3,2.2,1.9c6.1,4.6,11.4,9.9,13.5,17.6c0.4,1.6,0,3.5,0,5.3c-1.9-0.2-3.9-0.1-5.7-0.7
							C-155.6,220.5-158.2,216.7-160.6,212.8 M-161.9,117.5c0.7-0.3,1.4-0.7,2-1.2c0.4,0,0.9,0,1.3,0c0.3,0,0.5,0,0.8,0h0.2
							c1.9,0.1,3.8,0,5.7,0c1,0,2.1,0.1,3.1,0.3l0,0c6.2,0.3,11.6,3.2,16.5,6.8c2.1,1.8,3.4,4.3,3.6,7.1
							c-0.1,8.3-9.6,15.8-17.6,13.2c-6.4-2.2-12.5-5.3-18-9.2C-169.5,130.8-167.6,120.3-161.9,117.5 M-167.8,138.8
							c-2.2,2.2-3.8,4-5.7,4.8c-0.7,0.3-2.7-1.4-3.4-2.6c-0.4-0.7,0.2-2.6,1-3.2c1.4-1.1,3.2-2.4,4.8-2.3
							C-169.9,135.5-168.8,137.6-167.8,138.8 M-165.9,87.9c1.3-0.4,4.3,0.8,4.4,1.5c0.2,1.9-0.8,3.9-1.2,5.9l-3.9-2.5
							C-169.7,90-167.6,88.4-165.9,87.9 M-144,65.2L-144,65.2c0.3-0.3,0.6-0.6,0.9-0.8c0.3-0.2,0.6-0.4,1-0.4l0.2-0.1l0.3-0.1l0,0
							l0.6-0.2l0.3-0.1h0.2h0.1h0.4h0.7h0.6h0.3h0.1h0.2c0.1,0,0.2,0,0.3,0c0.1,0,0.2,0,0.3,0c0.1,0,0.3,0.1,0.4,0.1l0.3,0.2
							c1.5,0.1,3,0.6,4.4,1.2c6.2,1.8,7.8,6,7,12.7c-0.9,7.4-2.1,12.5-12.3,11.4c-4.3-0.5-9.3-0.8-12.3-3.2c-2.3-1.8-6.9-2.2-7-7.5
							c-0.1-5.5,1.5-8,6.5-9.8C-148.1,67.7-145.9,66.5-144,65.2 M-153.3,31.5L-153.3,31.5c0.2,0.1,0.4,0.2,0.5,0.4l0,0l0.2,0.1h0.1
							c1.2,0.3,2.3,0.8,3.3,1.4c0.4,0.3,0.8,0.7,1.1,1.1c0.9,1.4,1.1,3.1,0.6,4.7c-0.8,3-3.2,2.9-6.3,1.6c-3.8-1.6-4.9-2.6-2.6-6.3
							c0.3-0.6,0.7-1.1,1-1.7c0-0.6,0.3-1.2,0.9-1.4l0,0l0.1-0.1C-154,31.2-153.6,31.3-153.3,31.5 M-126.7,7.4
							c5.6-0.9,10.6,1.2,15,4.4s3.3,13.1-3.4,17c-10.4,6-27.7-2.6-29.7-14.2c-0.8-4.3,3.4-2.6,4.5-4.4
							C-135.3,9.2-131.1,8.1-126.7,7.4 M-122.4-46.9l0.2,0c4.9-4,10.9-1,16.1-0.8c4.4,0.3,7.8,3.8,8.1,8.2
							c0.5,4.9-3.5,11.2-7.4,12.6c-6.3,2.3-12.3,1.5-18.2-1.3c-3.9-1.9-8.1-3.5-11.7-5.8c-1.7-1.1-2.4-3.7-3.5-5.6
							c1.3-0.6,2.6-1.4,4-1.9c2.4-1,4.9-1.8,7.4-2.7c0.3-0.1,0.5-0.1,0.8-0.2c1.3-1,2.8-1.8,4.4-2.3 M-143-79.9
							c0.5-2.7,1.3-5.7,2.9-7.8l0.2,0.1c0.2,0.1,0.4,0.1,0.6,0.2c0.4,0.2,0.8,0.4,1.2,0.7c0.1,0.1,0.1,0.1,0.2,0.2l0.1,0.1l0.1,0.1
							c0.2,0.2,0.3,0.3,0.4,0.5l0,0l0.2,0.3c0.2,0.3,0.4,0.7,0.6,1l0,0c0.3,0.5,0.4,1,0.6,1.6c0,0.2,0.1,0.4,0.1,0.6
							c0.2,0.3,0.3,0.5,0.4,0.8c0.4,1.9,0.6,3.8,0.8,5.8c-1.7,0.2-3.8,1-5,0.4C-141.2-76.3-143.2-78.6-143-79.9 M-159-62.6
							c2.5-2.3,5.1-4.5,8-6.3c8.3-5,18.1-3.4,24.4,6.3c0.7,0.8,1.3,1.6,1.8,2.5c3.1,8.5,3.6,9.3-4.5,12.1c-1.4,0.5-2.8,1.1-4.2,1.8
							c-6.2,3.2-12,0.5-17.7-1.5c-2.6-0.9-5.1-2.3-7.1-4.2C-161.6-55-162.2-58.8-159-62.6 M-177-24.7c-6.8-2-10.9-6.5-9.1-11.1
							c1-2.5,3.5-5.4,6-6.2c8.6-2.8,17.4-6,26.6-2.5c4.7,1.8,10.2,2.7,11.8,7.9c0.5,0.4,0.8,0.9,1,1.5c0.2,0.9,0.2,1.8-0.2,2.7
							c0,0.1,0.1,0.2,0.1,0.2c-0.1,0.2-0.2,0.3-0.3,0.4c0.1-0.2,0.1-0.2,0,0l-0.1,0.2l-0.2,0.3c-0.3,0.5-0.6,1-0.9,1.5l0,0l0,0
							l-0.3,0.4c-0.2,0.2-0.4,0.4-0.6,0.6l-0.3,0.2C-154-22-165.2-21.2-177-24.7 M-144.1-23c0.8,0,1.6,0.3,2.3,0.8
							c1.2,1,3.1,1.8,3.4,3s-1.1,3-2.3,3.7c-5.2,3.2-7.9,2.2-8.5-2.8C-149.7-22.3-145.7-21.2-144.1-23 M-152,23.2
							c-8.1,8.1-18.3,9.1-29,8.1c-4.5-2.8-8.8-5.4-12.2-8.8c-4.6-4.6-3.9-9,2.1-11.8c12.1-5.6,24.4-5.4,37-2.7
							C-148.7,9.1-147.4,18.6-152,23.2 M-148.5,7.6c0.5-0.3,1-0.9,1.5-0.9c1.3,0.2,2.7,0.5,4,0.8l-2.2,2.2
							C-146.4,9.2-147.5,8.5-148.5,7.6 M-146,3.5c-4.7-1.4-10-0.4-15-0.9c-1.7-0.2-4-1.1-4.9-2.5c-1.8-2.8-0.5-5.8,2.2-7.1
							c3.6-1.8,7.4-3,11.4-3.7c4.4-0.7,8.9-0.2,13.4-0.2c3.4,2.2,6.6,4.2,8.9,6.9c2.7,3.3,1.3,6.4-2.6,7.6
							C-137,4.9-141.7,4.9-146,3.5 M-173.1,58.1c-3-3-0.7-9.1,4-11.5c3-1.6,7-3.8,9.6-3c5.3,1.9,10.3,4.7,14.7,8.3
							c3.3,2.6,1.8,8.8-2.1,11.1c-5.4,3.2-10.9,5.6-17.2,2.5C-167.4,63.2-170.4,60.8-173.1,58.1 M-164.2,80.2l-6,2.3
							c-8.1,4.2-19.8,4.3-26.8-2.1c-4.1-3.8-3.6-9.8,1.4-12.5c8.3-4.5,25.3-2.9,33.1,3.6C-159.4,74-160.4,78.8-164.2,80.2
							 M-200.1,135.1c-1.8-0.7-3.4-1.7-4.9-3c-2.2-2.4-5-5-5.5-7.8c0-0.7,0.4-1.3,0.9-1.8c0.4-0.7,0.8-1.4,1.4-1.9
							c0.9-0.8,2-1.4,3-2.2c0.3-0.2,0.6-0.2,0.9-0.2c10.2-3.2,19.7-2.4,29.2,0.1c3.5,0.9,4.6,4.8,3.3,8.3
							C-176.3,138.8-192.2,138.6-200.1,135.1 M-162.9,113c-4,1.3-8.1,1.9-12.3,1.6c-4.3-0.2-8.5-7.4-7.4-11.5c0.3-1.1,1.2-2.8,2.1-3
							c4.5-1,8.9-4.6,13.6-1.7c0.9,0.3,1.8,0.8,2.5,1.4h0.3c1.7,0.7,3.2,1.8,4.3,3.2c2.1,2.9,1.5,6.9-1.4,9
							C-161.7,112.4-162.3,112.7-162.9,113 M-170.8,150.8c2.4,3.9,1.3,6.5-2.9,7.9c-9,2.9-15.3-1.1-16.5-6.9
							C-185.9,143.5-175.3,143.3-170.8,150.8 M-187.4,179.3c0,1.2,0,2.4-0.2,3.6c-0.2,0.6-0.5,1.2-0.9,1.7c-1.1-0.7-2-2-1.7-2.5
							C-189.6,180.9-188.4,180.1-187.4,179.3 M-202,179.4c-8.6,0.1-16.8-1.4-23.5-7.1c-2.7-2.3-5.8-5.4-4.6-9.6
							c1.1-3.9,4.5-5.8,8.2-6.5c5.1-1,10.3-1.4,15.4-2.1c6.5,2.1,12.4,3.9,18,6.6c5.4,2.6,5.3,7.1,1.3,11.5
							C-191.3,176.8-196,179.3-202,179.4 M-194.5,187.1c5-0.4,7.4,2.9,9.8,6.2c-2.1,6.5-7.7,9.7-13.1,7.2c-2.2-1-4.2-4.1-4.9-6.6
							C-203.3,191.2-197.8,187.3-194.5,187.1 M-224.6,218.5c-9.5,0-16.3-5.8-23.3-11.2c-3.1-2.4-4.2-10.1-1.6-11.1
							c4.5-1.8,9.4-3.6,14.1-3.5c6.4,0.1,12.9,1.9,19.3,3.1c5.3,1.1,10.3,3.6,14.3,7.3c1.1,1,2.7,2.1,4,2c3.6-0.3,7.1-1,10.6-2
							c4.7-1.5,6.7-9.7,3.9-14c-1-1.6-0.8-4-1-6c-0.1-1.1,0.3-2.6-0.3-3.3c-2-2.6-0.9-4.7,0.6-6.8c1.3,1.4,2.8,2.6,4,4.1
							c2.2,2.8,4.4,5.6,6.6,8.4c-0.2,0.1-0.5,0.2-0.7,0.3c-0.8,0.6-1.4,1.4-1.7,2.4c-0.3,1-0.5,2-0.6,3l-0.5,3.6v0.1
							c-0.1,0.4-0.2,0.8-0.3,1.1c-0.6,2-1.3,4-1.9,6c-0.1,0.4,0.1,0.8,0.4,1.1c4.7,4.2,9.5,8.3,14.1,12.7c1.2,1.1,2.5,3.6,2,4.5
							c-1.1,1.7-2.8,3-4.8,3.6c-0.9,0.3-2.8-1.1-3.8-2.2c-1.5-1.8-2.6-4-4-5.9c-3.9-5.5-9.3-7.8-15.1-7.2l0,0
							c-0.1,0-0.3,0.1-0.4,0.1l0,0l-0.9,0.1c-2.1,0.2-4.3,0-6.4,0.5c-1.8,0.5-3.5,1.2-5.2,2.1l0,0l-1.2,0.6
							c-5,6.6-12.7,6.7-20.2,6.7 M-271.4,223.6c0.2-1.1,1-2,2-2.5c3-0.6,6.1-1.4,9-1c7.9,0.9,15.9,1.6,22.8,6.4
							c4.9,3.4,10.3,6,15.4,9c4.1,2.5,4.3,6.5,0.2,9.2c-2.1,1.2-4.2,2.3-6.5,3.2c-9.3,0.5-18,0.7-26.1-3.4c-2.3-1.2-4.8-2-7.2-3.1
							C-269.4,238-270.8,230.9-271.4,223.6 M-397.7,682.1c-6.3,0.9-12.2-0.2-18.1-2.4c-6.3-2.3-12.5-5-18.5-8
							c-20-9.9-38.5-22.6-54.9-37.7c0-0.1,0.1-0.2,0.1-0.4c3.8,2.7,7.6,5.2,11.6,7.6c1,0.8,2.1,1.6,3.2,2.3
							c14.2,8.8,28.5,17.3,42.8,25.9c0.2,0.1,0.5,0.2,0.7,0.3c0.3,0,0.5,0.1,0.7,0.2c2,1.1,4.1,2.1,6.2,2.9l0,0
							c1.1,0.4,2.2,0.9,3.3,1.3s2.1,0.8,3.2,1.2c2.9,1.2,5.8,2.2,8.8,3.1l0,0c0.5,0.1,1,0.2,1.5,0.3l0,0c0.9,0.2,1.8,0.3,2.7,0.4
							c0.2,0,0.5,0.1,0.7,0.2c0.1,0,0.2,0,0.3,0.1l0.2,0.1l0.2,0.1l0.4,0.1l1,0.2c0.4,0.1,0.7,0.2,1,0.3l0.2,0.1
							c0.1,0,0.3,0,0.4,0.1c2.8,0.3,5.7,0.4,8.6,0.4C-393.4,681.4-395.6,681.8-397.7,682.1 M-248,391.3c-2.7,6.8-6.1,13.4-8.3,20.4
							c-2.5,8.2-3.9,16.8-5.8,25.2c-0.2,0.9-0.4,1.9-0.6,2.8h0.1c-1.8,5.4-3.1,11-3.9,16.7c-0.7,3.1-1.4,6.1-1.9,9.3
							c-0.8,4.5-1.3,9-1.6,13.6c-0.3,3.8-0.5,7.7-1.9,11.3l0,0c0,0.4-0.2,0.8-0.4,1.1c0.3-0.4,0,0,0,0.1c-0.1,0.1-0.1,0.2-0.1,0.3
							v0.1c0,0.1-0.1,0.2-0.1,0.3s-0.1,0.3-0.1,0.5v0.2c0,0.5,0,1.1-0.1,1.6c0,0.1,0.1,0.1,0.1,0.2c-2.3,10-4.6,20-6.8,30
							c-1.2,5.6-2.1,11.3-3.4,17.4c-0.4,1.9-0.2,3.5-0.6,4.8c-2,6.4-3.6,13-5.7,19.3c0,0.1,0,0.3,0,0.4l0,0c0,0.2-0.1,0.3-0.2,0.4
							c-0.1,0.2-0.2,0.3-0.3,0.5l0,0c-1.1,2.1-2,4.3-2.7,6.5c-0.5,1.4-1.1,2.7-1.7,3.9c-0.5,0.9-1,1.8-1.5,2.7l0.1,0.2l-0.4,0.7
							c-0.1,0.3-0.2,0.6-0.1,0.9l-1.5,3c-0.1,0.2-0.2,0.5-0.3,0.7c-0.1,0.1-0.1,0.2-0.2,0.3c-4.4,8.6-8.9,17.2-13.3,25.8
							c-5.4,10.3-10.9,20.5-17.6,30c-6.6,9.3-14.5,17.8-24,24c-3,1.9-6.1,3.6-9.3,5c-0.3,0-0.7,0-0.9,0.2c-0.5,0.3-1,0.6-1.5,0.8
							c-1.6,0.7-3.3,1.2-5,1.8l-11.1,2.6c-0.9,0.1-1.9,0.3-2.8,0.4c-9.4,1-18.8,0.3-27.9-2c-5.1-2.2-10.2-4.3-15.5-6.7l-1.1-0.7
							c-3.4-1.5-6.4-3.9-9.4-6c-5.2-3.6-11-6.2-16.2-9.8c-3-2.1-6.2-3.9-9.3-5.8l0,0c-2.4-1.4-4.7-2.8-7.1-4.2
							c-1.7-1.1-3.5-2.2-5.2-3.3c-2.7-1.6-5.3-3.2-7.8-4.9c-1.4-0.8-2.7-1.7-4.1-2.5c0,0,0-0.1-0.1-0.1l-0.1-0.1
							c-2.2-1.4-4.3-3-6.2-4.7c-0.7-0.6-1.4-1.2-2.1-1.8c-3-2.3-5.9-4.6-8.8-7c-5.4-5.9-10.2-12.4-14.2-19.4
							c-2.8-4.7-4.5-9.9-6.8-14.9c0.1-0.2,0.1-0.4,0.2-0.6c-0.1-0.1-0.1-0.2-0.2-0.4l-0.4-0.9c-1.3-1.7-1.3-4-1-6
							c0.3-2.6,1-5.2,1.5-7.8c1.2-5.6,2.7-11.2,4.6-16.6c3.7-10.2,8.7-19.9,15-28.8l0,0l0.2-0.2c0.1-0.1,0.1-0.3,0.2-0.4l0,0
							c0.1-0.1,0.2-0.2,0.4-0.3l0.1-0.2c0.1-0.2,0.2-0.3,0.4-0.5c0.1-0.2,0.3-0.4,0.5-0.5c0.7-1.1,1.4-2.2,2.1-3.3
							c1.5-2.2,3.1-4.4,4.5-6.6c0.5-0.7,1-1.5,1.5-2.3c0.5-1.4,1.2-2.7,2-4c4.2-5.9,8.4-11.9,13-17.5c6.1-7.3,12-14.9,19-21.1
							c7.9-6.9,16.9-12.5,25.6-18.3c4.6-3.1,8.8-6.9,13.2-10.4c2.4-2.5,5-4.9,7.7-7c3.3-2.6,6.6-5.1,10.1-7.5c3.5-2.2,6.8-4.9,9.6-8
							c0.2-0.3,0.6-0.5,1-0.5c0.5-0.4,0.9-0.9,1.4-1.2c4.6-3.8,10-6.5,14.2-10.6c6.4-6.1,12.1-12.9,18.1-19.5
							c4.3-4.7,8.5-9.4,12.6-14.2c3.1-3.6,5.9-7.4,8.9-11.1c6.5-8.2,13.3-16.3,19.5-24.8c3.4-4.7,5.7-10.1,8.9-15
							c2.9-4.4,6.4-8.2,9.3-12.6s5.4-9.2,8.1-13.8c0.6-0.8,1-1.6,1.4-2.5c2.8-8.6,5.6-17.2,10.9-24.7c1.3-2.2,2.2-4.5,2.8-7
							c0.2-0.5,0.4-0.9,0.6-1.4c0.6-1.4,1.2-2.7,1.9-4c5.4,4.4,11,8.5,16.5,12.8c0.6,0.5,1.1,1,1.6,1.5c-0.6,0.5-1.2,0.9-1.9,1.2
							c-5.3,1.3-8.2,10.7-5.7,14.8c4.5,7.3,11.5,12,18.9,12.4l-1.5,2.8c-0.6-0.3-1.2-0.6-1.8-1s-1.6,0.2-2.4,0.3
							c0.4,0.5,0.8,1.1,1.2,1.6s1,1.1,1.5,1.6c-1.1,2-2.2,4-3.2,6c-4-3-8-6-12.1-8.9c-0.7-0.5-2-0.3-3.1-0.4c0.5,1,1.1,2,1.9,2.8
							c3.9,3.1,7.8,6.2,11.9,9c-1.4,2.7-2.9,5.4-4.3,8.1c-3.8,1.1-7.9,0.5-11.3-1.5c-3-1.7-5.2-8.2-3.3-13c1.6-4,4.8-7.4,7.2-11
							c0.5-0.9,0.9-1.8,1.2-2.7c-1-0.1-2.4-0.6-2.9-0.1c-3.2,3.2-7.3,6.2-8.9,10.1c-2.5,6.1-2.8,12.9,2.1,18.7c0.4,0.6,0.7,1.3,1,2
							c-0.8,0.1-1.7,0.2-2.5,0.4c-3,0.8-6,1.5-9,2.5c-1.9,0.6-3.6,2.4-5.3,2.4c-7.3-0.1-11.7,10-8.5,15.6c2.3,4,4.9,7.8,7.4,11.6
							c1.9,2.9,1.6,5.4-1.4,7.3c-2.2,1.4-4.7,3.7-7.2,0.5c-2.1-2.7-2.9-5.4,1-7.6c0.9-0.5,1.1-2.2,1.7-3.4c-1.3,0.3-2.8,0.3-3.9,1
							c-1,0.7-1.8,1.7-2.3,2.9c-1.2,2.3-2.3,2.7-5.2,2c-3.6-0.9-8.4-1.2-11.5,0.5c-5.9,3.2-6,15.1-0.9,19.9c2.2,2.1,6.1,4.2,1.4,7.7
							c-0.3,0.3-0.5,0.8-0.5,1.2c-0.1,4.5-2.3,3.2-4.9,2c-4.6-2.1-9.2-4.1-13.9-6c-0.3-0.3-0.7-0.5-1.1-0.5
							c-1.7-0.1-3.3,0.2-4.9,0.7c-1.8,0.6-3.3,1.8-4.2,3.5c-0.2,0.4-0.2,0.9-0.1,1.3c-1.3,5.1-2.5,10.2-0.7,15.4
							c1.5,4.3,4.9,6.5,8.7,8.4c1.5,0.8,4.7,1.8,0.2,3.1c-0.7,0.2-1.3,0.7-1.6,1.4c-1.2,5.8-3.7,5.4-7.1,1.6
							c-0.4-0.3-0.8-0.4-1.3-0.4c-6.8,0.4-13.6,0.6-20.3,1.3c-1.9,0.4-3.6,1.6-4.6,3.3c-1.9,4.3-3,8.9-1.3,14
							c2.8,3.4,5.5,6.3,8.1,9.5c0.7,1.1,1.3,2.4,1.8,3.6c-1.3,0-2.6-0.2-3.8-0.5c-6-2.2-11.8-5-17.9-6.8c-5.8-1.7-14.3,2.1-16.8,6.9
							c-3.8,7.6-3.7,15.3-0.4,23.1c1.8,4.1,5.2,6.5,9.3,6.3c7.2-0.2,14.5-1,21.6-2.3c-1.3,2.1-2.7,4.2-4.1,6.3
							c-2-1.8-3.9-3.4-6.7-1.8c-2.7,1.5-5.5,3.5-7,6c-2.1,3.7-3.8,2.3-5.7,0.5c-7.2-7.1-16-10.7-25.9-10.1c-3.9,0.2-8.6,2.1-11,4.9
							c-4.4,5.1-7.4,11.3-6.6,18.7c0.8,8.7,3.5,16.4,10.5,22.1c5.8,4.8,12.5,3,19,2.3c1.8-0.2,3.6-0.3,5.4-0.4
							c-0.4,1.9-0.3,4.2-1.2,5.8c-5.4,9.7-10.9,19.3-16.6,28.9c-2,3.3-4.4,6.4-6.6,9.5c-3.9,5.4-8,10.7-11.5,16.3
							c-3.1,5.1-5.4,10.8-8.3,16c-3.6,6.5-7.5,12.8-11,19.4c-0.7,1.4-0.2,3.4-0.2,5.1c1.1-1,2.5-1.8,3.2-3
							c6.1-11,11.8-22.3,18.2-33.1c6.7-11.2,14.1-22,21.1-33.1c0.3-0.7,0.6-1.4,1-2c0.1-0.2,0.1-0.3,0.2-0.5s0.2-0.5,0.3-0.8
							c0-0.2,0-0.5,0.1-0.7c5-10.4,10.5-20.4,16.2-30.4c0.3-0.8,0.7-1.6,1.1-2.4l0.2,0.1c0.2-0.3,0.4-0.7,0.6-1.1
							c0.4-0.7,1.2-0.9,1.9-0.5h0.1c3.3-5.1,6.5-10.2,9.7-15.3c6.8-0.3,8.5-2,9.4-7.8c0.3-1.7-0.2-3.6-0.4-5.4c0-0.3,0-0.7,0-0.9
							l1-1.5c0.6,0,1.3,0.1,1.9,0.3c6.2,1.7,11.3,3.6,12.4,11.1c0.6,4,6.3,5.3,5.9,10.7c-0.1,1.9,2.4,3.9,4.1,6
							c-2.7,5.3-5.5,10.5-8.4,15.7c0-0.3,0.1-0.7,0.1-1c1.1-5.3-1.6-15.1-7.1-18.2c-0.9-0.4-1.9-0.8-2.9-1c0.3,1.1,0.3,2.6,1.1,3.1
							c4.5,2.9,4.8,7.8,5.9,12.3c0.2,0.9-1.1,2.4-2.1,3.3c-0.4,0.4-1.5,0-2.3-0.1c0.6,0.6,1.1,1.2,1.5,1.9c0.7,1.2,1.2,2.5,1.8,3.7
							c-1.3-0.2-3,0.2-3.7-0.5c-3.7-3.5-7.6-6.9-10.4-11c-1.4-2.2-1.8-6.8-0.4-8.7c3.2-4.2,6.5-9.2,13.1-8.8
							c0.9-0.1,1.7-0.2,2.6-0.5c-0.8-0.5-1.6-1.5-2.4-1.5c-2.7,0.1-6.4,1.7-8,0.5c-5-3.6-3,2.3-4.8,2.9c-0.6,0.2-1,1.2-1.6,1.5
							c-2.6,1.2-5.3,2.2-7.8,3.6c-2.4,1.4-4.8,3-7,4.7c-0.4,0.5-0.6,1.1-0.6,1.8c0,0.1,0,0.2,0,0.2c0.2,0.3,0.8,0.7,1,0.6
							c2.5-1.1,5-2.2,7.4-3.5c0.9-0.7,1.7-1.4,2.4-2.3c0.5,1.3,0.9,2.6,1.1,3.9c0.8,5.6,1.7,11,7.2,14.3c2.2,1.3,4.1,3.2,6.3,4.7
							c2,1.4,3.8,2.6,3.5,4.9c-2.6,4.6-5.2,9.2-7.9,13.7c-0.8,0.1-1.5-0.1-2.2-0.3c-3.5-1.7-6.6-4-10.1-5.6c-3.9-1.8-3.2-5-2.5-7.8
							c0.5-2.2,2.3-4.2,3.5-6.3c1-1.8,2-3.7,3-5.6c-1.8,1-3.9,1.7-5.3,3.2c-5,5.4-8.1,13.9-3.4,17.8c4.3,3.5,9.8,5.6,14.9,8.1
							c-7.7,12.7-15.7,25.2-24.4,37.3c-0.2,0.5-0.4,1-0.8,1.4c-1.5,2.2-2.8,4.5-4,6.8c-1.3,2.2-2.8,4.3-4.2,6.5l0,0
							c-0.1,0.2-0.3,0.5-0.5,0.7c-0.1,0.1-0.2,0.2-0.4,0.3l-1.9,2.4c-2.9,3.7-6.1,7.3-8.6,11.3c-3.2,4.9-6,10.1-8.8,15.2
							c-0.4,1-0.6,2.1-0.6,3.1c1.1-0.7,2.5-1.1,3.2-2.1c1.9-2.8,3.2-5.9,5.1-8.6c6.6-9.1,13.4-18,20-27.1c2.9-4,5.7-8.2,8.3-12.5
							c6.1-9.8,12.2-19.7,18.1-30l0,0c0.8-1.4,1.7-2.7,2.5-4.1l0.9,0.1c1.8,0.2,3.5,0.5,5.2,1c6.6,2.5,12.9,6,19.6,7.8
							c12.4,3.2,21.5-0.5,27.2-9.7c2.9-4.7,1.8-8.8-2.9-11.6c-1.6-0.8-3.1-1.7-4.5-2.7c-0.3-0.2,0.2-2.3,0.5-2.3
							c7.6-1,10.5-7,13.9-12.7c2.6-4.3,1.1-8.8-1.7-10.4c-5.5-3.1-12.1-4.4-18.3-6.3c-0.5-0.2-1.4,0.6-2,0.9
							c0.5,0.6,0.9,1.7,1.5,1.8c3.1,1,6.3,1.7,9.5,2.5c6.8,1.8,9.4,5.3,7.5,11c-0.5,1.6-2.1,2.8-3.2,4.2c-4.5,6.3-10.4,7.8-16.5,5.3
							c-3-1.2-6.4-1.4-9.6-2l-1.1-0.2c0.1-0.6,0.2-1.2,0.4-1.7c1.7-4,3.6-8,2.1-12.4c-1-3,0.4-4.3,2.3-6.2c2.2-2.3,4.6-5.4,4.9-8.3
							c0.3-4,1.2-3.5,3.8-2c7.8,4.3,15.9,7.7,24.9,7.8c11.3,0.2,15.1-2.7,18.7-15c0.7-2.5-1.3-5.7-1.8-8.6c-0.1-0.8,0.1-1.6,0.6-2.3
							c1.3-1.2,3-2,4.1-3.3c3.8-4.3,8.5-8.2,7.4-15c-0.1-0.8,1.2-2.6,2.1-2.8c9-2.1,13.1-11.6,10.2-19.8c-0.7-1.9,0.1-4.4,0.5-6.6
							c1.2-6.3,3.5-12.5,3.5-18.8c0-4,1.3-8,3.8-11.1c4.8-6.6,4.8-9.2-1.1-14.5c-0.6-0.6-0.5-3.2-0.2-3.3c4.1-1,5.3-4.7,7-7.7
							c4.9-8.7,0.2-17-9.6-17.9c-3.7-0.4-7.3-2-10.8-3.4l2.1-4.1c4-1.3,9.6-6.5,11.2-9.8c1.4-2.9,2-7.5,6.5-7.3
							c3.4,0.1,6.3,2.5,6.9,5.9c0.3,1.6-1.1,3.5-1.4,5.3c-0.9,7.1-3.1,8.8-10.5,7.6c-1.7-0.4-3.5-0.7-5.3-0.8
							c-1.5,0.2-2.9,0.5-4.3,1c1,0.9,2.2,1.6,3.4,2.1c1.8,0.5,3.9,0.2,5.7,0.9c5.7,2.2,12.1,0.1,15.5-5c3-4.7,3.4-9.2,0-13.9
							c-0.5-0.6-0.4-1.7-0.5-2.6c0.8,0.2,1.6,0.3,2.4,0.4c2.1,0.2,4.2,0.1,6.3-0.1c9.2-1.9,8.3-10.3,10.4-16.7
							c0.1-0.4-0.3-1.1-0.7-1.4c-1.8-1.4-3.4-2.8-5-4.4c-0.8-0.9-0.8-2.5-1.2-3.8c0.9,0.5,1.8,0.9,2.6,1.4c1.1,0.6,2.9,1,3.2,2
							c1.3,4,3.7,4.3,7.2,3c2.2-0.9,4.9-0.8,7-1.8c1.4-0.7,2.4-2.5,3.5-3.8c-1.5,0.3-3.1,0.6-4.5,1.1c-5.7,2.3-6.6,1.8-9-3.9
							c-0.9-2-3.2-3.4-4.9-5.2c-0.7-0.8-1.3-1.6-1.9-2.4c1-0.5,2.1-0.9,3.2-1.2c1,0,2,0.2,3,0.6c5.7,1.8,10.9,1.8,14.8-3.6
							c0.7-0.4,1.6-0.5,2.3-0.1c0.6,0.9,1,1.9,1.3,3c-7.1-0.1-1.5,2.3-0.8,3.8c0.5,0.8,0.7,1.8,0.5,2.7c-1.3,4.2-3,8.3-4.9,12.3
							c-4,7.5-8.6,14.8-12.7,22.3c-3.3,5.9-6.3,12-9.3,18c-2.4,4.6-4.9,9.2-6.9,14c-2.3,5.4-4.1,11.1-6.4,16.6 M-244.1,290.2
							c-3.4-0.1-6.6-0.8-8.1-2c-2.9-2.4-1.6-7.7,2.6-9.9c0.7-0.3,1.5-0.5,2.3-0.6c0.8-0.3,1.5-0.6,2.2-1c-0.2-0.3-0.5-0.6-0.8-0.8
							c-4.4-1.6-8.4,0.6-9.8,5c-0.4,1.3-1.8,2.2-2.8,3.3c-0.9-0.9-2.1-1.6-2.6-2.7c-2.2-4.7-0.4-12.1,3.8-13.6
							c1.8-0.6,4.6,0.2,6.4,1.3c4.1,2.2,8,4.8,11.6,7.8c0.6,0.6,1.2,1.2,1.7,1.9c-0.3,0.1-0.6,0.3-0.8,0.7
							C-240.3,283.2-242.2,286.7-244.1,290.2 M-222.4,289.3c-0.7,0.1-1.5,0.3-2.2,0.5s-1.6,0.5-2.4,0.8c0.9,0.7,1.6,1.8,2.6,2.1
							c2.1,0.6,4.5,0.5,6.5,1.2c1.6,0.6,3,2,4.5,3c-1.7,1.1-3.4,2.1-5.2,3c-1.2,0.5-2.4,0.7-3.6,0.7c-1.5,0-3.9,0.8-3.1-2.6
							c0.1-0.5-2.4-2.2-2.6-2c-2.5,2-4.6,1.4-6.8,0.3c3.1-3.6,6.5-6.9,10.1-9.9c0.2,0.3,0.5,0.5,0.9,0.7
							C-223.1,287.3-222.8,288.5-222.4,289.3 M-221,286.6c0.9-0.3,2.1-1,2.8-0.7c3,1.4,5.7,3.3,8.6,4.6c1.5,0.7,3.4,0.7,5.1,1
							c5.8,1.2,6.6,3,3.6,8.2l-1.9,3.3c-2.3-8.6-9.4-11-16.5-13.5C-220,289.2-220.4,287.6-221,286.6 M-276.6,375.9
							c1.2-2.6,2.1-5.4,3.5-8c0.7-0.9,1.8-1.5,3-1.6c2.1-0.2,4.2-0.1,6.2,0.5c1.8,0.5,3.4,1.6,4.6,3c3.1,4.1,1.3,13.2-2.7,15.3
							c-0.8,0.3-1.7,0.4-2.6,0.4c0-0.8,0.2-1.7,0.5-2.4c2.2-3.1,2.5-6.1,0.3-9.3c-1.8-1.4-2.6-2.7-3.8-3.2s-2.5-0.1-3.7-0.1
							c0.6,0.9,1.4,1.7,2.2,2.4c3.9,2.7,4.3,5.1,2.2,9.4s-5.3,3.7-9,2.4c-3.5-1.3-6.6-2.5-6.7-6.9c-0.8-0.4-1.7-0.5-2.6-0.4
							c-0.4,0-0.9,1-0.9,1.6c-0.1,3.1-1.3,5-3.1,5.9c2.8-5.7,5.6-11.4,8.4-17.1c3.1,0.7,2.9,1.7,2,6.2c-0.1,0.6-0.7,1.1-0.6,1.7
							c0.1,1.2,0.3,2.5,0.6,3.7C-278.1,378.1-277.3,377.1-276.6,375.9 M-300.4,443.7c-1.6-0.4-3.2-0.5-4.9-0.4
							c-0.3,0-0.6,0.1-0.8,0.3c0-0.1-0.1-0.2-0.1-0.2c-0.1,0.1-0.2,0.1-0.3,0.2c-0.5,0.3-0.9,0.7-1.3,1.1c-0.4,0.3-0.7,0.7-0.9,1.2
							c-0.1,0.1-0.1,0.2-0.2,0.3l0,0.1v0.1l-0.1,0.4c0,0.1,0,0.1,0,0.2c0,0.5,0,1,0.1,1.5c0.3,0.4,0.6,0.8,1,1.2
							c0.7,0.8,1.5,1.6,2.4,2.3c0.6,0.2,1.1,0.5,1.7,0.8c0.6,0.4,1.1,0.8,1.6,1.3c0.8,0.7,1.5,1.5,2.4,2.1c1.4,1,2.9,2,4.4,2.8
							c0.1,0.1,0.3,0.2,0.4,0.3c2.4,1,4.8,1.8,7.3,2.5c2.8,0.8,4.1,0.9,3.5,4.7c-1.1,6.3-5,10.3-9.6,13.7c-1.2,0.9-5-0.1-6.4-1.5
							c-4-4.2-9.2-7.1-14.9-8.3c-5-1.1-5.4-2.8-3.1-7.4c1.2-2.9,2.2-5.9,2.8-9c0.1-0.5-0.6-1.3-1-2c-0.5,0.4-1.4,0.8-1.6,1.3
							c-0.8,2.3-1.4,4.6-1.8,7c-0.3,2.5-5.1,6.6-8.8,7c3.6-7.5,7.2-15.1,10.8-22.6c1.2-0.8,2.7-1.3,4-2c2-1.2,4.3-2.1,6-3.7
							c0.9-0.8,0.9-2.8,1.2-4.2c-1,0.8-2.1,1.6-3.3,2.1c-1.1,0.4-2.8,0.6-3.7,0.1c-0.2-0.1-0.4-0.2-0.5-0.3l4-8.5
							c1.9,0.7,3.9,1.3,5.8,1.8c3.5,0.8,7.6-1.6,11.2-1.2c5,0.7,9.8,2.6,14.6,4.3c0.7,0.2,1,1.7,1.4,2.6c-0.9,0-1.8,0-2.7-0.1
							c-3.5-0.9-6.9-1.9-10.4-2.8c-0.7-0.1-1.3,0-2,0.2c0.4,0.6,0.6,1.5,1.1,1.6c4.5,1.6,9,3.5,13.7,4.5c4.5,0.9,7,3.3,6,7.7
							c-1.1,4.7-1.7,9.5-7.4,12c-3.4,1.5-4.9,0.7-6.2-1.8c-3.4-6.7-8.4-11.3-15.6-13.3 M-288.6,457.6c-1.3-0.2-2.9-0.1-3.9-0.8
							c-2.9-1.9-5.6-4.2-8.5-6.3c-0.5-0.3-1.1-0.5-1.7-0.3c-0.4-0.3-0.7-0.6-1.1-0.9c-0.8-0.7-1.5-1.4-2.2-2.2
							c-0.2-0.2-0.3-0.4-0.5-0.6l-0.2-0.2l0,0l0-0.1l-0.1-0.3c0,0,0-0.1-0.1-0.1l0,0l0.1-0.1c0.1-0.1,0.2-0.2,0.3-0.3
							c0.3,0.3,0.7,0.5,1.1,0.5c6,0.6,10.6,3.8,14.7,7.8C-289.6,454.7-289.2,456.3-288.6,457.6 M-353.3,531.2c-0.7,0.7-2,0.7-3.1,1
							c-0.1-1.2,0.1-2.5,0.5-3.6c0.4-0.7,1-1.3,1.8-1.6c0.4-0.1,1.5,0.9,1.5,1.4C-352.5,529.3-352.7,530.4-353.3,531.2 M-342.5,538
							c5.1,2.8,10.2,5.8,15.2,8.8c1.7,1,0.2,8.6-1.7,10.3c-7,6.3-15.1,5.3-23,3c-6.1-1.8-12-4.4-17.9-7c-0.6-0.3-0.9-2.8-0.3-3.8
							c1-2,2.7-3.7,4.1-5.5C-361.4,535.8-350.8,533.4-342.5,538 M-351.9,524.5c-4.9-2.4-5.2,2.2-6.5,4.5c-1,1.8-1.1,4.3-3.7,3.8
							c3.3-5.9,6.5-11.9,9.7-18c1,2.6,1.8,5.2,2.5,7.9C-349.9,523.1-351.6,524.6-351.9,524.5 M-349.4,508.9c1.3-2.5,2.6-5,3.9-7.5
							l1.9-0.1c1.3,2.7-1.3,7.8-4.2,8C-348.4,509.2-348.9,509.1-349.4,508.9 M-338.9,493.8c-1,0.7-2.2,1.1-3.4,1.2
							c1.9-3.8,3.8-7.6,5.6-11.3c1.7-3.5,3.5-7.1,5.2-10.6c0.1,0.3,0.1,0.7,0.2,1.1c0.3,1.1,0.6,2.1,0.9,3.2c0.3-0.9,0.6-1.7,1-2.6
							c1-2.3,2.3-4.1,5.2-3.3c3.4,2.2,6.8,4.1,8.8,7c3,4,7.3,4.4,11.2,5c7.8,1.3,11.2,6.8,8.2,14.1c-3.4,8.2-10.4,10.5-19.3,8.3
							c-6.5-1.6-12.5-4.7-18.7-7.3c-1.1-0.5-1.8-1.9-2.8-2.8C-337.4,494.9-338.7,493.6-338.9,493.8 M-313.4,474.8
							c2.9,0.7,5.8,1.7,8.5,3c0.4,0.5,0.5,1.1,0.3,1.6c-0.4,0.4-1.4,0.7-1.7,0.5C-308.8,478.3-311.1,476.6-313.4,474.8
							 M-350.4,467.9c-3.1-0.9-12.6,5.6-13.9,8.8c-1,2.5-1.1,6.8-5.9,5.6c-2.1-0.5-4.5-0.9-6.3-1.8c2-3.1,4.1-6.2,6.1-9.3
							c2.9-1.1,3.8-2.7,4-6c1.9-2.7,3.7-5.4,5.7-8c4.8,0.4,10.5,3.5,12.2,7.1c0.8,1.8,2.6,3.2,3.8,4.9c0.8,1.1,2.3,2.8,2,3.5
							c-2.1,4.5-4.2,9.2-10.1,10.1c-2.1,0.3-4.5,0.2-6.4,1.1c-4.9,2.2-3.6-1.4-3.2-3.5c0.4-1.3,1.2-2.5,2.4-3.3c2.9-2.1,5.9-4,8.8-6
							c0.7-0.6,1.2-1.2,1.6-2C-349.6,468.5-349.9,468.2-350.4,467.9 M-361.5,453.2c-0.6,0.2-1.2,0.4-1.8,0.7c-1.1-1.7-1.6-3-1.4-4.1
							c0.4-1.7,0.9-3.4,1.5-5c1.6,0.5,3.2,1.2,4.8,2c0.5,0.3,1,0.7,1.3,1.2C-358.6,449.6-360.1,451.4-361.5,453.2 M-382.9,490.3
							c-0.1,1.1-0.2,3.3-1.9,3L-382.9,490.3 M-365,457.6l-0.2,0.2c-0.4,0.5-0.7,1-1.1,1.6c0-0.5,0.2-1.1,0.6-1.4
							C-365.4,457.8-365.2,457.7-365,457.6 M-345.8,384L-345.8,384L-345.8,384l0.1-0.1c0.2-0.3,0.5-0.5,0.8-0.7l0,0l0.2-0.1
							c0.1-0.1,0.3-0.2,0.4-0.3c0.1-0.1,0.3-0.2,0.5-0.2h0.1l0.2-0.1c0.3-0.1,0.7-0.2,1-0.3l0.5-0.1l0.3,0c0.2,0,0.1,0,0,0
							c0.3-0.1,0.7-0.1,1-0.1h1c4.6,2.4,9.3,4.7,14,7.1c1.3,0.6,2.4,1.5,3.4,2.5c0.2-0.3,0.6-0.4,0.9-0.2c0.3,0.2,0.4,0.7,0.2,1
							c-0.1,0.2-0.2,0.3-0.4,0.3c0.6,1.2,0.9,2.5,0.9,3.8c0,4.2-2.7,5.9-5.8,7.3c-1.9,0.8-3.9,1.4-6,1.6c-6.3,0.9-11.3-0.9-12.7-5.8
							c-1.3-4.5-0.9-9.6-1.2-14.4c0-0.1,0-0.1,0-0.2c0.2-0.1,0.3-0.3,0.4-0.5C-345.9,384.3-345.8,384.1-345.8,384L-345.8,384
							L-345.8,384 M-286.7,356.3c0-0.8,0.8-1.5,1.3-2.3c0.7,0.3,1.3,0.8,1.9,1.3l0.6,0.8c-3,4.1-5.9,8.1-8.8,12.2
							c-3.3,4.5-6.6,9.1-9.8,13.7c-1.2-1.6-2-3.5-2.2-5.5c-0.5-3.6,5-10.7,8.7-11C-290.8,365.1-286.8,360.7-286.7,356.3
							 M-249.1,306.6c-0.1,0.1-0.2,0.1-0.3,0.1c0.8-1.4,1.5-2.9,2.3-4.3C-246.9,303.6-248.3,305.4-249.1,306.6 M-252.8,312.9
							c0.3-0.6,0.7-1.3,1-1.9C-251.9,311.7-252.2,312.4-252.8,312.9 M-284,366.9c-3.1,6.1-6.1,12.3-9.1,18.4c-0.5,0-0.9,0-1.4-0.1
							c-1.7-0.1-3.3-0.6-4.8-1.3l4.7-6.6l8.4-11.6c0.2,0.3,0.4,0.5,0.6,0.7C-285.1,366.8-284.6,366.9-284,366.9 M-304.3,385.7
							c-4.4,6.1-8.8,12.1-13.4,18c-0.4-2.8-0.1-5.7,1-6.7c2.4-2.1,5.3-3.7,7.8-5.9c1.1-0.9,1.6-2.6,2.3-3.9c-1.3,0-2.7,0.1-4,0.3
							c-1.2,0.4-2.3,0.9-3.3,1.5c-1.2,0.7-2.4,1.4-3.6,2.1c-0.2-1.7-0.8-3.4-0.6-5c0.6-3.9,5.3-9.3,8.2-9.4c0.9,0,2.5,1.1,2.5,1.8
							C-307.3,381.2-306.2,383.8-304.3,385.7 M-316.7,434.7c-2.8-1.9-5.6-3.9-8.5-5.6c-2.3-1.4-3.6-3-2.3-5.7
							c1.6-3.2,3.5-1.2,5.5-0.4c3,1.2,6,2.6,9.1,3.8C-314.3,429.5-315.5,432.1-316.7,434.7 M-292.5,391.4c1.4,1.3,1.6,3.5,0.3,5
							c-0.9,0.9-2.1,1.4-3.4,1.4C-294.6,395.6-293.5,393.5-292.5,391.4 M-349.7,438.7c2.4-3,4.6-6.1,6.5-9.5
							c1.3-2.2,2.2-4.6,5.4-3.1c0.2,0.1,0.5,0.2,0.8,0.3c-3.2,3.4-6.5,6.7-9.8,10c-1.3,1.3-2.5,2.6-3.8,3.9
							C-350.3,439.8-350,439.3-349.7,438.7 M-332.9,417c0.9,0.4,1.7,2.9,1.5,3.1c-1.5,1.1-3.3,2.7-4.8,2.5c-2.8-0.5-4.9-2.5-4.1-6
							c1-2.3,1.3-4,2.2-5.1c0.7-0.7,2.4-0.5,3.6-0.7c0,1,0.4,2.2,0.1,3.1C-335.2,416.3-335.2,416-332.9,417 M-327.9,408.3
							c0.9-0.8,2.3-0.9,3.2-1.7c2.5-2.3,3.9-2,4.5,0.2c-2.3,2.9-4.6,5.9-7,8.7c-0.9-1.5-1.7-3-2.4-4.6
							C-329.8,410.4-328.7,409-327.9,408.3 M-323.9,446.5c-4.4,1.4-8.8,2.6-13.3,3.6c-1.1,0-2.1-0.6-2.7-1.5
							c-0.2-0.8,0.6-2.1,1.3-2.9c1.7-1.8,3.9-3.3,5.5-5.2c0.6-0.7,0.4-2.3,0.5-3.4c-1.2,0.4-2.6,0.4-3.4,1.1
							c-2.4,2.3-4.3,5.1-6.7,7.3c-1.1,1-3.4,2.3-4.2,1.8c-1.3-0.8-2.4-1.8-3.3-3l1-1.1c5.2-5.4,10.6-10.6,15.8-16.1
							c1.5,0.4,2.5,1.4,2.2,4.4c-0.6,4.8,2.4,8.2,6.9,9.6c1.3,0.5,2.5,1.2,3.6,2l-0.5,1.1C-322,445.2-322.9,446-323.9,446.5
							 M-323.9,449.9c-2.7,5.6-5.3,11.2-8,16.8c-3.2-0.7-6.4-1.6-9.5-2.7c-3.4-1.1-4.9-3.6-4.4-7.3c0.1-0.4-1.3-1.5-2-1.5
							c-2.4,0-4.8,0.3-7.1,0.4c-0.5-0.2-0.9-0.7-1.1-1.3c1-1.9,1.8-4.1,3.4-5.4c0.7-0.6,3.6,0.4,4.5,1.4c1.4,2,4,2.8,6.3,1.8
							C-335.9,454-329.3,453.2-323.9,449.9 M-321.6,438.9c-2.3-2.1-4.6-4.3-6.6-6.6c-0.4-0.4,0-1.4,0.1-2.2c0.7,0.2,1.8,0.3,2.1,0.7
							c1.8,3.6,4.5,5.7,8.3,6c-0.3,0.7-0.7,1.4-1,2.1L-321.6,438.9 M-320.9,420.7c-4.3-0.7-3-2-1.3-4.1c0.6-0.9,1.1-1.8,1.5-2.7
							c-0.5,0.2-1,0.3-1.5,0.5c1-1.2,2-2.5,3-3.7c1.1,2.3,3.2,3.5,5.9,4.2c1.3,0.3,2.6,0.8,3.9,1.1c0.6,0,1.2-0.2,1.7-0.4
							c-1.3,2.8-2.6,5.6-4,8.4C-314.7,422.7-317.7,421.2-320.9,420.7 M-309.2,372.2c-3.2,1.7-7.2,2.3-10-0.8s-1.4-7.3-0.7-11.1
							c0.2-0.9,1.3-1.7,1.9-2.5c8.5-2.3,13-0.8,16.3,5c0.5,0.8,1.1,2.5,0.7,2.8C-303.6,367.9-306.2,370.6-309.2,372.2 M-345.4,424.1
							c-1.9,11.2-11.4,16.4-21.7,13.5c-5.7-1.6-6.7-7.8-6.4-13.5c0-0.5-0.1-0.9-0.3-1.4c3.6-7,9.8-5.8,14.8-6.2
							c3.8-0.3,7.9,1.7,11.6,3.3C-346.3,420.3-345.2,422.8-345.4,424.1 M-355.6,443.1l-3.9-1c1.8-0.2,3-0.2,4.1-0.3
							C-355.4,442.2-355.5,442.7-355.6,443.1 M-372.9,468.2c-7.9,4.4-16,3-23.8,3.3c-1.7,0.1-3.9-2.2-5.1-3.9
							c-3.9-5.9-5.2-17.2,1.7-22.6c4.3-3.3,9.2-4.5,14.2-2.8c4.7,1.7,9.3,3.8,13.6,6.4c2.5,1.5,4,3.7,2.7,7.4
							C-371,460-368.9,464.9-372.9,468.2 M-358.7,486.8c5.7-0.4,11.6-0.8,15.2-6.2c1.5-2.2,1.8-5.2,2.9-7.7c0.6-1.3,2.2-3.4,2.4-3.3
							c1.3,0.7,3.1,0.2,4.6,0.5c-4,8.3-8.1,16.5-12.2,24.8c-3.2-0.2-6.4-0.7-9.4,2c-2.4,2.2-5.8-1.5-7-4.7
							C-364.2,487.3-363.8,487.2-358.7,486.8 M-349.6,499.3l-1-0.7l1.7-1.6C-348.7,497.7-349.2,498.5-349.6,499.3 M-351.2,501.8
							c0.7-0.1,1.4-0.1,2.1-0.2l-2.9,5.6c-0.5-0.4-1-0.8-1.4-1.1c-0.8-0.6-1-2.4-0.8-3.5C-354.2,502.2-352.2,501.9-351.2,501.8
							 M-275.2,432.3c-3.8-3.6-7.8-6.3-13.2-6.6c-0.4,0-1.2-2.3-0.8-2.9c1.1-2,2.8-3.6,4.1-5.5c0.4-0.6,0.1-1.7,0.1-2.6
							c-0.9,0.3-1.8,0.8-2.5,1.3c-2.9,2.9-5.6,5.8-8.4,8.7c-0.6,0.5-1.3,0.9-2,1.2c-0.3-0.7-0.6-1.4-0.8-2.1
							c-0.2-1.2-0.1-2.4-0.2-3.6c0-1-0.2-1.9-0.5-2.8c-1.4,0-2.8,0.2-4.1,0.8c-0.4,0.2-0.2,1.6-0.2,2.5c-0.2,1.8-0.4,3.5-0.6,5.3
							c-1.3-0.3-2.7-0.5-4-0.8c1.9-4.1,3.9-8.2,5.9-12.3c2-1.5,3.6-3.3,3.8-4.4c0.1-0.7-0.4-1.5-0.6-2.2h-0.1l2.8-5.9
							c3.2,1,3.7,3.2,1.5,6.4c-0.5,0.7-0.3,1.9-0.4,2.8c0.8-0.4,1.8-0.5,2.3-1.1c2.1-2.6,3.6-1.3,5.3,0.4c3,3.3,7.3,5.2,11.9,5.2
							c0.9-0.2,1.7-0.5,2.4-1c-0.5-0.7-1.1-1.3-1.8-1.8c-1.6-0.8-3.5-1.1-5.1-2c-0.8-0.6-1.5-1.3-2-2.1c0.9-0.4,1.9-0.6,2.9-0.6
							c7.3,1.1,12.4,8,11.3,15.3c-0.1,0.6-0.2,1.2-0.4,1.8c-0.7,2.5-1.8,4.9-1.9,7.4C-271.1,436-273.7,433.8-275.2,432.3
							 M-267.2,408.2c-0.9,0.3-1.8,0.1-2.5-0.4c-4.2-5-10.1-4.5-15.6-5.2c-2.4-0.3-4.4-0.9-3.4-4c0-4.4,2.4-4.7,5.3-4.1
							c0.7,0.1,1.6,0.9,2.1,0.6c1.3-0.7,2.5-1.5,3.6-2.4c-1.2-0.3-2.4-0.8-3.6-1c-2.3-0.5-4.6-0.8-6.9-1.3c-0.1-0.6-0.1-1.2,0.1-1.7
							c2.5-0.5,5.4-1.8,7.6-1.1c5.6,1.8,12,1.8,16.3,6.9C-260.4,399-261.9,406.3-267.2,408.2 M-279.7,365.2l1.1-2.2
							c0.2,0.7,0.3,1.3,0.3,2C-278.7,365-279.2,365.2-279.7,365.2 M-304.6,409.2l-0.5,1c-3,2.2-6.9,1.9-10.5-1
							c-0.5-0.5-0.9-1-1.1-1.6c2.7-3.5,5.4-7.1,8-10.6c0.7,0.4,1.5,0.7,2.3,0.9c2.1,0.6,4.3,1.1,6.4,1.6
							C-301.5,402.7-303.1,405.9-304.6,409.2 M-305.6,395.1c-0.8-0.2-1.8,0.8-2.8,1.5c2.2-3,4.4-6,6.5-9c1.6,0.9,3.4,1.5,5.2,1.9
							c0.5,0.1,0.9,0.2,1.4,0.4c-1.2,2.5-2.4,4.9-3.6,7.4C-301.1,396.5-303.3,395.6-305.6,395.1 M-266.4,339.1
							c0.3,2.9-0.6,5.8-2.5,8c-0.8,1-1.8,1.8-2.9,2.5C-270,346-268.2,342.5-266.4,339.1 M-262.9,334.5c-0.1-0.2-0.1-0.5,0-0.7
							l2.5-3.4c1.1-1,2.2-2,3.3-3l2,5c-1.3,0.5-2.5,1.1-3.7,1.9c-0.8,0.5-1.4,1.6-2.2,1.7C-261.9,335.8-262.6,335.3-262.9,334.5
							 M-252.7,326.9c1.7,0.5,3.5,1.4,5.2,1.3c4.4-0.2,8.8-0.9,13.2-1.3c0.8-0.1,1.6,0,2.4,0c0,0.9-0.1,1.8-0.4,2.6
							c-2.7,5-10.5,8.6-15.8,7.4c-0.5-0.1-0.9-1.1-1.3-1.7c-0.6-1.3-1.1-1.9-1.4-2.5C-251.5,330.8-252.1,328.9-252.7,326.9
							 M-235.5,324.4c-5.6,0.7-11.4,1.5-16.7-1.2c-0.6-0.3-0.6-1.8-0.7-3.1l3.1-4.4c3.2-2.1,6.9-0.8,10.1,0.2
							c2.6,0.8,4.3,4.2,6.4,6.4C-234,323-234.7,324.3-235.5,324.4 M-236.1,301.1c-0.9,0.2-1.9,0.3-2.8,0.2h-0.1
							c0.5-0.7,1.1-1.4,1.6-2C-237,300-236.5,300.6-236.1,301.1 M-241.4,308.8c0-3.2,2.2-2.4,4-2c0.3,0.1,0.7,1.5,0.5,1.7
							c-1.3,1.2-3.3,3.5-3.9,3.2c-1.4-0.8-2.7-1.8-3.8-3l1.2-1.6C-242.8,307.7-242.1,308.3-241.4,308.8 M-238.9,296.2
							c-0.4,0.2-0.8,0.4-1.2,0.6l0.4,0.3c-0.8,1-1.6,2-2.4,3c-0.2-0.1-0.5-0.3-0.7-0.4c-0.8-0.4-1.5-0.8-2.2-1.3l2.4-4.5
							c3.3-0.4,6.5-1.7,9.1-3.7C-235.3,292.2-237.1,294.1-238.9,296.2 M-235.4,288.5c-1,0.9-2.9,1.4-5.1,1.6c1.5-2.8,3-5.6,4.6-8.4
							c0.6,1.2,1.2,2.4,1.8,3.6C-233.8,286-234.6,287.8-235.4,288.5 M-280.5,359.9c-0.7,1.5-1.5,3-2.2,4.5c-0.6-0.2-1.2-0.4-1.8-0.5
							h-0.2l3.6-5C-280.9,359.3-280.7,359.6-280.5,359.9 M-279.5,351.4c-1,0-1.9-0.2-2.9-0.4c-4.5-1-5.9-4.3-8.3-6.9
							c-2.7-2.9-1.1-12.1,2.3-15.6c2.2-2.3,8.9-1.9,11.9,1.4c1.7,1.8,4.2,4.5-0.1,7.2c-3.2,2-5.8,5.1-8.6,7.7
							c-0.4,0.5-0.7,1.2-0.7,1.8c0,0.3,0.6,0.8,1,0.9c5.7,0.4,15.2-10.8,13.1-15.8c-0.9-2.2-3.3-3.7-5.1-5.5c-1.1-1.1-2.2-2-3.4-3
							l3.8-1.8c5.8,2,5.9,7.4,8,11.5c0.3,0.6,0.6,1.2,0.8,1.8c-0.3,0.5-0.5,1.1-0.8,1.6L-279.5,351.4 M-266.1,328
							c-0.8-1.4-1.5-2.9-2-4.5c-0.6-2.2-0.6-3.3,1.9-2.4c1.7,0.6,3.7,0.3,5.6,0.1l-4,7.6C-265.1,328.6-265.7,328.4-266.1,328
							 M-294.5,335.4c-1-0.7-1.5-1.9-1.4-3.1c0-0.9,1.1-1.7,1.8-2.6c0.3,0.5,1,1.1,0.9,1.5C-293.6,332.6-294,334.1-294.5,335.4
							 M-400,511.3c-1.3,1.8-3.1,3.1-5.2,3.9c-0.2,0.1-0.3,0.1-0.5,0.1c-0.3,0.3-0.6,0.6-1,0.7c-4.2,1.3-8.5,2.6-12.9,2.7
							c-5.3,0.2-9.9-1.5-13.2-6.5c-4.2-6.3-5.8-13-4.4-20.1c0.9-4.3,2.6-10.1,5.9-12c12.5-7.2,29.8-0.7,34.7,12.5c1.1,3,2.7,5,5,5.9
							l-8.2,12.8V511L-400,511.3 M-392,493.2c-0.3-4.3,1.1-8,4.8-10.6c2.1-2.5,3.7-3.1,4.2,0c0.1,0.7,0.2,1.4,0.2,2.1l-0.5,0.7
							L-390,496C-390.7,495.1-391.9,494.2-392,493.2 M-232,310.9c1.1-0.4,2.3-0.4,3.5-0.1c-0.1,0.4-0.2,0.9-0.3,1.3L-232,310.9
							 M-192.8,290.1c-6-0.6-12.4-1.2-17.8-3.7c-2.8-1.3-5.6-2.6-8.4-3.9c-0.2,0-0.4-0.1-0.6-0.2c-0.4-0.2-0.7-0.4-1.1-0.6l-1.1-0.5
							l-0.2-0.1l0,0c-0.1,0-0.2-0.1-0.4-0.1c-0.1,0-0.2-0.1-0.2-0.2c-0.1-0.1-0.2-0.1-0.3-0.2c-8.4-4-16.6-8.4-24.5-13.4
							c-9.7-6.2-20.8-11-27.6-21.2c-1.2-1.9-2.7-4.2-2.6-6.2c0.1-1.7,2.2-3.3,3.5-5c0.5,0.4,1,0.8,1.6,1.2c-0.2,0.2-0.4,0.4-0.6,0.6
							c-2.2,3.4,0.4,7.2,2.6,9.9c2.6,3.3,7,5.4,10.6,7.6c4,2.4,8,4.8,12.1,7c2,1.1,4.1,2.2,6.2,3.3c0.8,0.4,1.7,0.9,2.5,1.3l0.7,0.4
							c3.6,2.1,7.2,4.5,11,6.3c8.2,3.9,16.5,7.6,25,11c2.5,1,5.7,0.7,8.4,0.1c1.2-0.3,2.5-2.8,2.6-4.3c0.1-2.4-0.8-4.9-1-7.3
							c-0.1-0.7,0.6-1.4,0.9-2.1c0.6,0.4,1.5,0.6,1.8,1.1c1.9,4,3.7,8.1,5.2,12.2C-183.6,286.2-188,290.5-192.8,290.1 M-177.6,282.9
							c-0.9-0.3-1.8-0.9-2.4-1.6c-2-2-4-4-5.9-6.1c-2.7-3-2.8-8.9-0.2-12c3.1-3.6,6.4-7.2,9.6-10.8c2.7-3.9,5.1-4.5,7.4-1.1
							c3.1,4.5,6.6,8.8,9.1,13.6c1,1.9-0.1,4.9-0.7,7.4C-162.7,281.1-169.1,285-177.6,282.9 M-144.6,257.3c3.2,3.6,8,7.5,6,14
							c-1.3,4.1-3.9,5.6-7.7,3.5c-1.3-0.7-2.5-1.4-3.8-2.2c-3.6-5.5-7-10.4-10.4-15.2c-1.7-2.4-3.2-5-5.3-7.1
							c-2.4-2.3-2.1-4.5-0.3-6.6s3.3-1.6,5.5,0.4C-155.4,248.9-149.1,252.3-144.6,257.3 M-131.3,229.4l0.1-0.1
							c2.2,2.7,4.7,5.2,7.3,7.5c3,2.5,6.3,4.8,8.7,8c1.8,2.3,4.3,6,3.3,9c-0.8,2.3-3.4,3.6-5.4,5.1c-5.7,2.7-12-1.1-16.3-4.9
							c-2.7-2.2-5.2-4.6-7.5-7.1c-2-2.4-3.5-5.2-4.5-8.1c-0.1,0-0.2,0-0.3-0.1c-0.5-0.3-1-0.6-1.5-0.9l-0.8-0.4l-0.2-0.1l-0.2-0.1
							h-0.1c-0.1,0-0.7-0.3-0.7-0.2l0,0h0.1h-0.5c-0.1,0-0.2,0.1-0.3,0.1l0,0c-0.2,0.1-0.3,0.2-0.5,0.3l0,0l-0.3,0.2
							c-0.2,0.2-0.4,0.4-0.6,0.5c-0.4,0.4-0.8,0.8-1.2,1.2c-0.6,0.7-1.3,1.5-2,2.1c-0.6,0.5-1.4,0.6-2,0.1c-2.1-0.2-4-1.3-5.3-3
							c-1-1.9-0.7-4.9,0.1-7.1c0.6-1.8,3.1-2.9,4.1-4.7c1.6-2.8,3.1-2.2,5.4-1.1c1.8,0.9,4.3,1.9,6,1.3c3.6-1.4,7.6-0.7,10.7,1.6
							C-134.4,229.5-132.2,230-131.3,229.4 M-128.6,221.2c-0.9,1-1.6,1-1.8,1.3c-3.4,4.2-7.1,4.1-9.5-0.7c-1.8-3.5-3.5-7.3-1.3-11.4
							c1.8-3.7,6.2-5.3,10-3.6c0,0,0,0,0,0c0.6,0.3,1.2,0.7,1.7,1.1c0.5,0.4,1.2,0.9,1.2,1.3C-128.3,213.2-128.5,217.2-128.6,221.2
							 M-114.4,205.4c-0.2,0.2-0.4,0.4-0.7,0.4c-1.3,0.4-2.5,0.6-3.8,0.8h-0.2c-0.6,0.1-1.2,0.1-1.8,0.1h-0.1c-0.6,0-1.3,0-1.9,0
							h-0.4c-0.8-0.1-1.6-0.1-2.3-0.3c-0.3,0-0.6-0.1-1-0.2l-0.5-0.1c-0.4-0.1-0.7-0.2-1.1-0.3l-0.3-0.1c-1-0.3-2-0.8-2.9-1.4
							l-0.1-0.1l-0.6-0.2c-4.7-2-8.4-1.5-10.9,3.5c-0.4,0.8-2.7,1.5-2.8,1.4c-0.2-0.3-0.3-0.6-0.5-0.8c-0.9-0.7-1.8-1.5-2.5-2.4
							c-0.4-0.6-0.9-1.1-1.5-1.6c-0.7-0.4-1.3-0.8-1.9-1.3c-0.5-0.5-0.9-1-1.5-1.4s-1.3-0.9-1.9-1.3c-1.2-0.9-2.3-1.9-3.4-2.9
							c-0.4-0.3-0.8-0.7-1.2-1l0,0c-0.7-0.5-1.3-1.2-1.8-1.9c-0.2-0.3-0.2-0.6-0.2-0.9c-0.4-0.4-0.9-0.7-1.3-1.1
							c1.9-0.4,3.9-1.2,5.9-0.8h0.4l0.4-0.1c0.5-0.1,1-0.2,1.5-0.4c0.8-0.2,1.6-0.5,2.4-0.7s1.6-0.6,2.4-0.8
							c0.5-0.1,1.1-0.2,1.7-0.2l5.7-1c0.5,0.7,1,1.3,1.6,2c6.2,7.4,14.1,11.8,23.9,12c1.5,0,3-1.1,4.4-1.6v-0.1h0.3c1,0,2-0.1,3-0.4
							c-0.1,0.2-0.1,0.5-0.2,0.7C-111.1,202.9-112.5,204.5-114.4,205.4 M-88,211c0.2,0.1,0.3,0.2,0.5,0.3c-0.2-0.1,0.4,0.2,0.2,0.1
							c0.2,0.2,0.4,0.3,0.5,0.5c0.2,0.2,0.5,0.7,0.7,1.1c0.5,0.8,1,1.6,1.5,2.5c0.8,1.5,1.5,3,2.1,4.6c0.7,1.8,1,3.7,1,5.6
							c-0.4,7.3-6.2,10.1-11.7,12.5c-1.8,0.7-3.7,0.9-5.6,0.6c-3.1-0.8-5.2-3.6-8.1-4.9c-0.2-0.1-0.5-0.2-0.7-0.2
							c-1.2-0.7-2.2-1.6-3.1-2.7c-1-1.5-1.9-3-2.7-4.7c-1.7-3.2-3.3-6.5-5-9.7c0.4-1.2,0.8-2.4,1.1-3.6c0.3-1,0.7-2,1.4-2.8
							c1.8-2,3.8-3.8,5.7-5.6c2.2-2.2,4.4-3.5,7.5-1c3,2.5,6.3,4.7,9.7,6.7C-91.3,210.9-89.6,211.2-88,211 M-86.4,198.8
							c0,2.9-0.9,5.7-2.7,8c-0.5,0.7-4.4-0.9-6.6-1.8c-1.3-0.6-2.3-2-3.6-2.8c-2.5-1.4-4.4-3.5-5.6-6.1c0.2-0.5,0.2-1.1,0.2-1.7
							c-0.1-1.3-0.4-2.7-0.9-3.9c0.3-2.1,1.1-4.1,2.3-5.8c2.1-3.1,4.7-3.1,6.9,0c1.7,2.4,3.2,5,4.8,7.5
							C-89.1,194.7-86.5,196.7-86.4,198.8 M-85.9,185.5c0.9,0.7,1.4,1.8,1.5,2.9c0,0.7-1.5,1.6-2.4,1.7c-1,0-2-0.4-2.6-1.2
							c-0.7-1.9-1.3-3.9-1.8-5.9C-89.2,183.5-87.4,184.3-85.9,185.5 M-82.4,178.4c-6.7,1-13.5,2.5-18.9-4c-1.6-1.9-5-2.2-7.5-3.4
							c-9.7-4.7-12.4-14.4-8.8-24.8c1.2-3.5,5.8-5.4,11.1-4.9c8.3,7.2,15.9,15.3,22.4,24.2c1.4,1.9,3,3.6,4.4,5.5
							C-76,175.8-76.5,177.6-82.4,178.4 M-58.1,190.6l0.8,1.3h-0.2c0.3,0.4,0.5,0.7,0.8,1.1c0.7,0.5,1.3,1,2,1.6l0.5,0.4
							c0.6,0.5,1.2,1.1,1.8,1.6c0.2,0.2,0.4,0.3,0.5,0.5c1.5,1.5,2.9,3,4.3,4.5c0.2,0.2,0.3,0.4,0.4,0.7c3.2,3.5,4.2,8.7,1.9,10.7
							c-3.3,2.9-6.5,0.9-9.7-0.8c-6.2-3.3-10-8.6-13.4-14.3c0,0,0.1,0,0.1,0c-0.8-1-1.4-2.2-1.9-3.4c-0.5-1.1-0.9-2.1-1.4-3.2
							c-0.2-0.5-0.5-1-0.8-1.5c-0.1-0.2-0.3-0.5-0.4-0.7s-0.2-0.4-0.3-0.5c-0.2-0.2-0.3-0.5-0.3-0.7c-1.2-1.9-2.2-3.9-3.2-6
							c-0.1-0.2-0.3-0.4-0.6-0.5l0.5-0.5c0.6,0.4,1.2,0.8,1.9,1.2l4.5,2.6c0.3,0.2,0.7,0.2,1,0.2c3.1,1.6,6.4,3,9.8,4.4l0.3-0.1
							l0.2,0.2h0.1l0.2,0.2c0.1,0.1,0.2,0.2,0.3,0.3c-0.2-0.2,0.2,0.2,0.2,0.3L-58.1,190.6 M-52,162.9c0.1,0.3,0.2,0.5,0.2,0.8
							c0.2,0.4,0.4,0.9,0.6,1.3s0.3,0.7,0.4,1.1c-0.2,0.7-0.4,1.4-0.5,2.1c-0.3,3.2-0.8,6.5-0.9,9.7c-0.1,4.6-4.1,6.1-7,7.4
							c-1.7,0.8-4.8-1.9-7.3-3c-0.1,0-0.1-0.1-0.2-0.1c-0.5-0.2-0.9-0.4-1.4-0.6c-0.3,0-0.6,0.1-0.9,0.2l-3.6-2.1
							c-0.6-0.4-1.2-0.7-1.8-1.1c0.2-0.2,0.5-0.5,0.7-0.7l0.2-0.1c-0.1-0.2-0.3-0.5-0.3-0.8c-0.1-0.3-0.1-0.6-0.1-0.9
							c0-0.2,0.1-0.5,0.1-0.7c-0.4-1-0.6-2.1-0.6-3.2c0-0.1,0-0.3,0-0.4c-0.2-0.6-0.2-1.2-0.2-1.8c0.7-4.1,1.3-8.3,2.7-12.1
							c1.2-3.2,3.9-5,7.8-3.4c0.9,0.4,1.8,0.6,2.8,0.7c0,0.1,0,0.3,0,0.4c1.4,0.8,2.8,1.8,4.2,2.8c0.8,0.4,1.6,1,2.4,1.5
							c0.3,0.2,0.5,0.5,0.8,0.7l0.2,0.1C-53.1,161.5-52.5,162.1-52,162.9 M-45.6,152l-6.9,5.1c-0.2,0.2-0.4,0.3-0.5,0.6
							c-1.4-1-2.9-1.9-4.4-2.7c3.7-0.8,7.3-1.9,10.9-2.9c0.4-0.1,0.8-0.2,1.3-0.2C-45.3,151.9-45.5,151.9-45.6,152 M-20,163.1
							c-0.3,0-0.5,0-0.8-0.1c0,0,0,0,0,0.1c0.1,0,0.2,0,0.3,0.1c1.7,0.9,3.1,2.2,4.2,3.8c0.3,0.2,0.5,0.4,0.8,0.7
							c1.6,1.7,3.1,3.5,4.5,5.4c3.3,4.5,7.1,10.2,7.4,15.9c0.1,1.3-0.3,3.4-2.1,3.1c-1.5-0.3-3.3-1.6-4.6-2.3
							c-3-1.6-5.9-3.5-8.7-5.5c-5.3-3.8-10.3-8.1-14.9-12.9c-4.3-4.5-8-10.5-6.5-17c0.2-0.8-0.3-1.6-1.1-1.8h-0.1c0-0.1,0-0.1,0-0.2
							c0.1-1.4,0.3-2.9,0.4-4.4c1.5,2.4,3.2,4.5,5.3,6.4c-0.6-0.1-1.3-0.1-1.9,0c0.3,0.6,0.6,1.2,1.1,1.6c1.2,0.9,2.6,1.5,4.3,2.5
							c1.4,0.5,2.8,1,4.3,1.4c2,0.4,4.8,1.7,6.4,1.5C-21.2,162-20.6,162.5-20,163.1 M-18.2,154.6c-0.1,0.1-0.2,0.3-0.3,0.4
							c-4.3,2.3-9.5,1.4-13.4-1.3c-4.7-3.2-8-8.6-10-13.9c-0.5-1.1-0.8-2.2-0.8-3.4c0.1-1.5,0.6-3,1.3-4.3c0.6-1.3,1.3-2.6,2.1-3.8
							c0.5-0.7,1.8-2.9,2.7-3.1c0.3-0.1,1.4,0.8,1.7,1l2.3,1.4l4,2.4l8.1,4.9c0.3,0.2,0.6,0.2,0.9,0.2c0.4,0.5,0.8,1,1.2,1.6v0.1
							c0.1,0.4,0.4,0.8,0.8,1C-13.2,144-13.7,147.5-18.2,154.6 M-10.6,136.3l-0.6,0.2c0.2-0.1-0.3,0.1-0.4,0.1l-0.4,0.1l-0.3,0.1
							h-0.1c-0.1,0-0.4,0-0.4,0s-0.4-0.2-0.2,0c-0.4-0.2-0.8-0.2-1.2-0.1c-0.4-0.7-0.9-1.4-1.4-2c-0.1-0.4-0.1-0.8-0.2-1.3
							s-0.1-1-0.1-1.5c0-0.1,0-0.2,0-0.4l0.8,0.3c0.9,0.4,1.8,0.8,2.6,1.3l0.2,0.2l0.1,0.1l0.5,0.4c0.1,0.1,0.3,0.3,0.4,0.4l0.1,0.2
							l0.1,0.1c0.1,0.2,0.2,0.4,0.3,0.6s0.1,0.2,0.1,0.3s0,0,0,0.1s0.1,0.3,0.1,0.5s0,0.2,0,0.1c0,0,0,0.1,0,0.1L-10.6,136.3
							 M17.8,148.9c4.5,3.5,9.1,10,8.6,15.7c0.2,0.4,0.1,0.9-0.1,1.2c-1.7,3-3.3,6.6-5.9,9l-0.7,1.2c-6.4,5.3-11.3,4.2-15.5-2.7
							c-3.1-5-4.8-10.9-6.7-16.6c-1.7-5.4-2.9-11.1-4.5-16.6c-0.3-0.6-0.8-1.1-1.4-1.4c0.8-0.5,1.3-1.4,1.3-2.4
							c0-0.7-0.2-1.5-0.5-2.1c0.2-0.1,0.4-0.3,0.7-0.4c0.9-0.5,2.5-1,3.1-0.6C3.4,138.3,10.8,143.4,17.8,148.9 M19.5,122
							c0.2,0.3,0.4,0.5,0.7,0.6c0.1,1.3,0.1,2.6,0,3.9l0,0c0,0.2-0.1,0.3-0.2,0.5l-0.1,0.2c0,0,0,0-0.1,0.2c0,0.1,0,0.1,0,0.2
							c-0.1,0.3-0.2,0.7-0.2,1c-0.1,0.7-0.2,1.3-0.4,2c-0.2,0.5-0.4,1-0.8,1.4c-0.4,1.2-1.1,2.3-2,3.3c-2,2.1-5.1,0.5-7.1-0.8
							C7,132.9,5,131.1,3.1,129c-0.3-0.4-0.7-0.7-1-1.1c-0.4-0.2-0.7-0.5-1-0.8c-0.4-0.4-0.7-0.8-0.9-1.3c-0.1-0.3-0.3-0.6-0.4-0.9
							l-0.1-0.1c-0.1-0.1-0.2-0.2-0.2-0.3h-0.1c-0.4-0.6-0.8-1.2-1.2-1.9c-3.2-6.1-1.6-13.6,3.8-17.8c0.3-0.2,0.5-0.4,0.8-0.6
							c0.7,0.1,1.3,0.1,2,0.2c1,0.7,2.1,1.3,3.3,1.8c1.5,0.5,2.8,1.5,3.8,2.7c0.9,1.3,1.7,2.6,2.4,4C16,116,17.8,119,19.5,122
							 M26.3,112.2c-0.2,0.3-0.5,0.7-0.8,1l-0.4,0.5l-0.3,0.3l-0.1-0.1l-0.3-0.3l0-0.1c0.4-0.7,0.2-1.6-0.5-2.1
							c-0.4-0.2-0.8-0.3-1.2-0.2l0,0c0,0,0,0,0-0.1c0-0.1,0-0.2,0-0.3c0-0.3,0-0.1,0-0.1c0-0.1,0.1-0.3,0.1-0.4v-0.1l0,0
							c0-0.1,0.1-0.2,0.1-0.2c0.1-0.2,0.2-0.4,0.4-0.6c0-0.1,0.1-0.2,0.2-0.3l0-0.1c0.1-0.2,0.3-0.3,0.4-0.5
							c0.1-0.2,0.3-0.3,0.5-0.4c0.1-0.1,0.1-0.1,0.2-0.1s0,0,0,0l0,0c0.2-0.1,0.3-0.2,0.5-0.3l0.3-0.1l0.3-0.1l0.2-0.1l0.4-0.1
							l0.2-0.1h0.2h0.8h0.3c0.2,0,0.4,0.1,0.6,0.2l0.1,0.1C28.1,109.3,27.3,110.9,26.3,112.2 M34.8,102.2c-2.5,0.1-5.1-1-7.5-0.6
							C17,103,12.6,95.9,8.2,88.8c-0.4-0.7-0.8-1.4-1.2-2.1l0,0c-0.7-1-1.2-2.1-1.5-3.2c-0.3-1.1-0.5-2.1-0.9-3.1
							c-0.1-0.5-0.2-1.1-0.3-1.7c0-0.1,0-0.1,0-0.2s0-0.2,0-0.3c-0.1-0.2-0.1-0.5-0.2-0.7c0-0.1,0-0.3,0-0.4
							C2.9,71.9,3,66.4,4.5,61.3c0.8-2.4,1.9-6.1,4.1-7.6c0.1-0.1,0.1-0.1,0.2-0.2c0.7,0,1.4,0.1,2,0.4c6.4,2.5,10.4,7.6,13.9,13.4
							c5.6,9.3,11,18.5,13.8,29.2C39.4,100.3,38.4,102,34.8,102.2 M63,118.4c1.1,4,2.3,8.8,1.1,12.5c-2.3,7.7-14.3,15.4-22.9,11.9
							c-5.8-2.4-7.8-7.2-9.7-12c-2.6-6.6-1.5-13.2,2-19.4c0.8-1.6,1.4-3.4,1.9-5.1c5.1-3.5,7.9-0.9,11.2,2.1c2.5,2.2,5.7,4.4,8.9,5
							C59.1,114,62.1,115.3,63,118.4 M63.6,106.8c-1.9,1.8-6,3.1-8.4,2.3c-9-2.9-15.1-11.4-16-20.9c-0.1-0.4-0.2-0.7-0.2-1.1
							c0-0.3,0-0.6,0.1-0.9l0,0c0.2-0.8,0.6-1.6,1.1-2.3v-0.1v-0.1c0.1-0.2,0.2-0.4,0.2-0.5c0.2-0.3,0.3-0.6,0.5-0.9
							c0.1-0.2,0.2-0.3,0.3-0.5c-0.2,0.3,0.1-0.1,0.1-0.1c0.3-0.3,0.5-0.6,0.8-0.9l0.3-0.3c0,0,0,0,0.1-0.1c0.5-0.8,1.2-1.5,1.9-2
							v-0.2c2.1-1,4.3-1.8,6.7-2.2c5-0.6,13.5,7,13.7,11.4c0.2,3.8,0.9,7.6,0.8,11.3C65.5,101.5,65.3,105.1,63.6,106.8 M82.2,86.3
							c-1.6,1.3-3.1,2.5-4.7,3.8c-1.1,1-2.4,1.7-3.8,2.2c-1.3,0.5-2.8,0.3-3.9-0.6c-1.1-0.9-1.6-2.4-1.3-3.8c0.3-1,0.7-2,1.1-3
							c0.4-1.1,0.8-2.2,1.3-3.3c0.7-1.7,1.8-3.7,3.6-4.5c0.3-0.1,0.5-0.3,0.7-0.5c0.6,0,1.3,0,1.9,0.2c1.9,0.4,3.7,1.2,5.7,1.6
							c0.6,0,1.2,0.3,1.6,0.9c0.2,0.7,0.3,1.5,0.2,2.3c-0.1,0.8-0.2,1.6-0.5,2.4C83.7,84.9,83.1,85.7,82.2,86.3 M84.5,74.1
							c-0.8-0.6-2-0.5-3-0.7c-8-1.6-15.7-4.1-21.1-10.7S49.8,49.6,53,40.4v-0.2c0-0.2,0.1-0.3,0.1-0.4c0,0,0-0.1,0-0.1
							c0.4-1.3,1-2.6,1.7-3.8c0.5-1,1.2-1.9,2-2.8l0.2-0.2l0,0h0.1c0.7-0.7,1.7-1,2.7-0.8c5.2-1.5,10.4-3.3,15.7-3.9
							c2.8-0.3,6.5,1.9,8.9,3.9c3.9,3.4,7.8,7.1,10.4,11.5c3.5,6.1,8,12.2,8.2,19.4l-0.1,0.1c0.2,1.8,0,3.7-0.8,5.3
							c-0.6,1.1-1.5,2.1-2.5,2.7c-1.1,1.1-2.2,2.1-3.5,3.1c-0.2,0.2-0.3,0.4-0.4,0.6C92,77.1,88.3,77,84.5,74.1 M98.8,82.2
							c7.3,2.5,12.5,7.2,17.6,12.5c3.7,3.9,6.6,7.6,6.1,12.8l0,0v0.1c0,0.1,0,0.1,0,0.2c0,0.1,0,0.3-0.1,0.4c0,0.5-0.1,1-0.3,1.4
							c0,0.1-0.1,0.3-0.2,0.4c0,0,0,0.1,0,0.1c-0.4,1-0.8,1.9-1.4,2.8c-0.3,0.6-0.7,1.1-1.1,1.7c-0.2,0.2-0.3,0.4-0.5,0.6
							s-0.3,0.3-0.4,0.5s-0.3,0.4-0.5,0.5c-0.2,0.2-0.4,0.3-0.5,0.5l-0.1,0.1c-6.4,6.6-16.1,6.4-21.5,2.8
							c-8.7-5.8-14.6-19.9-12.3-29.8c0.1-0.3,0.2-0.6,0.2-0.9l0.1-0.1c1.1-0.8,2.1-1.9,2.7-3.1c0.4-1,0.7-2.1,0.8-3.2
							c2.8-2.6,6.8-2.8,11.3-0.3 M125.8,74.6c-0.5,0.6-1,1.1-1.6,1.6c-1.2,0.9-1.8,2.5-2.9,3.5c-2.9,2.6-10.3,1.1-12-2.9
							c-1.5-3.6-1.7-7.8-2.4-11.8c-0.5-2.9-1-5.8-1.5-8.9c0.2-0.1,0.4-0.3,0.6-0.5c0.1-0.2,0.3-0.5,0.4-0.7s0.1-0.2,0.2-0.2v-0.1
							c0.3-0.4,0.7-0.8,1.1-1.1c0.2-0.2,0.3-0.3,0.5-0.5l0.1-0.1l0.3-0.2c0.4-0.3,0.9-0.5,1.3-0.7c4.3-0.5,8.7,0.5,12.3,2.9
							c5,3.7,7.2,10,5.5,16l0,0c0,0.2-0.1,0.3-0.2,0.5l0.1-0.2c-0.1,0.1-0.1,0.3-0.1,0.4l0,0c-0.1,0.3-0.2,0.6-0.3,1
							c-0.1,0.3-0.2,0.5-0.3,0.8C126.7,73.8,126.3,74.2,125.8,74.6 M141.4,68.2c-0.9,0.8-1.8,1.6-2.8,2.3l-2.8,2.3
							c-0.4,0.4-0.9,0.8-1.3,1.1c-0.3,0.1-0.6,0.2-0.9,0.3c-0.9-0.1-1.8-0.4-2.5-0.9c-0.4-0.2-0.8-0.5-1.1-0.7c1.7-5,0.8-13-2-16.7
							c-1-1.4-1.2-3.3-1.8-5c1.6,0.8,3.7,1.1,4.7,2.4c3.6,4.4,7.6,7.2,12.2,8.1c0,0.6,0,1.3,0.1,1.9c0.2,0.8,0.3,1.6,0.2,2.3
							C143.1,66.7,142.3,67.5,141.4,68.2 M152,57.3c-6.5,1.4-11.9,0.3-17.1-4.8c-6-5.9-10.1-12.3-12-20.6c-1-4.4,0.4-7.8,3.5-9.8
							c2.1-1.4,5.7-0.7,8.6-0.9c4.9,1.3,9.2,4.1,12.4,8c6.7,7.5,7,16.1,6.9,25.1C154,55.5,153.2,56.7,152,57.3 M175.6,73.8
							c0.2,0.2,0.4,0.4,0.6,0.6c0.7,0.4,1.3,0.9,1.9,1.5h0.1c2,2.7,4,5.5,6.2,8c4.1,4.7,5.2,9.7,2.5,15.5c0,0.1-0.1,0.3-0.1,0.4
							c-0.8,1.7-1.7,3.3-2.9,4.7l-0.1,0.2c-0.8,0.2-1.5,0.5-2.1,1c-0.6,0.4-1.1,0.8-1.6,1.2l0,0c-0.3,0.1-0.6,0.3-0.8,0.5
							c-9.4,6-18.1,1.2-24.8-7.3c-5.8-7.4-4.5-16.8-3.1-25.8c0-0.2,0-0.4,0-0.6v-0.6c0-0.1,0-0.3,0.1-0.4s0-0.3,0.1-0.5
							s0.1-0.3,0.1-0.5s0.1-0.2,0.1-0.3s0.1-0.4,0.2-0.6s0.1-0.4,0.2-0.6c0.8-2.5,1.8-4.9,3-7.2c0.3-1.1,0.8-2.2,1.4-3.2
							c1.6,0.1,2.9,1.1,4.6,2.4c2.8,2.2,5.2,4.9,8.2,6.7c0.1,0.3,0.3,0.5,0.6,0.7c1.1,0.7,2.2,1.5,3.2,2.3
							C173.8,72.3,174.8,73,175.6,73.8 M190.1,58.9c-6.3,8.7-12.9,10.9-21,5.2c-1.5-1-2.7-2.5-4.2-3.5c-5.9-3.6-9.7-12.9-7.6-19.5
							c0.3-0.9,1.7-1.7,2.8-2.1c4.9-1.9,10.3-2.1,15.4-0.7c0.2,0,0.4,0,0.5,0.1h0.1l0.4,0.1h0.2l0.4,0.2l0.2,0.1l0.3,0.2
							c0.1,0,0.2,0.1,0.3,0.2c0.4,0.1,0.8,0.3,1.2,0.5c0.3,0.2,0.6,0.4,0.9,0.6c3.1,1.2,6.1,2.8,8.9,4.6c1.8,1.1,3.4,2.2,4.2,4.2
							c0.1,0.4,0.2,0.8,0.3,1.2c-0.2,0.3-0.3,0.6-0.4,0.9C192,53.7,191.6,56.7,190.1,58.9 M196,48.3c-0.3-0.8-0.7-1.5-1.3-2.2
							c0.6,0.2,1.2,0.5,1.8,0.7l1,0.5C197,47.5,196.5,47.8,196,48.3 M178.2,20.9L178.2,20.9c0.1-0.1,0.1-0.1,0.1-0.1
							c0.1-0.6,0.2-1.2,0.6-1.8c0.6-1.2,1.3-2.4,2-3.6c0-0.1,0.1-0.1,0.1-0.1c0.1-0.2,0.1-0.4,0.2-0.6c0.9-2.1,2.9-3.1,5.1-3.6
							c4.1-0.9,8.7,0,12.5,1.7c3.9,1.8,7.3,4.6,9.7,8.1c1.2,2,2.3,4,3.2,6.2c1.1,2.1,2.5,4.1,3.2,6.4c0.1,0.2,0.2,0.3,0.3,0.5
							c0.3,2.2,0.7,4.4,1,6.6c0.8,5-0.4,6.4-5.5,6c-3.8-0.3-7.7-0.9-11.4-1.9C185.8,41.3,179.5,31.9,178.2,20.9 M204,53.4l-0.5,0.2
							h-0.1l-0.2,0.1c-0.4,0.1-0.7,0.3-1.1,0.3c-0.6,0.1-1.2,0.1-1.8-0.1l-0.3-0.1l0,0c-0.2-0.1-0.4-0.2-0.6-0.3
							c-0.2-0.1-0.3-0.2-0.5-0.3l-0.3-0.2h-0.1l0,0c-0.1-0.1-0.3-0.2-0.4-0.4c-0.1-0.1-0.1-0.1-0.2-0.2v-0.1l-0.1-0.2
							c0,0,0-0.1-0.1-0.1l0,0c0-0.1-0.1-0.2-0.1-0.3c0.1,0.3,0,0,0-0.2c0,0,0-0.1,0-0.1c0,0,0-0.1,0-0.1c0-0.1,0.1-0.3,0.1-0.4l0,0
							c0-0.1,0.1-0.1,0.1-0.2l0.1-0.2l0,0l0.3-0.3l0,0l0,0l0,0c0.1,0,0.1-0.1,0.1-0.1l0,0h0.1c0.1,0,0.1-0.1,0.2-0.1
							c0.6-0.2,1.1-0.8,1.1-1.5c0.3,0.5,0.8,0.8,1.4,0.8h0.1h0.2c0.1,0,0.3,0.1,0.4,0.1l0,0l0.1,0.1c0.2,0.1,0.3,0.2,0.5,0.3
							c0,0,0.1,0.1,0.1,0.1l0,0c0.1,0.1,0.3,0.2,0.4,0.4c0.1,0.1,0.2,0.3,0.4,0.4c-0.2-0.2,0.1,0.1,0.1,0.2c0.2,0.3,0.4,0.6,0.5,0.9
							l0.1,0.2l0,0c0.1,0.2,0.1,0.4,0.2,0.6c0,0.1,0,0.1,0.1,0.2L204,53.4 M206.8,50.3c-0.1-0.2-0.2-0.3-0.3-0.5
							c0.3-0.1,0.7-0.1,1-0.2c-0.1,0.8,0.1,1.8,0,2.5C207.4,51.5,207.1,50.9,206.8,50.3 M231,94.3c-4.3,7-13.5,6.6-18.6,2.6
							s-8.6-9.4-12.2-14.7c-1.6-2.2-2.9-4.8-3.6-7.4c-0.1-0.2-0.1-0.3-0.2-0.5c0-0.1,0-0.2,0-0.3c0-0.1,0-0.3,0-0.4
							c0-0.2,0-0.3,0-0.5c0.1-1.4,0.4-2.7,0.8-4c0.5-1.3,1.1-2.6,1.9-3.8c0.7-1.1,1.6-2,2.2-3.1c0.1-0.1,0.1-0.1,0.2-0.2
							c0,0,0-0.1,0-0.1c2.1-1.9,4.1-3.9,6.5-5.9c0.7-0.5,1.3-1.1,1.8-1.8c3.2-4.6,6.2-4.5,9.4,0.2c3.3,4.9,6.6,9.9,10.1,14.7
							C235.1,76.8,235.8,86.6,231,94.3 M242.7,61.5c0.3,1.2,0.7,2.5,0.9,3.8c0.1,0.4,0.1,0.8,0.1,1.3v0.2c-0.1,1-0.9,1.3-2.1,1.8
							c-2.2,1-4.2,2.2-6,3.8c-0.2-0.3-0.4-0.7-0.6-1c-2.9-4-6.2-7.6-8.5-11.9c-3.3-6.4-9.5-11.9-7.4-20.5c0.6-2.3-0.6-5.1-1.3-7.7
							c0.2-0.1,0.5-0.3,0.6-0.5c1.6-2.3,4.4-3.3,7.1-2.7c1.8,1.2,3.7,2.2,5.7,3.1c0.1,0,0.2,0.1,0.3,0.1c2.9,2.9,4.4,6.8,5.6,10.7
							c-0.1,2,0.9,4.2,1.5,6.2c0.1,0.2,0.2,0.3,0.4,0.3C240.4,52.8,241.5,57.1,242.7,61.5 M250,47.7c-1,0.1-2,0.1-3-0.2
							c-1-1.3-2.4-2.2-3.9-2.7c-0.6-0.2-1.2,0-1.5,0.5c-0.3-0.9-0.6-1.9-0.9-2.8c-0.1-0.9-0.2-1.9-0.4-2.8c-0.2-1.7-0.1-3.9-1.1-4.8
							c-0.5-0.4-1-0.9-1.5-1.3c1.5-5.8,2.9-11.6,4.6-17.3c0.8-2.7,1.9-5.2,4.3-6.8c2-1.3,4.3-1.9,6.6-1.8c0.3,0,0.5,0,0.8,0.1
							c3,1.9,5.8,4.3,8.6,6.5c0.5,0.9,0.9,1.8,1.2,2.7c0.7,1.9,1,3.8,1.1,5.8c0.1,0.1,0.1,0.2,0.1,0.3l0,0c0,0.2,0,0.3,0,0.5
							c0,0,0,0.1,0,0.1c0,0.2-0.1,0.3-0.2,0.5c-0.4,1-0.7,2-0.8,3.1l0,0c0,0,0,0,0,0.1c-0.2,1.1-0.5,2.3-1,3.3
							c-0.2,0.4-0.4,0.7-0.6,1.1l-0.2,0.3c-0.2,0.3-0.4,0.5-0.7,0.8s-0.6,0.6-0.9,1c-1.5,2.8-3,5.7-4.5,8.5c-1.1,2.1-2.6,4.8-5.3,5
							C250.6,47.2,250.2,47.4,250,47.7 M280.4,85.4c-6.6,3.2-17.3-1.2-20.5-7.8c-1.4-2.9-2.7-5.8-4-8.8c-0.2-0.3-0.4-0.6-0.6-0.9
							l-0.2-0.3c-0.2-0.4-0.4-0.8-0.6-1.1c-0.5-1.1-0.8-2.2-1.1-3.3c-0.2-0.6-0.3-1.3-0.5-1.9c-1-2.2-1.8-4.3-2.7-6.6
							c-0.4-1.1-0.8-2.2-1.2-3.3c2.4,1.6,5,4.2,7.2-0.7c0.2-0.4,1.9-0.6,2.5-0.2c8.3,4.7,16.8,9,24.6,14.3c4.5,3.1,6,8.2,5.4,14.2
							C288.2,84.9,283.3,84,280.4,85.4"/>
					</g>
					<g id="Group_23">
						<path id="Path_17" class="st2" d="M28.6,107.5L28.6,107.5"/>
					</g>
					<g id="Group_24">
						<path id="Path_18" class="st2" d="M31.7,108.6l-0.2,0.4C31.6,108.8,31.6,108.7,31.7,108.6L31.7,108.6"/>
					</g>
					<g id="Group_25">
						<path id="Path_19" class="st2" d="M31.4,105.6c0.2,0.1,0.4,0.3,0.5,0.6C31.7,106,31.6,105.8,31.4,105.6"/>
					</g>
					<g id="Group_26">
						<path id="Path_20" class="st2" d="M24.8,114L24.8,114"/>
					</g>
					<g id="Group_27">
						<path id="Path_21" class="st2" d="M204.8,53L204.8,53C204.8,53,205.1,52.8,204.8,53"/>
					</g>
					<g id="Group_30">
						<path id="Path_24" class="st2" d="M198.4,50.3L198.4,50.3c0.1,0,0.1-0.1,0.1-0.1L198.4,50.3"/>
					</g>
				</g>
			</g>
		</g>
	</g>
</g>
</svg>
